<svg xmlns="http://www.w3.org/2000/svg" viewBox="0 0 850 600" width="550" height="550"><defs><clipPath id="a"><polygon fill="none" points="825.46 83.39 831.51 516.15 28.55 516.52 28.55 83.39 825.46 83.39"></polygon></clipPath><clipPath id="b"><rect width="813.97" height="433.13" x="17.92" y="83.45" fill="none" data-name="SVGID"></rect></clipPath></defs><g data-name="Layer 1"><g data-name="5"><rect width="813.97" height="433.13" x="17.92" y="83.45" fill="#f8f7fb" class="colorf8f7fb svgShape"></rect><polygon fill="#ddd0e7" points="19.62 83.78 180.48 152.04 425.66 151.56 670.85 152.04 831.71 83.78 19.62 83.78" class="colorddd0e7 svgShape"></polygon><polygon fill="#ddd0e7" points="828.96 516.51 17.92 516.51 17.92 514.66 180.1 413.06 187.69 413.03 505.54 411.75 668.26 411.09 828.96 516.51" class="colorddd0e7 svgShape"></polygon><polygon fill="#ddd0e7" points="180.43 152.04 180.43 418.49 197.81 418.49 196.88 151.05 180.43 152.04" class="colorddd0e7 svgShape"></polygon><polygon fill="#ddd0e7" points="654.78 152.04 654.78 418.49 672.16 418.49 673.53 147.43 654.78 152.04" class="colorddd0e7 svgShape"></polygon><polygon fill="#927ab8" points="831.89 514.91 831.89 516.59 823.02 516.59 822.92 516.51 661.53 411.75 189.76 411.75 187.69 413.03 21.2 516.51 17.92 516.51 17.92 510.81 187.88 405.17 663.48 405.17 664.3 405.7 831.89 514.91" class="color927ab8 svgShape"></polygon><polygon fill="#1e4e95" points="695.11 425.36 695.11 229.19 751.86 215.05 748.9 462.91 695.11 425.36" class="color1e4e95 svgShape"></polygon><polygon fill="#3a6ab3" points="749.23 222.45 746.54 451.42 745.41 450.63 697.74 417.35 697.75 234.62 749.23 222.45" class="color3a6ab3 svgShape"></polygon><path fill="#3a6ab3" d="M274.71,341.8h.22l-1.17,5.82-2.83,14.08,2.05,0-.1.51-49.48-.53,4-19.9h-.21a59.52,59.52,0,0,1-.35-13.28,21.08,21.08,0,0,1,.88-4.27,4.62,4.62,0,0,1,4.38-3.13H277c-1.5,1.6-2.26,4.34-2.61,7.32a51,51,0,0,0-.07,9.46C274.48,340.22,274.71,341.8,274.71,341.8Z" class="color3a6ab3 svgShape"></path><path fill="#1e4e95" d="M280.51,325.47,273,361.73l-2.05,0,4-19.9h-.22s-2.34-15.75,2.27-20.68h0A3.61,3.61,0,0,1,280.51,325.47Z" class="color1e4e95 svgShape"></path><polygon fill="#7458a5" points="215.38 430.82 213.24 430.82 213.24 383.87 256.17 383.87 256.17 430.17 254.03 430.17 254.03 386 215.38 386 215.38 430.82" class="color7458a5 svgShape"></polygon><rect width="2.52" height="69.41" x="322.06" y="365.53" fill="#148876" class="color148876 svgShape"></rect><rect width="1.96" height="69.41" x="195.46" y="365.53" fill="#148876" class="color148876 svgShape"></rect><polygon fill="#17a291" points="301.08 420.96 322.48 405.29 322.48 366.09 298.3 376.47 301.08 420.96" class="color17a291 svgShape"></polygon><polygon fill="#97d5cb" points="163.98 376.88 306.11 376.88 330.6 363.88 330.6 360.1 187.76 364.87 163.98 372.11 163.98 376.88" class="color97d5cb svgShape"></polygon><polygon fill="#3cbca1" points="163.98 372.11 306.11 372.11 330.6 360.1 187.76 360.1 163.98 372.11" class="color3cbca1 svgShape"></polygon><polygon fill="#58c2ad" points="172.48 421.02 301.08 421.02 301.08 376.67 172.7 376.67 172.48 421.02" class="color58c2ad svgShape"></polygon><rect width="2.24" height="69.41" x="172.1" y="375.56" fill="#148876" class="color148876 svgShape"></rect><rect width="2.66" height="69.41" x="299.96" y="375.07" fill="#148876" class="color148876 svgShape"></rect><path d="M174.61,420.85s5.56-12.89,22.1-14.37,30,.33,39.19-5.75,33.35-14.81,42-15.14,22.37-8.88,22.37-8.88v44.48Z" style="mix-blend-mode:multiply" fill="#927ab8" opacity=".13" class="color927ab8 svgShape"></path><path d="M277,321.12c-1.5,1.6-2.26,4.34-2.61,7.32-2.67-.66-10.36-2.31-16-1.24-6.91,1.32-10.69.33-19.24-.65a24.08,24.08,0,0,0-12.32,2,21.08,21.08,0,0,1,.88-4.27,4.62,4.62,0,0,1,4.38-3.13Z" style="mix-blend-mode:screen" fill="#3a6ab3" opacity=".44" class="color3a6ab3 svgShape"></path><path d="M274.93,341.81l-1.17,5.82a17.13,17.13,0,0,1-3,.46c-3.29.17-4.77-1-9.21-2.14s-18.1-1.8-22-2.13-6.09-2.64-1.65-2.47,18.42-1.15,25.49-1a23.87,23.87,0,0,0,11-2.46c.18,2.32.41,3.9.41,3.9Z" style="mix-blend-mode:multiply" fill="#7458a5" opacity=".13" class="color7458a5 svgShape"></path><rect width="189.22" height="134.18" x="434.59" y="212.16" fill="#e5dad8" class="colore5dad8 svgShape"></rect><path fill="#a29691" fill-rule="evenodd" d="M440.14,221.75a3.17,3.17,0,1,0-3.17-3.17A3.17,3.17,0,0,0,440.14,221.75Z" class="colora29691 svgShape"></path><circle cx="440.14" cy="339.91" r="3.17" fill="#a29691" class="colora29691 svgShape"></circle><path fill="#a29691" fill-rule="evenodd" d="M618.26 221.75a3.17 3.17 0 10-3.17-3.17A3.18 3.18 0 00618.26 221.75zM618.26 343.08a3.17 3.17 0 10-3.17-3.17A3.18 3.18 0 00618.26 343.08z" class="colora29691 svgShape"></path><rect width="169.54" height="114.86" x="444.42" y="221.82" fill="#096064" class="color096064 svgShape"></rect><path fill="#0a9485" fill-rule="evenodd" d="M451,221.82h.77V336.67H451V221.82Zm127.41,0h.76V336.67h-.76V221.82Zm28.31,0h.77V336.67h-.77V221.82Zm-7.08,0h.77V336.67h-.77V221.82Zm-7.08,0h.77V336.67h-.77V221.82Zm-7.08,0h.77V336.67h-.77V221.82Zm-14.14,0h.77V336.67h-.77V221.82Zm-7.08,0H565V336.67h-.77V221.82Zm-7.08,0h.77V336.67h-.77V221.82Zm-7.08,0h.77V336.67h-.77V221.82Zm-7.08,0h.77V336.67H543V221.82Zm-7.07,0h.77V336.67h-.77V221.82Zm-7.08,0h.77V336.67h-.77V221.82Zm-7.08,0h.77V336.67h-.77V221.82Zm-7.08,0h.77V336.67h-.77V221.82Zm-7.08,0h.77V336.67h-.77V221.82Zm-7.08,0h.77V336.67h-.77V221.82Zm-7.07,0h.76V336.67h-.76V221.82Zm-7.08,0h.77V336.67h-.77V221.82Zm-7.08,0H480V336.67h-.77V221.82Zm-7.08,0H473V336.67h-.77V221.82Zm-7.08,0h.77V336.67h-.77V221.82Zm-7.08,0h.77V336.67H458Z" class="color0a9485 svgShape"></path><path fill="#0a9485" fill-rule="evenodd" d="M614,332v.77H444.43V332Zm0-7.08v.77H444.43v-.77Zm0-7.08v.77H444.43v-.77Zm0-7.08v.77H444.43v-.77Zm0-7.08v.77H444.43v-.77Zm0-7.07v.77H444.43v-.77Zm0-7.08v.77H444.43v-.77Zm0-7.08v.77H444.43v-.77Zm0-7.08v.77H444.43v-.77Zm0-7.08V269H444.43v-.77Zm0-7.08v.77H444.43v-.77Zm0-7.08v.77H444.43v-.77Zm0-7.07v.77H444.43V247Zm0-7.08v.77H444.43v-.77Zm0-7.08v.77H444.43v-.77Zm0-7.08v.77H444.43v-.77Z" class="color0a9485 svgShape"></path><path fill="#e5dad8" fill-rule="evenodd" d="M493 224.75a.77.77 0 00-.19-.5.76.76 0 00-1.33.5v3a.76.76 0 001.52 0v-3zm-1.52 109a.77.77 0 00.19.5.76.76 0 001.33-.5v-3a.79.79 0 00-.19-.5.76.76 0 00-1.33.5v3zm0-7.57a.77.77 0 00.19.5.76.76 0 001.33-.5v-3a.76.76 0 00-.19-.49.76.76 0 00-1.33.49v3zm0-7.57a.77.77 0 00.19.5.76.76 0 001.33-.5v-3a.77.77 0 00-.19-.5.76.76 0 00-1.33.5v3zm0-7.57a.77.77 0 00.19.5A.76.76 0 00493 311v-3a.77.77 0 00-.19-.5.76.76 0 00-1.33.5v3zm0-7.57a.77.77 0 00.19.5.76.76 0 001.33-.5v-3a.77.77 0 00-.19-.5.76.76 0 00-1.33.5v3zm0-7.56a.76.76 0 00.19.49.76.76 0 001.33-.49v-3a.77.77 0 00-.19-.5.76.76 0 00-1.33.5v3zm0-7.57a.81.81 0 00.19.5.76.76 0 001.33-.5v-3a.77.77 0 00-.19-.5.76.76 0 00-1.33.5v3zm0-7.57a.79.79 0 00.19.5.76.76 0 001.33-.5v-3a.79.79 0 00-.19-.5.76.76 0 00-1.33.5v3zm0-7.57a.79.79 0 00.19.5.76.76 0 001.33-.5v-3a.79.79 0 00-.19-.5.76.76 0 00-1.33.5v3zm0-7.57a.79.79 0 00.19.5.76.76 0 001.33-.5v-3a.79.79 0 00-.19-.5.76.76 0 00-1.33.5v3zm0-7.57a.77.77 0 00.19.5.76.76 0 001.33-.5v-3a.81.81 0 00-.19-.5.76.76 0 00-1.33.5v3zm0-7.57a.77.77 0 00.19.5.76.76 0 001.33-.5v-3a.76.76 0 00-.19-.49.76.76 0 00-1.33.49v3zm0-7.57a.77.77 0 00.19.5.76.76 0 001.33-.5v-3a.76.76 0 00-1.52 0v3zm0-7.57a.77.77 0 00.19.5.76.76 0 001.33-.5v-3a.77.77 0 00-.19-.5.76.76 0 00-1.33.5zM566 224.75a.72.72 0 00-.19-.5.75.75 0 00-1.32.5v3a.71.71 0 00.19.49.75.75 0 001.32-.49v-3zm-1.51 109a.72.72 0 00.19.5.75.75 0 001.32-.5v-3a.74.74 0 00-.19-.5.75.75 0 00-1.32.5v3zm0-7.57a.72.72 0 00.19.5.75.75 0 001.32-.5v-3a.71.71 0 00-.19-.49.75.75 0 00-1.32.49v3zm0-7.57a.72.72 0 00.19.5.75.75 0 001.32-.5v-3a.72.72 0 00-.19-.5.75.75 0 00-1.32.5v3zm0-7.57a.72.72 0 00.19.5A.75.75 0 00566 311v-3a.72.72 0 00-.19-.5.75.75 0 00-1.32.5v3zm0-7.57a.72.72 0 00.19.5.75.75 0 001.32-.5v-3a.72.72 0 00-.19-.5.75.75 0 00-1.32.5v3zm0-7.56a.71.71 0 00.19.49.75.75 0 001.32-.49v-3a.72.72 0 00-.19-.5.75.75 0 00-1.32.5v3zm0-7.57a.76.76 0 001.51 0v-3a.72.72 0 00-.19-.5.75.75 0 00-1.32.5v3zm0-7.57a.74.74 0 00.19.5.75.75 0 001.32-.5v-3a.74.74 0 00-.19-.5.75.75 0 00-1.32.5v3zm0-7.57a.74.74 0 00.19.5.75.75 0 001.32-.5v-3a.74.74 0 00-.19-.5.75.75 0 00-1.32.5v3zm0-7.57a.74.74 0 00.19.5.75.75 0 001.32-.5v-3a.74.74 0 00-.19-.5.75.75 0 00-1.32.5v3zm0-7.57a.72.72 0 00.19.5.75.75 0 001.32-.5v-3a.76.76 0 00-1.51 0v3zm0-7.57a.72.72 0 00.19.5.75.75 0 001.32-.5v-3a.71.71 0 00-.19-.49.75.75 0 00-1.32.49v3zm0-7.57a.72.72 0 00.19.5.75.75 0 001.32-.5v-3a.71.71 0 00-.19-.49.75.75 0 00-1.32.49v3zm0-7.57a.72.72 0 00.19.5.75.75 0 001.32-.5v-3a.72.72 0 00-.19-.5.75.75 0 00-1.32.5z" class="colore5dad8 svgShape"></path><path fill="#e5dad8" fill-rule="evenodd" d="M448,278.49a.72.72,0,0,0-.5.19A.75.75,0,0,0,448,280h3a.76.76,0,0,0,0-1.51Zm129.13,0a.72.72,0,0,0-.5.19.75.75,0,0,0,.5,1.32h3a.72.72,0,0,0,.5-.19.75.75,0,0,0-.5-1.32Zm33.3,1.51a.72.72,0,0,0,.5-.19.75.75,0,0,0-.5-1.32h-3a.74.74,0,0,0-.5.19.75.75,0,0,0,.5,1.32Zm-7.57,0a.72.72,0,0,0,.5-.19.75.75,0,0,0-.5-1.32h-3a.76.76,0,0,0,0,1.51Zm-7.57,0a.72.72,0,0,0,.5-.19.75.75,0,0,0-.5-1.32h-3a.71.71,0,0,0-.49.19.75.75,0,0,0,.49,1.32Zm-7.57,0a.72.72,0,0,0,.5-.19.75.75,0,0,0-.5-1.32h-3a.72.72,0,0,0-.5.19.75.75,0,0,0,.5,1.32Zm-15.59,0a.72.72,0,0,0,.5-.19.75.75,0,0,0-.5-1.32h-3a.76.76,0,0,0,0,1.51Zm-7.57,0a.72.72,0,0,0,.5-.19.75.75,0,0,0-.5-1.32h-3a.71.71,0,0,0-.49.19.75.75,0,0,0,.49,1.32ZM557,280a.72.72,0,0,0,.5-.19.75.75,0,0,0-.5-1.32h-3a.72.72,0,0,0-.5.19A.75.75,0,0,0,554,280Zm-7.57,0a.72.72,0,0,0,.5-.19.75.75,0,0,0-.5-1.32h-3a.72.72,0,0,0-.5.19.75.75,0,0,0,.5,1.32Zm-7.56,0a.71.71,0,0,0,.49-.19.75.75,0,0,0-.49-1.32h-3a.72.72,0,0,0-.5.19.75.75,0,0,0,.5,1.32Zm-7.57,0a.71.71,0,0,0,.49-.19.75.75,0,0,0-.49-1.32h-3a.72.72,0,0,0-.5.19.75.75,0,0,0,.5,1.32Zm-7.57,0a.76.76,0,0,0,0-1.51h-3a.72.72,0,0,0-.5.19.75.75,0,0,0,.5,1.32Zm-7.57,0a.74.74,0,0,0,.5-.19.75.75,0,0,0-.5-1.32h-3a.74.74,0,0,0-.5.19.75.75,0,0,0,.5,1.32Zm-7.57,0a.74.74,0,0,0,.5-.19.75.75,0,0,0-.5-1.32h-3a.74.74,0,0,0-.5.19.75.75,0,0,0,.5,1.32ZM504,280a.74.74,0,0,0,.5-.19.75.75,0,0,0-.5-1.32h-3a.74.74,0,0,0-.5.19A.75.75,0,0,0,501,280Zm-7.57,0a.72.72,0,0,0,.5-.19.75.75,0,0,0-.5-1.32h-3a.76.76,0,0,0,0,1.51Zm-7.57,0a.72.72,0,0,0,.5-.19.75.75,0,0,0-.5-1.32h-3a.71.71,0,0,0-.49.19.75.75,0,0,0,.49,1.32Zm-7.57,0a.72.72,0,0,0,.5-.19.75.75,0,0,0-.5-1.32h-3a.72.72,0,0,0-.5.19.75.75,0,0,0,.5,1.32Zm-7.57,0a.72.72,0,0,0,.5-.19.75.75,0,0,0-.5-1.32h-3a.72.72,0,0,0-.5.19.75.75,0,0,0,.5,1.32Zm-7.57,0a.72.72,0,0,0,.5-.19.75.75,0,0,0-.5-1.32h-3a.72.72,0,0,0-.5.19.75.75,0,0,0,.5,1.32Zm-7.56,0a.71.71,0,0,0,.49-.19.75.75,0,0,0-.49-1.32h-3a.72.72,0,0,0-.5.19.75.75,0,0,0,.5,1.32Z" class="colore5dad8 svgShape"></path><path fill="#e5dad8" fill-rule="evenodd" d="M539.24 327.7V230.79a1.08 1.08 0 011.08-1.08H549a1.08 1.08 0 01.93.53l5.2 7.64v-5.76a1.08 1.08 0 011.08-1.08 1 1 0 01.46.1l16 6.29a1.08 1.08 0 01.62.62l34.34 87.36a1.07 1.07 0 01-.61 1.4 1 1 0 01-.42.07l-66.29 1.89a1.08 1.08 0 01-1.11-1v0zm2.16-95.83v94.72l63.7-1.82-33.61-85.5-14.15-5.57v7.69a1.11 1.11 0 01-.48.89 1.09 1.09 0 01-1.5-.28l-6.89-10.13zM508.18 327.1c.54-7.22 3.18-42.85 2.37-46.59-.87-4-7.43-42.95-8.52-49.4H483.1a36.41 36.41 0 01-1.61 9.52A29.4 29.4 0 01477 249.4l4.35 10.27a1.08 1.08 0 01-1.66 1.27s-4.12-3.17-8-6a37.26 37.26 0 01-3.47 2.52 42.9 42.9 0 01-3.86 2.22c4.46 8.28 8.81 16.59 10.65 25.9s1.11 19.79-4.74 32l10.87 2.73c3-12.16 7.64-32.18 7.65-32.24a1.08 1.08 0 011.29-.81 1.09 1.09 0 01.84 1.15L489 322.27l19.22 4.83zm4.48-47.05c1 4.49-2.42 48.36-2.43 48.49a.57.57 0 010 .18 1.06 1.06 0 01-1.3.78l-21.33-5.35a1.11 1.11 0 01-.82-1.11L488 300.7c-1.6 6.8-3.57 15.1-5.07 21.13v0a1.08 1.08 0 01-1.31.79l-13.21-3.32-.21-.08a1.09 1.09 0 01-.49-1.45c6.15-12.24 7-22.52 5.14-31.83s-6.4-17.81-11-26.27l0 0a1.08 1.08 0 01.5-1.44 43.24 43.24 0 004.64-2.6 33.41 33.41 0 003.85-2.85 1.07 1.07 0 011.38-.1c1.88 1.36 3.9 2.87 5.52 4.1l-3-7.1a1.05 1.05 0 01.14-1.1 27.52 27.52 0 004.52-8.6 34.73 34.73 0 001.54-9.87V230a1.08 1.08 0 011.08-1.08H503a1.09 1.09 0 011.06.91C504 230 511.72 275.73 512.66 280.05z" class="colore5dad8 svgShape"></path><rect width="106.91" height="3.95" x="216.28" y="291.84" fill="#ddd0e7" class="colorddd0e7 svgShape"></rect><rect width="106.91" height="3.95" x="216.28" y="256.15" fill="#ddd0e7" class="colorddd0e7 svgShape"></rect><g clip-path="url(#a)"><path fill="#fcceb6" fill-rule="evenodd" d="M600.88,493.73H616.7a21.49,21.49,0,0,0-3.48,10.63c-.23,2.75-17.61,2.92-15.83,0A14.45,14.45,0,0,0,600.88,493.73Z" class="colorfcceb6 svgShape"></path><path fill="#e04258" fill-rule="evenodd" d="M592.58,504.14c11.8,0,20.44-2.7,22.26-2.7a6.09,6.09,0,0,1,6.24,5.93,5.85,5.85,0,0,1-2.7,4.89H585.75a5,5,0,0,1-.49-2.16C585.26,506.81,588.54,504.14,592.58,504.14Z" class="colore04258 svgShape"></path><path fill="#c22c45" fill-rule="evenodd" d="M592.58,504.14c11.8,0,20.44-2.7,22.26-2.7a6.55,6.55,0,0,1,2.63.55c-6.06,6.42-20,8.86-32.08,9.25a4.8,4.8,0,0,1-.13-1.14C585.26,506.81,588.54,504.14,592.58,504.14Z" class="colorc22c45 svgShape"></path><path fill="#264c4c" fill-rule="evenodd" d="M586.89,514h30.74a1.14,1.14,0,0,0,1.13-1.13v-.63h-33v.63A1.14,1.14,0,0,0,586.89,514Z" class="color264c4c svgShape"></path><path fill="#033434" fill-rule="evenodd" d="M597.42,495.2c2.53,2.47,17.7,3.79,19.45,2.32,5.39-19.24,13.49-53,1.5-73.11-.21-5.41,0-15-.29-24.11-.44-14.6-4.3-33.3-13.24-46.46-14.82-21.82-49.6-7.13-40.35,12.79C584.33,409.35,593.92,458.9,597.42,495.2Z" class="color033434 svgShape"></path><path fill="#144646" fill-rule="evenodd" d="M609.62,487.12c3.22-13.45,6-30,3.61-43.39-3.27-18.76-10.17-5.17-14.46,6.8-2.48,6.93-2.71,18.2-1.65,25.61q.69,4.86,1.28,9.71C599.74,496.87,607,498.17,609.62,487.12Z" class="color144646 svgShape"></path><path fill="#062626" fill-rule="evenodd" d="M609.79,362.72a61,61,0,0,0-4.95-8.88c-14.82-21.82-49.6-7.13-40.35,12.79q2.21,4.77,4.26,9.64c1.88-.29,3.84-.63,5.84-1l.46-12.5,6.21,11.08C593.39,371,605.49,366.9,609.79,362.72Z" class="color062626 svgShape"></path><path fill="#062626" fill-rule="evenodd" d="M563.27,357.1a14.71,14.71,0,0,0,1.22,9.53c14.31,30.81,23.29,65.18,28.5,95.56,4.09-13.66,6-27.52,2-37.78,4-24.68,10.74-39.41,1.66-63.45C592.08,348.89,573.35,347.28,563.27,357.1Z" class="color062626 svgShape"></path><path fill="#fcceb6" fill-rule="evenodd" d="M561.81,493.73h15.82a24.39,24.39,0,0,0-4.85,10.63c-.58,2.75-18,2.92-15.82,0C560.14,500.93,561.67,497.39,561.81,493.73Z" class="colorfcceb6 svgShape"></path><path fill="#e04258" fill-rule="evenodd" d="M551.87,504.14c11.8,0,20.44-2.7,22.26-2.7a6.09,6.09,0,0,1,6.24,5.93,5.85,5.85,0,0,1-2.7,4.89H545a5,5,0,0,1-.49-2.16C544.55,506.81,547.83,504.14,551.87,504.14Z" class="colore04258 svgShape"></path><path fill="#c22c45" fill-rule="evenodd" d="M551.87,504.14c11.8,0,20.44-2.7,22.26-2.7a6.55,6.55,0,0,1,2.63.55c-6.06,6.42-20,8.86-32.08,9.25a4.8,4.8,0,0,1-.13-1.14C544.55,506.81,547.83,504.14,551.87,504.14Z" class="colorc22c45 svgShape"></path><path fill="#264c4c" fill-rule="evenodd" d="M546.18,514h30.74a1.14,1.14,0,0,0,1.13-1.13v-.63h-33v.63A1.14,1.14,0,0,0,546.18,514Z" class="color264c4c svgShape"></path><path fill="#144646" fill-rule="evenodd" d="M559.52,495.2c2.15,2.47,17.12,3.79,19.09,2.32,8.37-19.24,21.7-53,12.82-73.11,2.85-24.68,8.85-39.41-1.38-63.45-5.22-12.26-24.55-13.73-34-3.38-6.2,6.79-6.14,18.43-2.08,36.3C562.17,430,561.34,464,559.52,495.2Z" class="color144646 svgShape"></path><path fill="#2c5959" fill-rule="evenodd" d="M572.51,487.56a210.06,210.06,0,0,0,6.86-20.71c2.88-10.73,5.88-26.53,1.35-37.14l-.66-1.54.19-1.68c5.86-52.58-29-52.48-24.36-31.19,6.62,30.24,7.36,59.78,6.12,90.23C561.47,498.68,568.42,498.18,572.51,487.56Z" class="color2c5959 svgShape"></path><path fill="#033434" fill-rule="evenodd" d="M551.34,378.16c4.81.14,12.56-.79,21-2.41l.5-13.66,6.78,12.11c4.74-1.1,9.48-2.38,13.82-3.79a77.25,77.25,0,0,0-3.35-9.45c-5.22-12.26-24.55-13.73-34-3.38C551.89,362.13,550.55,368.85,551.34,378.16Z" class="color033434 svgShape"></path><path fill="#3cbca1" fill-rule="evenodd" d="M547.91,372.36c.34,2.38,11.29,1.65,23.78-.76l.46-12.5,6.21,11.08c15.9-3.69,31.75-9.61,30-15-12.4-39.08-34.66-116.94-85.3-93.89C494.07,274.52,545.49,314.23,547.91,372.36Z" class="color3cbca1 svgShape"></path><path fill="#17b298" fill-rule="evenodd" d="M536.78,327.06A139.07,139.07,0,0,1,547,362.53a79.81,79.81,0,0,0,17.24-25.23c7.64-17.85,8.39-40.91-3.16-59.28-14.19-22.58-45.52-12.58-33.6,15.84C533.11,307.19,536.52,317.73,536.78,327.06Z" class="color17b298 svgShape"></path><path fill="#58c2ad" fill-rule="evenodd" d="M547.91,372.36c.34,2.38,11.29,1.65,23.78-.76l.46-12.5,6.21,11.08c3-.7,6-1.47,8.87-2.31-4.16-17.05-9.54-37.84-17.34-56.3a70.51,70.51,0,0,1-5.62,25.73A79.77,79.77,0,0,1,547,362.52c.44,3.22.74,6.5.88,9.84Zm-14.2-105.2a37.49,37.49,0,0,0-15.41-2.82c-12.11,10.82,5.65,32.45,18.48,62.71-.26-9.32-3.68-19.87-9.27-33.19C521.75,280.13,526.09,270.69,533.71,267.16Z" class="color58c2ad svgShape"></path><path fill="#f8a583" fill-rule="evenodd" d="M505.44,265.3c6.19.38,10.83,1.51,12.07,8.89,4.1-1.83,11.24-8.18,13.84-13.93-7.57-3.05-13.32-11.37-20-12.13C509.6,251.76,506.9,261.55,505.44,265.3Z" class="colorf8a583 svgShape"></path><path fill="#fcceb6" fill-rule="evenodd" d="M482.25,242.07c5.21-3,29.32.2,33.19,5.78,1.55,2.24.6,5.7,0,9-.85,5-2.35,9.89-5.67,11.79-4,2.28-14.08-2.4-21.31-10.09C483,252.78,478.8,244.06,482.25,242.07Z" class="colorfcceb6 svgShape"></path><path fill="#fbbea1" fill-rule="evenodd" d="M527.18,266.41c-7.33-2.1-14.22-2.72-18.23-.75,4.4.72,7.57,2.63,8.56,8.53C520.15,273,524.05,270,527.18,266.41Z" class="colorfbbea1 svgShape"></path><path fill="#264c4c" fill-rule="evenodd" d="M512.74,248.66c-1.22-2.76-2.68-5.62-4.88-4.08-2,1.42-3.93,4-6.55,2.46-.28-.16-1.26-3.47-3.72-4.75a5.77,5.77,0,0,0-8.27,3,26.54,26.54,0,0,1-4.89,8.61,8.3,8.3,0,0,1-6.85,3.6c-11.58,0-13.44-16.37-4-20.53a8.33,8.33,0,0,1,7.1-12.07c3-6.56,11.16-10.61,18.12-9a8,8,0,0,1,11.66,1.64c7.17.82,14,7.5,15.19,13.52a7.91,7.91,0,0,1,2.67,10.35C532.89,253.68,519.7,264.35,512.74,248.66Z" class="color264c4c svgShape"></path><path fill="#fedfcd" fill-rule="evenodd" d="M513.56,264c-9.75-15.2-18.72-18.4-27.62-8.42a37.71,37.71,0,0,0,2.56,3c7.23,7.69,17.3,12.37,21.31,10.09A9.62,9.62,0,0,0,513.56,264Z" class="colorfedfcd svgShape"></path><path fill="#fcceb6" fill-rule="evenodd" d="M506.76,243c1.73-2,4.32-.84,6.34.66s2.25,4.43,1,5.77a2,2,0,0,1-1.51.69,19.8,19.8,0,0,0-5.91-3.55A2.62,2.62,0,0,1,506.76,243Z" class="colorfcceb6 svgShape"></path><path fill="#f8a583" fill-rule="evenodd" d="M507.86,244.58c1.07-1.2,2.66-.51,3.9.41a2.62,2.62,0,0,1,.74,3.42,4.35,4.35,0,0,0-1.09-1.18,7.52,7.52,0,0,0-4-1.71A1.66,1.66,0,0,1,507.86,244.58Z" class="colorf8a583 svgShape"></path><path fill="#fcceb6" fill-rule="evenodd" d="M497.56,382.12c-2.48-.18-5.67-4.92-4.76-6.15,44.17-28.69,46.75-44.14,33.05-82.11-10.25-28.42,21.67-38.42,34.53-15.84,10.46,18.37,8.36,41.43-.33,59.28C547.67,362.7,522.13,381.69,497.56,382.12Z" class="colorfcceb6 svgShape"></path><path fill="#fcceb6" fill-rule="evenodd" d="M481.77,383.81c-4.45,1.54-4.33.34-4.56-.11s.72-1.42,3.5-2.79c3.42-1.69,8.31-3.93,12.08-4.73,1-.25,5.32,3.29,5,6.05a48.63,48.63,0,0,1-6.4,12.65c-5.7,7.46-12.19,11.18-8.22,4.37-4.46,2.92-7.18,3.28-2.77-1.91-6,2.29-8.82,1.27.44-5.74C484.9,388.92,487.63,382,481.77,383.81Z" class="colorfcceb6 svgShape"></path><path fill="#3cbca1" fill-rule="evenodd" d="M498.39,372.25c38.77-26.38,40.56-42.09,27.46-78.39-10.25-28.42,21.67-38.42,34.53-15.84,10.46,18.37,8.36,41.43-.33,59.28-11.4,23.38-33.95,41.34-56.63,44.37A39.27,39.27,0,0,0,498.39,372.25Z" class="color3cbca1 svgShape"></path><path fill="#58c2ad" fill-rule="evenodd" d="M507.34,373.25c19.53-5.53,36.13-20.71,44.8-38.51,8.2-16.85,10-38.24.47-55a19.55,19.55,0,0,0-11.05-9.42,13.77,13.77,0,0,0-11,1.11c-7.2,4.28-6.61,13.41-4.13,20.3,4.8,13.3,9.86,29.05,6.5,43.24-3.52,14.88-15.66,25-28,33.81C499.57,372.66,501.42,374.93,507.34,373.25Z" class="color58c2ad svgShape"></path><path fill="#c22c45" fill-rule="evenodd" d="M515.92,285.82c2.78,14.83,4.35,23.6-1.42,38,7.06-2.14,12.83-2.48,17.18-.81L523,282.86Z" class="colorc22c45 svgShape"></path><path fill="#e04758" fill-rule="evenodd" d="M529.41,258.74s3.55-.74,3,2.16S528,269.77,522.21,274s-7.51,5-7.58-3.61c-5,1-7.61,20.18,4.25,22.36,7.78,1.42.85-10.85,8.69-20.84s27.46-11.66,21.55-14.93C537.2,251.76,531.58,253.86,529.41,258.74Z" class="colore04758 svgShape"></path><path fill="#97d5cb" fill-rule="evenodd" d="M547.91,372.36c.29,2,8.2,1.8,18.21.22-19.43-.41-16.24-7.77-19.58-13.3A106.84,106.84,0,0,1,547.91,372.36Z" class="color97d5cb svgShape"></path></g><rect width="2.96" height="55.83" x="266.92" y="460.79" fill="#927ab8" class="color927ab8 svgShape"></rect><polygon fill="#7458a5" points="274.95 457.95 274.95 516.62 269.88 516.62 269.88 462.39 274.95 457.95" class="color7458a5 svgShape"></polygon><polygon fill="#7458a5" points="248.79 457.95 248.79 516.62 243.73 516.62 243.73 462.39 248.79 457.95" class="color7458a5 svgShape"></polygon><rect width="2.96" height="29.92" x="240.77" y="486.7" fill="#927ab8" class="color927ab8 svgShape"></rect><rect width="5.06" height="23.19" x="78.2" y="493.42" fill="#7458a5" class="color7458a5 svgShape"></rect><rect width="2.96" height="23.19" x="75.24" y="493.42" fill="#927ab8" class="color927ab8 svgShape"></rect><polygon fill="#c7badb" points="67.18 493.45 67.25 486.4 129.6 451.7 281.23 444.62 281.31 451.7 239.71 493.45 67.18 493.45" class="colorc7badb svgShape"></polygon><polygon fill="#f4eff7" points="67.18 486.37 129.6 444.62 281.31 444.62 239.71 486.37 67.18 486.37" class="colorf4eff7 svgShape"></polygon><path fill="#fdc846" d="M216.43,454v43.67A18.47,18.47,0,0,1,198,516.17H102.82a18.49,18.49,0,0,1-18.47-18.46V454a18.46,18.46,0,0,1,18.47-18.46H198A18.47,18.47,0,0,1,216.43,454Z" class="colorfdc846 svgShape"></path><path d="M216.43,454v43.67A18.47,18.47,0,0,1,198,516.17H102.82a18.38,18.38,0,0,1-13.92-6.34v-.15c0,1.06,10.41,6.66,25.38-1.73s14.31-11.84,32.89-10.69,51.32-23.52,52.31-39.15c.64-10.13,7.37-13.21,11.66-17A18.38,18.38,0,0,1,216.43,454Z" style="mix-blend-mode:multiply" fill="#cebfde" opacity=".3" class="colorcebfde svgShape"></path><path fill="#927ab8" d="M109,471v45l-3.66.11-4.86.16L99.58,471a4.72,4.72,0,0,1,3.19-4.46,4.8,4.8,0,0,1,1.52-.25A4.71,4.71,0,0,1,109,471Z" class="color927ab8 svgShape"></path><path d="M109,471v45l-3.66.11c.13-10,.31-28.71.08-37.18-.23-8.27-1.74-11.32-2.64-12.42a4.8,4.8,0,0,1,1.52-.25A4.71,4.71,0,0,1,109,471Z" style="mix-blend-mode:multiply" fill="#927ab8" opacity=".57" class="color927ab8 svgShape"></path><path fill="#f8f7fb" d="M107.05 474.64a2.55 2.55 0 11-2.55-2.55A2.55 2.55 0 01107.05 474.64zM107.05 510.33a2.55 2.55 0 11-2.55-2.55A2.55 2.55 0 01107.05 510.33z" class="colorf8f7fb svgShape"></path><path fill="#927ab8" d="M197.48,471v45l-3.66.11-4.86.16-.89-45.3a4.72,4.72,0,0,1,3.19-4.46,4.78,4.78,0,0,1,1.51-.25,4.71,4.71,0,0,1,4.71,4.71Z" class="color927ab8 svgShape"></path><path d="M197.48,471v45l-3.66.11c.13-10,.31-28.71.08-37.18-.23-8.27-1.75-11.32-2.64-12.42a4.78,4.78,0,0,1,1.51-.25,4.71,4.71,0,0,1,4.71,4.71Z" style="mix-blend-mode:multiply" fill="#927ab8" opacity=".57" class="color927ab8 svgShape"></path><path fill="#f8f7fb" d="M195.54 474.64a2.55 2.55 0 11-2.55-2.55A2.55 2.55 0 01195.54 474.64zM195.54 510.33a2.55 2.55 0 11-2.55-2.55A2.55 2.55 0 01195.54 510.33z" class="colorf8f7fb svgShape"></path><polygon fill="#7458a5" points="563.71 457.76 563.71 516.38 568.77 516.38 568.77 462.19 563.71 457.76" class="color7458a5 svgShape"></polygon><polygon fill="#7458a5" points="589.86 457.76 589.86 516.42 594.92 516.42 594.92 462.19 589.86 457.76" class="color7458a5 svgShape"></polygon><rect width="2.96" height="29.92" x="594.92" y="486.51" fill="#927ab8" transform="rotate(180 596.405 501.465)" class="color927ab8 svgShape"></rect><rect width="2.96" height="55.78" x="568.77" y="460.59" fill="#927ab8" transform="rotate(180 570.25 488.485)" class="color927ab8 svgShape"></rect><polygon fill="#c7badb" points="771.47 493.26 771.4 486.21 709.06 451.51 557.42 444.43 557.34 451.51 598.95 493.26 771.47 493.26" class="colorc7badb svgShape"></polygon><polygon fill="#f4eff7" points="771.47 486.18 709.06 444.43 557.34 444.43 598.95 486.18 771.47 486.18" class="colorf4eff7 svgShape"></polygon><path fill="#fdc846" d="M622.61,453.85v43.66A18.46,18.46,0,0,0,641.07,516h95.15a18.47,18.47,0,0,0,18.46-18.47V453.85a18.46,18.46,0,0,0-18.46-18.46H641.07a18.47,18.47,0,0,0-18.46,18.46Z" class="colorfdc846 svgShape"></path><path d="M622.61,453.85v43.66A18.46,18.46,0,0,0,641.07,516h95.15a18.39,18.39,0,0,0,13.92-6.34l0-.15c0,1.06-10.41,6.65-25.37-1.73s-14.31-11.85-32.9-10.7-51.31-23.51-52.3-39.14c-.64-10.14-7.37-13.21-11.66-17A18.38,18.38,0,0,0,622.61,453.85Z" style="mix-blend-mode:multiply" fill="#cebfde" opacity=".3" class="colorcebfde svgShape"></path><path fill="#927ab8" d="M730.05,470.85v45l3.65.12,4.86.15.9-45.29a4.7,4.7,0,0,0-8-3.33A4.66,4.66,0,0,0,730.05,470.85Z" class="color927ab8 svgShape"></path><path d="M730.05,470.85v45l3.65.12c-.12-10-.31-28.71-.07-37.18.23-8.27,1.74-11.32,2.63-12.42a4.71,4.71,0,0,0-6.21,4.46Z" style="mix-blend-mode:multiply" fill="#927ab8" opacity=".57" class="color927ab8 svgShape"></path><path fill="#f8f7fb" d="M732 474.45a2.55 2.55 0 102.55-2.55A2.55 2.55 0 00732 474.45zM732 510.14a2.55 2.55 0 102.55-2.55A2.55 2.55 0 00732 510.14z" class="colorf8f7fb svgShape"></path><path fill="#927ab8" d="M641.56,470.85v45l3.66.12,4.85.15.9-45.29a4.71,4.71,0,1,0-9.41,0Z" class="color927ab8 svgShape"></path><path d="M641.56,470.85v45l3.66.12c-.13-10-.31-28.71-.08-37.18.23-8.27,1.74-11.32,2.63-12.42a4.71,4.71,0,0,0-6.21,4.46Z" style="mix-blend-mode:multiply" fill="#927ab8" opacity=".57" class="color927ab8 svgShape"></path><circle cx="646.05" cy="474.45" r="2.55" fill="#f8f7fb" class="colorf8f7fb svgShape"></circle><path fill="#f8f7fb" d="M643.5,510.14a2.55,2.55,0,1,0,2.55-2.55A2.55,2.55,0,0,0,643.5,510.14Z" class="colorf8f7fb svgShape"></path><path fill="#0d1f42" d="M434.71 170.62V128.34a2.05 2.05 0 012.05-2.06h0a2.06 2.06 0 012.06 2.06v42.55zM603 170.62v-41a2.05 2.05 0 012-2.06h0a2.06 2.06 0 012.06 2.06v41.3z" class="color0d1f42 svgShape"></path><polygon fill="#6ea1d6" points="627.47 178.85 399.68 178.85 412.67 173.42 643.1 174.9 627.47 178.85" class="color6ea1d6 svgShape"></polygon><polygon fill="#3a6ab3" points="399.68 178.85 399.68 172.1 412.67 166.68 642.16 166.68 642.16 174.9 412.67 174.9 399.68 178.85" class="color3a6ab3 svgShape"></polygon><rect width="8.65" height="31.63" x="223.89" y="223.95" fill="#f15e6d" class="colorf15e6d svgShape"></rect><path d="M232.54,224s-5.16,1.17-5.81,8.39,3,7.49,1.42,13.82-4.26,9.42-4.26,9.42h8.65Z" style="mix-blend-mode:multiply" fill="#f15e6d" class="colorf15e6d svgShape"></path><rect width="8.65" height="31.63" x="235.38" y="223.95" fill="#79ccc9" class="color79ccc9 svgShape"></rect><path d="M244,224s-6.71,1.94-5.55,9.94,3.74,7.88,1.55,11.49a77.22,77.22,0,0,0-4.65,10.2H244Z" style="mix-blend-mode:multiply" fill="#79ccc9" class="color79ccc9 svgShape"></path><rect width="8.65" height="31.63" x="249.32" y="223.57" fill="#f15e6d" transform="rotate(-18.87 253.7 239.424)" class="colorf15e6d svgShape"></rect><path d="M252.68,223.05s-3.36,1.81-.65,9.29,3.87,5,4,10.33a74.52,74.52,0,0,1-1.42,13l8.27-2.71Z" style="mix-blend-mode:multiply" fill="#f15e6d" class="colorf15e6d svgShape"></path><rect width="8.65" height="31.63" x="259.65" y="223.57" fill="#fdb515" transform="rotate(-22.9 263.963 239.369)" class="colorfdb515 svgShape"></rect><path d="M261.84,223.18s-3.48,2.71.13,11.36,4.78,8.13,5.16,11.36-1,9.68-1,9.68l8-3.36Z" style="mix-blend-mode:multiply" fill="#fdb515" class="colorfdb515 svgShape"></path><rect width="3.87" height="18.98" x="226.22" y="232.86" fill="#ffffff" class="colorfff svgShape"></rect><path fill="#ffffff" d="M230.6,228.34a2.45,2.45,0,1,1-2.45-2.45A2.45,2.45,0,0,1,230.6,228.34Z" class="colorfff svgShape"></path><rect width="3.87" height="18.98" x="237.45" y="232.86" fill="#ffffff" class="colorfff svgShape"></rect><circle cx="239.38" cy="228.34" r="2.45" fill="#ffffff" class="colorfff svgShape"></circle><rect width="3.87" height="18.98" x="252.92" y="232.89" fill="#ffffff" transform="matrix(.94 -.33 .33 .94 -65.51 97.24)" class="colorfff svgShape"></rect><path fill="#ffffff" d="M252.57,228.34a2.45,2.45,0,1,1-3.12-1.51A2.46,2.46,0,0,1,252.57,228.34Z" class="colorfff svgShape"></path><rect width="3.87" height="18.97" x="263.29" y="232.44" fill="#ffffff" transform="rotate(-22.79 265.264 241.946)" class="colorfff svgShape"></rect><path fill="#ffffff" d="M262.06,228.07a2.45,2.45,0,1,1-3.21-1.31A2.44,2.44,0,0,1,262.06,228.07Z" class="colorfff svgShape"></path><path fill="#0d1f42" d="M743.8,334.62h-4.6V329h4.6a2.79,2.79,0,0,1,2.8,2.79h0A2.8,2.8,0,0,1,743.8,334.62Z" class="color0d1f42 svgShape"></path><polygon fill="#cebfde" points="207.58 83.92 295.23 151.38 385.04 151.38 358.42 84.23 207.58 83.92" class="colorcebfde svgShape"></polygon><path fill="#0d1f42" d="M739.85,338.4a4.3,4.3,0,0,1-2.19-.61,6.59,6.59,0,0,1-2.9-5.72c0-3.5,1.83-6.63,6.09-6.26l.14,0c1,.2,3,1.63,4,6.24A5.41,5.41,0,0,1,739.85,338.4Z" class="color0d1f42 svgShape"></path><path d="M739.85,338.4a4.3,4.3,0,0,1-2.19-.61c2.09-.83,3.73-2.73,3.33-4.49-.48-2.09.43-1.19,1.42-2.75.71-1.12-.61-3.47-1.42-4.72,1,.2,3,1.63,4,6.24A5.41,5.41,0,0,1,739.85,338.4Z" style="mix-blend-mode:screen" fill="#7458a5" opacity=".43" class="color7458a5 svgShape"></path><polygon fill="#cebfde" points="650.01 85.1 561.45 151.05 470.4 151.05 498.52 83.95 650.01 85.1" class="colorcebfde svgShape"></polygon><polygon fill="#cdbfde" points="216.28 295.79 329.77 299.24 323.19 295.79 216.28 295.79" class="colorcdbfde svgShape"></polygon><polygon fill="#cdbfde" points="216.28 260.1 332.24 262.89 323.19 260.1 216.28 260.1" class="colorcdbfde svgShape"></polygon><polygon fill="#cdbfde" points="227.8 269.97 227.47 291.68 248.85 291.68 248.85 269.97 227.8 269.97" class="colorcdbfde svgShape"></polygon><polygon fill="#ffffff" points="230.03 272.3 229.77 289.34 246.55 289.34 246.55 272.3 230.03 272.3" class="colorfff svgShape"></polygon><polygon fill="#cdbfde" points="292.6 269.97 292.27 291.68 313.65 291.68 313.65 269.97 292.6 269.97" class="colorcdbfde svgShape"></polygon><polygon fill="#ffffff" points="294.83 272.3 294.57 289.34 311.35 289.34 311.35 272.3 294.83 272.3" class="colorfff svgShape"></polygon><polygon fill="#cdbfde" points="260.04 263.39 259.71 291.84 281.08 291.84 281.08 263.39 260.04 263.39" class="colorcdbfde svgShape"></polygon><polygon fill="#ffffff" points="262.26 266.45 262 288.78 278.79 288.78 278.79 266.45 262.26 266.45" class="colorfff svgShape"></polygon><path d="M745.41,450.63l-47.67-33.28V234.62s41.61,16.94,35.53,40-25.83,43.75-19.74,66,24.84,27.63,18.26,42.27C726.06,395.59,737.9,435.65,745.41,450.63Z" style="mix-blend-mode:screen" fill="#3a6ab3" opacity=".29" class="color3a6ab3 svgShape"></path><rect width="3.95" height="19.9" x="695.12" y="249.26" fill="#0d1f42" class="color0d1f42 svgShape"></rect><rect width="3.95" height="19.9" x="695.12" y="357.65" fill="#0d1f42" class="color0d1f42 svgShape"></rect><g clip-path="url(#b)"><polygon fill="#f3909a" points="1.32 430.66 138.32 370.13 138.32 175.23 -1.32 114.87 1.32 430.66" class="colorf3909a svgShape"></polygon><polygon fill="#f8f7fb" points="130.43 184.42 130.43 360.96 6.33 415.78 6.07 384.83 5.87 360.13 3.95 129.75 114.18 177.4 124.71 181.95 130.43 184.42" class="colorf8f7fb svgShape"></polygon><polygon fill="#ffffff" points="124.71 181.95 6.07 384.83 5.87 360.13 114.18 177.4 124.71 181.95" class="colorfff svgShape"></polygon><polygon fill="#ffffff" points="6.25 415.86 130.43 184.44 130.43 271.34 65.79 389.38 6.25 415.86" class="colorfff svgShape"></polygon><polygon fill="#f3909a" points="131.43 211.18 2.21 160.72 4.5 154.85 131.82 204.61 131.43 211.18" class="colorf3909a svgShape"></polygon><rect width="11.13" height="140.55" x="62.81" y="128.64" fill="#f3909a" transform="rotate(-69.16 68.36 198.903)" class="colorf3909a svgShape"></rect><polygon fill="#f3909a" points="132 198.58 2.19 147.23 4.51 141.37 132.16 191.79 132 198.58" class="colorf3909a svgShape"></polygon><polygon fill="#f3909a" points="74.81 388.92 63.98 392.79 63.68 154.51 74.81 154.51 74.81 388.92" class="colorf3909a svgShape"></polygon></g><polygon fill="#79ccc9" points="703.13 214.04 740.96 203.52 740.96 183.78 702.64 195.95 703.13 214.04" class="color79ccc9 svgShape"></polygon><path fill="#79ccc9" d="M703.13,214.05s.1-.3.28-.8c1-2.82,4.83-12.12,10-12,6.06.19,9.09,1.9,13.82-2.84S741,183.78,741,183.78v19.74Z" class="color79ccc9 svgShape"></path><polygon fill="#927ab8" points="781.39 220.8 780.27 383.62 831.42 412.4 832.08 208.29 781.39 220.8" class="color927ab8 svgShape"></polygon><polygon fill="#f8f7fb" points="831.76 214.74 831.66 239.96 831.1 378.46 831 403.4 785.54 378.4 785.92 226.48 831.76 214.74" class="colorf8f7fb svgShape"></polygon><rect width="1.11" height="135.81" x="807.35" y="241.64" fill="#f15e6d" class="colorf15e6d svgShape"></rect><rect width="37.93" height="1.11" x="791.78" y="255.86" fill="#f15e6d" transform="rotate(-8.64 810.914 256.43)" class="colorf15e6d svgShape"></rect><rect width="1.11" height="31.84" x="810.19" y="289.93" fill="#f15e6d" transform="rotate(-87.95 810.788 305.83)" class="colorf15e6d svgShape"></rect><rect width="1.11" height="32.55" x="808.77" y="331.06" fill="#f15e6d" transform="rotate(-73.78 809.328 347.337)" class="colorf15e6d svgShape"></rect><rect width="28.74" height="29.91" x="307" y="216.53" fill="#1e4e95" rx="2.47" class="color1e4e95 svgShape"></rect><rect width="23.52" height="24.47" x="309.61" y="219.25" fill="#ffffff" rx=".03" class="colorfff svgShape"></rect><polygon fill="#0d1f42" points="319.84 231.63 323.76 221.61 322.17 232.13 319.84 231.63" class="color0d1f42 svgShape"></polygon><polygon fill="#0d1f42" points="321.6 230.12 326.9 239.48 319.74 231.6 321.6 230.12" class="color0d1f42 svgShape"></polygon><path fill="#1e4e95" d="M323,231.34a1.82,1.82,0,1,0-1.81,1.81A1.81,1.81,0,0,0,323,231.34Z" class="color1e4e95 svgShape"></path><rect width="1.91" height="1.09" x="310.79" y="230.78" fill="#0d1f42" class="color0d1f42 svgShape"></rect><rect width="1.91" height="1.09" x="330.11" y="230.78" fill="#0d1f42" class="color0d1f42 svgShape"></rect><rect width="2.12" height="1.21" x="312.84" y="238.19" fill="#0d1f42" transform="rotate(-44.99 313.892 238.8)" class="color0d1f42 svgShape"></rect><rect width="2.12" height="1.21" x="328.03" y="223" fill="#0d1f42" transform="rotate(-44.98 329.093 223.606)" class="color0d1f42 svgShape"></rect><rect width="2.12" height="1.21" x="312.84" y="223" fill="#0d1f42" transform="rotate(45.01 313.896 223.595)" class="color0d1f42 svgShape"></rect><rect width="2.12" height="1.21" x="328.03" y="238.19" fill="#0d1f42" transform="rotate(44.98 329.097 238.804)" class="color0d1f42 svgShape"></rect><rect width="1.91" height="1.09" x="320.45" y="240.44" fill="#0d1f42" transform="rotate(-90 321.405 240.985)" class="color0d1f42 svgShape"></rect><rect width="1.91" height="1.09" x="320.45" y="221.11" fill="#0d1f42" transform="rotate(-90 321.405 221.655)" class="color0d1f42 svgShape"></rect><path d="M335.74,242.58V244a2.46,2.46,0,0,1-2.47,2.46H309.46A2.46,2.46,0,0,1,307,244v-1.28a5.27,5.27,0,0,0,3,2.37c2.76.58,5.38-1,7.63-.22s8.56,1.23,10.3.29,3.92.72,5.81-.44A6.38,6.38,0,0,0,335.74,242.58Z" style="mix-blend-mode:multiply" fill="#1e4e95" class="color1e4e95 svgShape"></path><path d="M335.74,219v2.1c-.36-.58-.89-1.41-1.6-2.47-1.45-2.17-4.13,0-6.82-1.38s-6.39.58-9.51.95-4.94-.58-8-.44a3.76,3.76,0,0,0-2.83,1.43V219a2.46,2.46,0,0,1,2.46-2.47h23.81A2.46,2.46,0,0,1,335.74,219Z" style="mix-blend-mode:screen" fill="#1e4e95" class="color1e4e95 svgShape"></path><path fill="#e79d75" fill-rule="evenodd" d="M389.16,205.5A8,8,0,0,1,394,220a10.8,10.8,0,0,0-9.66,0,8.05,8.05,0,0,1,4.83-14.49Z" class="colore79d75 svgShape"></path><path fill="#ebae92" fill-rule="evenodd" d="M389.16,205.5a8,8,0,0,1,6,2.69,8.58,8.58,0,0,1-2.94,11.08,11.22,11.22,0,0,0-3.07-.42,10.31,10.31,0,0,0-4.83,1.14,8.05,8.05,0,0,1,4.83-14.49Z" class="colorebae92 svgShape"></path><path fill="#e79d75" fill-rule="evenodd" d="M389.16,218.85c3.77,0,6.93,1.83,7.81,4.31-2.52.08-5.13.13-7.81.13s-5.29,0-7.81-.13C382.23,220.68,385.39,218.85,389.16,218.85Z" class="colore79d75 svgShape"></path><path fill="#ebae92" fill-rule="evenodd" d="M397,223.21c-2.31,9.85,3.78,12.48,9.76,14.58s8.47,2.18,10.56,8.14c.63,1.79.4,2-.86,3.42-2.16,2.41-4.34,6.85-5.62,11.07-2.12,7.88-8.41,14.35-7.69,23.91.81,10.79,6.81,14.19,9.06,25,1.26,6.05,1.85,14.41.76,27.71-10.39,6-37.19,6-47.59,0-1.12-13.85-.43-22.36.94-28.46,2.29-10.2,8.1-13.69,8.89-24.23.72-9.56-5.57-16-7.69-23.91-1.28-4.22-3.46-8.66-5.62-11.07-1.26-1.41-1.49-1.63-.86-3.42,2.09-6,4.52-6,10.56-8.14s12.07-4.73,9.76-14.58Z" class="colorebae92 svgShape"></path><path fill="#e58f60" fill-rule="evenodd" d="M393.6,341.36v7.37h-8.88v-7.37A59.82,59.82,0,0,0,393.6,341.36Z" class="colore58f60 svgShape"></path><path fill="#cd7e58" fill-rule="evenodd" d="M393.6,341.36v3.19a57.23,57.23,0,0,1-8.88,0v-3.19A59.82,59.82,0,0,0,393.6,341.36Z" class="colorcd7e58 svgShape"></path><rect width="3.57" height="40.87" x="387.37" y="348.73" fill="#e58f60" class="colore58f60 svgShape"></rect><path fill="#cd7e58" fill-rule="evenodd" d="M390.93,389.6c2,1.07,3.46,3.89,3.46,7.22,0,3-1.16,5.56-2.85,6.83h-4.76c-1.69-1.27-2.85-3.85-2.85-6.83,0-3.33,1.44-6.15,3.46-7.22Z" class="colorcd7e58 svgShape"></path><path fill="#e58f60" fill-rule="evenodd" d="M385.94,402.86a9.27,9.27,0,0,1-2-6c0-3.33,1.44-6.15,3.46-7.22h3a9.11,9.11,0,0,1,1.8,5.59c0,4.25-2.58,7.69-5.76,7.69A4.1,4.1,0,0,1,385.94,402.86Z" class="colore58f60 svgShape"></path><path fill="#cd7e58" fill-rule="evenodd" d="M367.19,416.55h2.75c4,0,12.86-.14,15.35-6.73H393c2.49,6.59,11.31,6.73,15.35,6.73h2.75a3.49,3.49,0,0,1,3.42,3.52v.83c0,.14,0,.28,0,.42H363.79c0-.14,0-.28,0-.42v-.83A3.49,3.49,0,0,1,367.19,416.55Z" class="colorcd7e58 svgShape"></path><path fill="#bb7151" fill-rule="evenodd" d="M384.31,411.68a8.2,8.2,0,0,0,1-1.86H393a8.2,8.2,0,0,0,1,1.86Z" class="colorbb7151 svgShape"></path><path fill="#e58f60" fill-rule="evenodd" d="M367.19,416.55h2.75c4,0,12.86-.14,15.35-6.73h6.42c-1.47,4.83-5.54,8.94-11.08,11.5H363.79c0-.14,0-.28,0-.42v-.83A3.49,3.49,0,0,1,367.19,416.55Z" class="colore58f60 svgShape"></path><path fill="#d8865c" fill-rule="evenodd" d="M384.31,411.68a8.2,8.2,0,0,0,1-1.86h6.42a16.15,16.15,0,0,1-.71,1.86Z" class="colord8865c svgShape"></path><path fill="#cd7e58" fill-rule="evenodd" d="M385.7,403.65h6.92a2.76,2.76,0,0,1,2.74,2.77v.66a2.76,2.76,0,0,1-2.74,2.77H385.7a2.76,2.76,0,0,1-2.74-2.77v-.66A2.76,2.76,0,0,1,385.7,403.65Z" class="colorcd7e58 svgShape"></path><path fill="#e58f60" fill-rule="evenodd" d="M385.7,403.65h7.12a2.23,2.23,0,0,1,1,1.68c0,2-4.12,3.65-9.2,3.65l-1,0a2.75,2.75,0,0,1-.74-1.88v-.66A2.76,2.76,0,0,1,385.7,403.65Z" class="colore58f60 svgShape"></path><rect width="3.57" height="4.07" x="387.37" y="348.73" fill="#cd7e58" class="colorcd7e58 svgShape"></rect><rect width="1.25" height="23.53" x="388.02" y="366.08" fill="#e9a580" class="colore9a580 svgShape"></rect><path fill="#e9a580" fill-rule="evenodd" d="M388,390.33c1.06,0,1.77,1.55,1.59,3.45s-1.18,3.45-2.24,3.45-1.77-1.54-1.59-3.45S386.94,390.33,388,390.33Z" class="colore9a580 svgShape"></path><circle cx="387.76" cy="211.26" r="4.69" fill="#e8bba3" class="colore8bba3 svgShape"></circle><path fill="#e8bba3" fill-rule="evenodd" d="M399.83,340.51a56.89,56.89,0,0,1-10.88,1c-7.88,0-17.35-1.34-22.55-3.95l-.07,0-.4-.21-.12-.06-.45-.25c-1.12-13.81-.44-22.31.92-28.41,2.29-10.24,8.12-13.73,8.91-24.28.72-9.56-5.57-16-7.69-23.91-1.28-4.22-3.46-8.66-5.62-11.07-1.26-1.41-1.49-1.63-.86-3.42,2.09-6,4.52-6,10.56-8.14s12.07-4.73,9.76-14.58h6.2c-1.06,4-2.26,11.86,0,15.39,1,1.57,2.91,2.76,6.37,3.51,12.58,2.75,6,20.4,2.75,28.15-4.74,11.23-6.58,20.75-5.25,31.68C393,314.32,401.5,320,399.83,340.51Z" class="colore8bba3 svgShape"></path><path fill="#d6324d" fill-rule="evenodd" d="M406.53,236.48l.59.21c5.85,2.05,8.85,2.29,11.13,8.46-22.1,19.56-39.47,43.39-54.14,69.64a57,57,0,0,1,1.05-6.49,34.68,34.68,0,0,1,2.46-7.12c.89-1.93,1.94-3.77,2.92-5.65A27.19,27.19,0,0,0,374,284.24a22.91,22.91,0,0,0-2.39-11.38c-1.61-3.6-3.62-7-4.86-10.78-.14-.45-.28-.9-.39-1.33-1-3.42-3-8-5.37-10.62-1.52-1.7-1.89-2.34-1.1-4.58,2.3-6.56,5.3-6.77,11.28-8.86l.59-.21c3.62,2.91,10,4.84,17.37,4.84S402.91,239.39,406.53,236.48Z" class="colord6324d svgShape"></path><path fill="#fab431" fill-rule="evenodd" d="M375.08,284.7c-.76,5.62-5.71,11.5-11.86,16-6.44,4.73-14.31,8-20.12,8a6.09,6.09,0,0,0,.35-2.08,6.39,6.39,0,0,0-.12-1.25c5.07,0,12.07-3.07,17.92-7.37,5.5-4,9.9-9.14,10.53-13.78Z" class="colorfab431 svgShape"></path><path fill="#fdc846" fill-rule="evenodd" d="M348,308.13a21.13,21.13,0,0,1-4.87.61,6.09,6.09,0,0,0,.35-2.08,6.39,6.39,0,0,0-.12-1.25c5.07,0,12.07-3.07,17.92-7.37a38.69,38.69,0,0,0,6.33-5.74,1.64,1.64,0,0,1,.44.43c1.47,2.28-4.82,7.95-14,12.67C351.92,306.45,349.89,307.36,348,308.13Z" class="colorfdc846 svgShape"></path><path fill="#ad273e" fill-rule="evenodd" d="M367.61 292.27l.11.13.84 1a.09.09 0 010 .13.09.09 0 01-.13 0l-.84-1-.1-.11zM368.56 291.09l.15.17.79.93a.09.09 0 010 .13.1.1 0 01-.14 0l-.79-.93-.12-.13zM369.32 290.05l0 .05.75.88a.1.1 0 010 .14.11.11 0 01-.14 0l-.75-.88h0zM362.12 297.39l.13.2.82 1.25a.1.1 0 010 .13.09.09 0 01-.13 0l-.81-1.25-.13-.19zM363.14 296.58l.86 1.33a.09.09 0 010 .13.09.09 0 01-.13 0L363 296.7zM364.17 295.7l.12.19.78 1.2a.1.1 0 010 .14.09.09 0 01-.13 0l-.78-1.21-.11-.16zM365.19 294.78l.23.31.84 1.12a.09.09 0 010 .13.08.08 0 01-.13 0l-.84-1.12-.23-.3zM356.92 300.87l.1.2.68 1.4a.09.09 0 010 .13.09.09 0 01-.13 0l-.68-1.4-.1-.2zM357.94 300.27c.06.1.12.2.17.3l.77 1.35a.09.09 0 010 .13.09.09 0 01-.13 0l-.76-1.35-.18-.31zM359 299.57c0 .09.1.19.16.28l.76 1.34a.1.1 0 010 .13.09.09 0 01-.13 0L359 300l-.16-.27zM360.12 298.85l.13.24.76 1.34a.09.09 0 010 .13.1.1 0 01-.13 0l-.75-1.33L360 299zM351.75 303.43l.09.23.54 1.44a.09.09 0 01-.05.12.09.09 0 01-.13 0l-.54-1.44-.09-.24zM352.73 303l.06.13.68 1.38a.1.1 0 01-.05.13.09.09 0 01-.13 0l-.67-1.39-.07-.14zM353.91 302.47l.07.14.68 1.39a.1.1 0 01-.05.13.09.09 0 01-.13 0l-.68-1.4-.07-.15zM355.07 301.89l.07.16.69 1.4a.11.11 0 01-.05.13.1.1 0 01-.13 0l-.68-1.4-.08-.16zM346.1 305.13l0 .22.29 1.38a.1.1 0 11-.19 0L346 305.4l0-.23zM347.19 304.91l0 .11.43 1.37a.1.1 0 01-.06.13.09.09 0 01-.12-.06l-.43-1.37L347 305zM348.44 304.59l.07.22.44 1.41a.1.1 0 01-.06.12.09.09 0 01-.12 0l-.44-1.41-.08-.24zM349.54 304.25l0 .07.54 1.4a.11.11 0 01-.06.12.08.08 0 01-.12 0l-.54-1.4 0-.09zM344 305.39l.27 1.25a.1.1 0 01-.08.12.08.08 0 01-.11-.06l-.27-1.3zM345.13 305.28c0 .17.07.34.1.51.08.34.14.63.2.92s.12.62.18.87a.11.11 0 01-.08.12.09.09 0 01-.11-.07c-.07-.33-.13-.6-.18-.87s-.13-.64-.19-.91l-.12-.54zM350.71 303.83l.24.62c.12.32.24.63.35.94l.36.94a.1.1 0 01-.06.12.09.09 0 01-.12 0l-.36-.94-.35-.94-.24-.63zM356.06 301.36q.13.3.3.63c.16.32.31.62.45.93s.31.63.45.93a.09.09 0 010 .13.09.09 0 01-.13 0c-.15-.32-.3-.62-.45-.93s-.3-.63-.45-.93-.2-.41-.31-.63zM361.1 298.15l.46.71c.18.27.36.56.55.84l.54.84a.1.1 0 010 .13.09.09 0 01-.13 0l-.55-.83c-.18-.28-.36-.57-.55-.85l-.45-.7zM366 294l.51.59.59.68.59.69a.1.1 0 01-.14.13c-.24-.26-.42-.47-.6-.69l-.59-.68-.51-.58zM370 289c.12.15.26.3.39.45s.31.37.48.57a.09.09 0 010 .13.09.09 0 01-.13 0l-.48-.57-.35-.4zM366.78 293.18l.06.07.87 1a.11.11 0 010 .14.09.09 0 01-.13 0l-.87-1-.05-.05z" class="colorad273e svgShape"></path><path fill="#fab431" fill-rule="evenodd" d="M370.57,281.58h37.28a12,12,0,0,0-.11,1.63,10.32,10.32,0,0,0,.13,1.71H370.56a11.53,11.53,0,0,0,.13-1.71A10.59,10.59,0,0,0,370.57,281.58Z" class="colorfab431 svgShape"></path><path fill="#fdc846" fill-rule="evenodd" d="M370.57,281.58h35.95a.59.59,0,0,1,0,.14c0,1.27-4.24,2.41-11,3.2h-25a11.53,11.53,0,0,0,.13-1.71A10.59,10.59,0,0,0,370.57,281.58Z" class="colorfdc846 svgShape"></path><path fill="#ad273e" fill-rule="evenodd" d="M371.7 281.58v1.71a.11.11 0 01-.1.1.1.1 0 01-.09-.1v-1.71zM377.58 281.58v1.71a.1.1 0 11-.2 0v-1.71zM383.47 281.58v1.71a.11.11 0 01-.1.1.1.1 0 01-.09-.1v-1.71zM389.34 281.58v1.71a.1.1 0 01-.09.1.11.11 0 01-.1-.1v-1.71zM395.25 281.58v1.71a.1.1 0 01-.1.1.1.1 0 01-.09-.1v-1.71zM401.13 281.58v1.71a.11.11 0 01-.1.1.1.1 0 01-.09-.1v-1.71zM407 281.58v1.71a.1.1 0 01-.09.1.1.1 0 01-.1-.1v-1.71zM372.77 281.58v1a.11.11 0 01-.1.1.1.1 0 01-.09-.1v-1zM374 281.58v1a.1.1 0 01-.1.1.1.1 0 01-.09-.1v-1zM375.26 281.58v1a.11.11 0 01-.1.1.1.1 0 01-.09-.1v-1zM376.5 281.58v1a.1.1 0 01-.1.1.1.1 0 01-.09-.1v-1zM378.53 281.58v1a.1.1 0 01-.09.1.11.11 0 01-.1-.1v-1zM379.78 281.58v1a.11.11 0 01-.1.1.1.1 0 01-.09-.1v-1zM381 281.58v1a.1.1 0 01-.09.1.1.1 0 01-.1-.1v-1zM382.27 281.58v1a.11.11 0 01-.1.1.1.1 0 01-.09-.1v-1zM384.54 281.58v1a.11.11 0 01-.1.1.1.1 0 01-.09-.1v-1zM385.78 281.58v1a.1.1 0 01-.1.1.1.1 0 01-.09-.1v-1zM387 281.58v1a.1.1 0 01-.09.1.11.11 0 01-.1-.1v-1zM388.27 281.58v1a.1.1 0 01-.1.1.1.1 0 01-.09-.1v-1zM390.3 281.58v1a.1.1 0 01-.09.1.11.11 0 01-.1-.1v-1zM391.55 281.58v1a.11.11 0 01-.1.1.1.1 0 01-.09-.1v-1zM392.79 281.58v1a.1.1 0 01-.09.1.1.1 0 01-.1-.1v-1zM394 281.58v1a.1.1 0 01-.2 0v-1zM396.47 281.58v1a.1.1 0 01-.09.1.1.1 0 01-.1-.1v-1zM397.71 281.58v1a.1.1 0 01-.09.1.11.11 0 01-.1-.1v-1zM399 281.58v1a.1.1 0 01-.1.1.1.1 0 01-.09-.1v-1zM400.2 281.58v1a.1.1 0 01-.09.1.1.1 0 01-.1-.1v-1zM402.24 281.58v1a.1.1 0 01-.1.1.1.1 0 01-.09-.1v-1zM403.48 281.58v1a.1.1 0 01-.09.1.1.1 0 01-.1-.1v-1zM404.73 281.58v1a.11.11 0 01-.1.1.1.1 0 01-.09-.1v-1zM406 281.58v1a.1.1 0 01-.1.1.1.1 0 01-.09-.1v-1z" class="colorad273e svgShape"></path><rect width="61.41" height="2.04" x="247.37" y="368.14" fill="#e49436" class="colore49436 svgShape"></rect><path fill="#cf763b" fill-rule="evenodd" d="M250.85,372.29h12.33v-2.11H250.85v2.11Zm42.12,0H305.3v-2.11H293Z" class="colorcf763b svgShape"></path><path fill="#d6324d" fill-rule="evenodd" d="M301.64,355a6.6,6.6,0,1,1,0,13.16H257.58c-4.33,0-7.83-3.24-7.83-7.23s3.5-7.23,7.83-7.23c4.75,0,13.18,1.3,21.91,1.3Z" class="colord6324d svgShape"></path><path fill="#c22c46" fill-rule="evenodd" d="M301.64,355a7.41,7.41,0,0,1,4.78,1.7,5.71,5.71,0,0,1-3.59.92c-8.19-.38-18.52-.71-27.34-1.52-6.72-.61-12-1.73-18.18-2a7.24,7.24,0,0,1-1.46-.21,9,9,0,0,1,1.73-.17c4.75,0,13.18,1.3,21.91,1.3Z" class="colorc22c46 svgShape"></path><path fill="#de4c5a" fill-rule="evenodd" d="M251,364.13a2.7,2.7,0,0,1-.42-1.42c0-2.4,3.45-4.35,7.71-4.35,4.67,0,13,.78,21.56.78l13.09.59c4.32,0,6.79.72,7,2.16.17,1.16-1,2.47-4.67,2.93-7.71.95-20.43.78-28.8.55-5.93-.16-5.61-7.19-12.78-2.49C252.43,363.67,252.46,364.25,251,364.13Z" class="colorde4c5a svgShape"></path><path fill="#e35457" fill-rule="evenodd" d="M257.6,338.71c-5.51,0-8,2.46-8,7.13a7.6,7.6,0,0,0,7.47,7.87c5.95,0,11,.87,17.53,1.16,8.5.39,18.46.22,26.36.22,4.33,0,6.45-3.89,6.45-9,0-4.35-2.89-6.37-6-7.6C294.65,335.76,267.1,338.71,257.6,338.71Z" class="colore35457 svgShape"></path><path fill="#e96d66" fill-rule="evenodd" d="M257.6,338.71c-5.51,0-8,2.46-8,7.13a8.11,8.11,0,0,0,1.2,4.35c-1.7-7.57,5.82.85,11.76,1.12,2.78.12,10-.9,13-.87,6.11.07,12.36,1.12,17.68,1.12,2.14,0,4.17-.39,4.91-2.15,2.83-6.71-13.56-6.9-27.72-7.53C264.88,341.64,260,338.71,257.6,338.71Z" class="colore96d66 svgShape"></path><path fill="#ad273e" fill-rule="evenodd" d="M258.3 353.72a7.86 7.86 0 01-2.1-1.91 6.52 6.52 0 01-1.23-2.68 4.89 4.89 0 01.3-2.87c.69-1.58 2.31-3 5.19-3.76 4-1.1 8.73-.92 11.3-.82l1.23 0h2c6 0 16.22 0 20.57 2.34a7.64 7.64 0 012.34 1.86 3.48 3.48 0 01.88 2.27c-.12 3.22-3.49 3.79-8.54 3.59-1.76-.07-3.68-.22-5.73-.39h0c-6.39-.52-14.08-1.15-20.92.43a.49.49 0 01-.59-.39.51.51 0 01.38-.6c7-1.62 14.76-1 21.21-.46h0c2.07.17 4 .33 5.68.39 4.46.18 7.45-.22 7.53-2.6a2.48 2.48 0 00-.65-1.59 6.62 6.62 0 00-2-1.6c-4.14-2.23-14.26-2.23-20.12-2.23h-2l-1.25 0c-2.53-.1-7.14-.28-11 .79-2.56.7-4 1.87-4.54 3.18a3.74 3.74 0 00-.23 2.26 5.46 5.46 0 001 2.25 7.06 7.06 0 004.44 2.67C260.39 353.79 259.35 353.75 258.3 353.72zM257.75 368.16a6.37 6.37 0 01-2.42-1.83 8.07 8.07 0 01-1.49-4.34 4.8 4.8 0 01.33-1.91 3.72 3.72 0 011.13-1.53 4.49 4.49 0 012.73-.89c4.25-.11 10.43.31 14.89.61 2 .14 3.66.25 4.6.28 6.4.2 12.93.62 16.47.86l2.6.15h.56a3.86 3.86 0 012.54.93 2.42 2.42 0 01.76 1.74 1.2 1.2 0 010 .19v0c-.12 1.64-2.41 2.42-5.86 2.76-3.24.33-7.57.3-12 .26-3.06 0-6.13.16-8.92.32-6.08.36-10.91.64-12-1.51a.49.49 0 01.21-.66.49.49 0 01.66.21c.83 1.58 5.37 1.32 11.1 1 2.8-.16 5.88-.34 9-.32 4.41 0 8.7.07 11.9-.25 3-.29 4.92-.84 5-1.86v-.12a1.43 1.43 0 00-.46-1.05 2.85 2.85 0 00-1.91-.66h-.5c-.22 0-1.18-.06-2.68-.16-3.54-.23-10.09-.65-16.42-.85-1 0-2.66-.14-4.65-.28-4.45-.3-10.61-.72-14.8-.61a3.59 3.59 0 00-2.14.68 2.65 2.65 0 00-.83 1.13 3.75 3.75 0 00-.26 1.51 7 7 0 001.28 3.76 5.63 5.63 0 002.46 1.71 11.09 11.09 0 003.33.73z" class="colorad273e svgShape"></path><polygon fill="#c7badb" points="307.89 493.28 307.9 486.7 344.79 452.24 490.6 452.24 521.55 486.7 521.62 493.28 307.89 493.28" class="colorc7badb svgShape"></polygon><polygon fill="#f4eff7" points="307.89 486.7 344.79 445.66 490.6 445.66 521.62 486.7 307.89 486.7" class="colorf4eff7 svgShape"></polygon><rect width="89.1" height="2.96" x="411.67" y="449.08" fill="#e49436" class="colore49436 svgShape"></rect><path fill="#cf763b" fill-rule="evenodd" d="M416.72,455.1h17.89V452H416.72v3.06Zm61.12,0h17.89V452H477.84Z" class="colorcf763b svgShape"></path><path fill="#d6324d" fill-rule="evenodd" d="M490.41,430c5.71,0,10.34,4.27,10.34,9.55s-4.63,9.54-10.34,9.54H426.49c-6.28,0-11.37-4.69-11.37-10.49s5.09-10.49,11.37-10.49c6.89,0,19.11,1.89,31.78,1.89Z" class="colord6324d svgShape"></path><path fill="#c22c46" fill-rule="evenodd" d="M490.41,430a10.78,10.78,0,0,1,6.94,2.47,8.34,8.34,0,0,1-5.2,1.34c-11.89-.56-26.88-1-39.67-2.2-9.77-.89-17.42-2.52-26.38-2.94a12.44,12.44,0,0,1-2.12-.3,12.14,12.14,0,0,1,2.51-.26c6.89,0,19.11,1.89,31.78,1.89Z" class="colorc22c46 svgShape"></path><path fill="#de4c5a" fill-rule="evenodd" d="M416.89,443.27a4,4,0,0,1-.61-2.06c0-3.5,5-6.32,11.19-6.32,6.79,0,18.81,1.13,31.28,1.13l19,.85c6.26,0,9.85,1.05,10.15,3.14.23,1.69-1.41,3.59-6.79,4.25-11.19,1.38-29.64,1.14-41.78.8-8.61-.24-8.15-10.43-18.55-3.62C419,442.6,419.05,443.43,416.89,443.27Z" class="colorde4c5a svgShape"></path><path fill="#e35457" fill-rule="evenodd" d="M426.52,406.38c-8,0-11.66,3.57-11.66,10.34s5.12,11.43,10.84,11.43c8.64,0,16,1.25,25.44,1.68,12.33.56,26.78.32,38.24.32,6.28,0,9.37-5.65,9.37-13.1,0-6.31-4.2-9.24-8.65-11C480.27,402.1,440.3,406.38,426.52,406.38Z" class="colore35457 svgShape"></path><path fill="#e96d66" fill-rule="evenodd" d="M426.52,406.38c-8,0-11.66,3.57-11.66,10.34a11.84,11.84,0,0,0,1.75,6.32c-2.47-11,8.44,1.23,17.05,1.62,4,.18,14.49-1.31,18.79-1.26,8.87.1,17.94,1.62,25.66,1.62,3.1,0,6.05-.56,7.13-3.11,4.1-9.74-19.68-10-40.23-10.93C437.07,410.63,430.06,406.38,426.52,406.38Z" class="colore96d66 svgShape"></path><path fill="#ad273e" fill-rule="evenodd" d="M427.52 428.16a11.38 11.38 0 01-3-2.78 9.33 9.33 0 01-1.79-3.88 7 7 0 01.44-4.17c1-2.29 3.35-4.31 7.52-5.45 5.83-1.6 12.66-1.34 16.4-1.2.73 0 1.35.06 1.78.06h3c8.64 0 23.53 0 29.85 3.4a11.12 11.12 0 013.4 2.7 5.1 5.1 0 011.28 3.3c-.18 4.67-5.08 5.5-12.4 5.21-2.56-.11-5.34-.33-8.31-.58h0c-9.27-.75-20.43-1.66-30.35.63a.71.71 0 01-.85-.56.74.74 0 01.54-.88c10.14-2.35 21.42-1.43 30.78-.67h0c3 .24 5.81.47 8.25.57 6.47.25 10.8-.33 10.92-3.78a3.59 3.59 0 00-.94-2.3 9.7 9.7 0 00-3-2.33c-6-3.24-20.69-3.24-29.2-3.24h-3l-1.82-.06c-3.66-.14-10.36-.39-16 1.15-3.7 1-5.76 2.72-6.59 4.63a5.57 5.57 0 00-.33 3.27 7.93 7.93 0 001.51 3.26 10.26 10.26 0 006.43 3.88C430.56 428.26 429.06 428.19 427.52 428.16zM426.73 449.1a9.36 9.36 0 01-3.51-2.65 11.61 11.61 0 01-2.15-6.3 6.83 6.83 0 01.46-2.76 5.35 5.35 0 011.66-2.23 6.5 6.5 0 013.94-1.28c6.17-.16 15.14.44 21.61.88 2.91.2 5.32.36 6.68.4 9.28.29 18.76.91 23.89 1.25 2.15.14 3.54.23 3.77.22h.82a5.62 5.62 0 013.69 1.35 3.54 3.54 0 011.1 2.53v.31c-.17 2.38-3.5 3.51-8.51 4-4.7.47-11 .43-17.43.38-4.43 0-8.88.23-12.94.46-8.82.52-15.82.93-17.45-2.19a.72.72 0 01.3-1 .71.71 0 011 .3c1.21 2.3 7.8 1.92 16.11 1.43 4.06-.24 8.53-.5 13-.46 6.4 0 12.63.09 17.27-.37 4.3-.43 7.14-1.21 7.23-2.7v-.18a2.14 2.14 0 00-.67-1.52 4.17 4.17 0 00-2.78-.95c-.23 0-.47 0-.71 0s-1.72-.08-3.89-.22c-5.15-.34-14.65-1-23.84-1.24-1.46 0-3.85-.21-6.74-.41-6.45-.43-15.4-1-21.47-.88a5.09 5.09 0 00-3.1 1 3.94 3.94 0 00-1.22 1.64 5.62 5.62 0 00-.36 2.2 10.08 10.08 0 001.85 5.45 8.24 8.24 0 003.56 2.48 16 16 0 004.84 1.05z" class="colorad273e svgShape"></path><path fill="#fdc846" d="M481.75,453.85v43.66A18.47,18.47,0,0,1,463.28,516H368.14a18.49,18.49,0,0,1-18.47-18.47V453.85a18.46,18.46,0,0,1,18.47-18.46h95.14a18.47,18.47,0,0,1,18.47,18.46Z" class="colorfdc846 svgShape"></path><path d="M481.75,453.85v43.66A18.47,18.47,0,0,1,463.28,516H368.14a18.38,18.38,0,0,1-13.92-6.34v-.15c0,1.06,10.41,6.65,25.38-1.73s14.31-11.85,32.89-10.7,51.32-23.51,52.31-39.14c.64-10.14,7.37-13.21,11.66-17A18.42,18.42,0,0,1,481.75,453.85Z" style="mix-blend-mode:multiply" fill="#cebfde" opacity=".3" class="colorcebfde svgShape"></path><path fill="#927ab8" d="M374.31,470.85v45l-3.66.12-4.86.15-.89-45.29a4.72,4.72,0,0,1,3.19-4.46,4.78,4.78,0,0,1,1.51-.25,4.71,4.71,0,0,1,4.71,4.71Z" class="color927ab8 svgShape"></path><path d="M374.31,470.85v45l-3.66.12c.13-10,.31-28.71.08-37.18-.23-8.27-1.74-11.32-2.64-12.42a4.78,4.78,0,0,1,1.51-.25,4.71,4.71,0,0,1,4.71,4.71Z" style="mix-blend-mode:multiply" fill="#927ab8" opacity=".57" class="color927ab8 svgShape"></path><path fill="#f8f7fb" d="M372.37 474.45a2.55 2.55 0 11-2.55-2.55A2.55 2.55 0 01372.37 474.45zM372.37 510.14a2.55 2.55 0 11-2.55-2.55A2.55 2.55 0 01372.37 510.14z" class="colorf8f7fb svgShape"></path><path fill="#927ab8" d="M462.8,470.85v45l-3.66.12-4.86.15-.89-45.29a4.71,4.71,0,1,1,9.41,0Z" class="color927ab8 svgShape"></path><path d="M462.8,470.85v45l-3.66.12c.12-10,.31-28.71.08-37.18-.23-8.27-1.75-11.32-2.64-12.42a4.71,4.71,0,0,1,6.22,4.46Z" style="mix-blend-mode:multiply" fill="#927ab8" opacity=".57" class="color927ab8 svgShape"></path><circle cx="458.31" cy="474.45" r="2.55" fill="#f8f7fb" class="colorf8f7fb svgShape"></circle><path fill="#f8f7fb" d="M460.86,510.14a2.55,2.55,0,1,1-2.55-2.55A2.55,2.55,0,0,1,460.86,510.14Z" class="colorf8f7fb svgShape"></path><rect width="5.92" height="22.7" x="319.41" y="493.45" fill="#7458a5" class="color7458a5 svgShape"></rect><rect width="5.92" height="22.7" x="501.65" y="493.45" fill="#7458a5" class="color7458a5 svgShape"></rect></g></g></svg>