<svg xmlns="http://www.w3.org/2000/svg" xmlns:xlink="http://www.w3.org/1999/xlink" enable-background="new 0 0 2933.743 2336.967" viewBox="0 0 2933.743 2336.967"><path fill="#ffd08f" d="M1764.783,1946.093c0,0-944.324,46.216-1000.995,91.669    c-56.671,45.454,213.882,170.464,291.957,167.13c78.074-3.333,872.266-24.196,941.876-24.599s311.542-86.616,353.09-101.848     s89.885-12.549,104.886-60.561C2470.598,1969.873,1764.783,1946.093,1764.783,1946.093z" class="colorffea8f svgShape"/><rect width="514.38" height="683.935" x="552.947" y="371.125" fill="#ffe3bd" class="colorffe2bd svgShape"/><path fill="#ffe0b5" d="M1072.883,1060.616H547.39V365.569h525.492V1060.616z M558.503,1049.503h503.267V376.681       H558.503V1049.503z" class="colorffd3b5 svgShape"/><polygon fill="#f4ca90" points="863.393 705.551 992.855 711.358 987.326 552.107" class="colorf4c490 svgShape"/><polygon fill="#f4ca90" points="702.987 848.618 871.727 858.541 860.045 701.083" class="colorf4c490 svgShape"/><rect width="151.687" height="263.607" x="835.639" y="441.944" fill="#ffffff" class="colorfff svgShape"/><path fill="#ffcb82" d="M888.619,493.962c0,0-3.39,4.676-5.114,19.667c-1.541,13.396-0.589,22.452-0.589,22.452         s-37.278,18.624-34.434,22.033c2.843,3.409,37.57,4.453,46.3-5.007C912.113,534.325,888.619,493.962,888.619,493.962z" class="colorffa982 svgShape"/><path fill="#2e3247" d="M889.51,492.723c0,0-3.559,2.929-5.947,13.409c-2.388,10.481-2.72,25.472-2.72,25.472         s15.727,2.654,22.722-1.857C903.566,529.748,901.36,500.076,889.51,492.723z" class="color2e2e47 svgShape"/><path fill="#9c5243" d="M929.474,678.834c0,0,3.518,2.403,3.916,3.348c0.398,0.945-0.632,3.567-1.13,4.214         c-0.497,0.647-7.313,4.428-9.602,5.97c-2.289,1.542-6.816,1.791-8.706,0.945c-1.891-0.846-4.726-3.731-4.726-5.522         c0-1.791,3.831-2.935,7.114-4.726C919.623,681.272,925.543,677.341,929.474,678.834z" class="color9c6f43 svgShape"/><path fill="#ffcb82" d="M922.859,671.171c0,0-0.02,4.948-0.511,6.764c-0.491,1.816-7.067,6.952-8.946,7.015         c-1.879,0.063-3.633,0.752-3.319,1.566c0.313,0.814,1.503,1.002,1.503,1.002s0,1.628,1.065,1.942         c0,0,0.376,1.065,1.942,1.253c0,0,0.465,0.501,1.861,0.501c0,0,1.146,0.689,2.461,0.313c1.315-0.376,3.946-2.63,6.263-3.633         c2.317-1.002,5.073-2.255,6.639-4.321c1.566-2.067-1.503-7.704-1.628-9.269c-0.125-1.566,0.689-4.509,0.188-4.697         C929.874,669.417,922.864,670.731,922.859,671.171z" class="colorffa982 svgShape"/><path fill="#9c5243" d="M957.581,641.066c0,0,1.615-0.981,2.438-0.862c0.824,0.119,3.459,2.275,3.251,3.241         c-0.208,0.967-9.843,15.417-10.68,16.986c-0.837,1.569-2.989,4.358-3.769,4.566c-0.78,0.208-3.373-1.382-3.302-2.605         c0.071-1.223,1.333-2.675,2.772-4.964C949.729,655.141,957.581,641.066,957.581,641.066z" class="color9c6f43 svgShape"/><path fill="#ffcb82" d="M950.12,636.198c1.953,1.89,3.536,3.017,5.917,3.25c2.381,0.233,4.279,2.823,3.521,4.875         c-0.758,2.052-4.479,4.901-5.337,6.69c-0.858,1.789-2.533,6.125-4.039,8.371c-1.506,2.247-4.169,2.568-5.947,2.115         c-1.778-0.453,0.15-2.567,1.567-3.339c1.417-0.772,4.674-10.841,1.589-13.434         C940.319,638.785,948.197,634.336,950.12,636.198z" class="colorffa982 svgShape"/><path fill="#2e3247" d="M948.262,649.692c0,0,4.784,1.447,8.031,0.195l-3.989,8.037c0,0-4.289-0.003-5.844-1.198         C946.46,656.726,946.898,653.723,948.262,649.692z" class="color2e2e47 svgShape"/><path fill="#4b5482" d="M916.212 475.322c0 0-1.056 7.625-5.879 7.577-4.823-.048-.792-9.742.24-10.438C911.605 471.764 915.804 474.128 916.212 475.322zM912.053 556.182l11.07 53.417c0 0 5.399 2.448 9.862 6.911 5.055 5.055 20.415 16.354 20.415 16.354.78.97-8.462 11.828-9.422 12.602-.513-.449-30.64-18.86-34.317-21.973-16.414-13.894-26.156-65.654-26.156-65.654L912.053 556.182z" class="color82664b svgShape"/><path fill="#4b5482" d="M939.644,567.615l-4.97,104.154c-0.075,1.014-15.868,5.337-16.197,2.885l-14.91-117.872         L939.644,567.615z" class="color82664b svgShape"/><path fill="#2e3247" d="M908.76,487.845c9.794,1.357,17.907,8.286,20.889,17.713         c3.666,11.591,4.426,20.3,7.768,36.635c0.338,1.65,2.784,7.103,4.223,15.262c1.199,6.795,7.919,26.3,7.919,26.3         s-14.637,4.575-41.202-2.731l-3.127-13.244c0,0-0.319,13.08-1.627,12.865c-8.159-1.344-17.282-4.38-21.889-10.811         c0,0-0.492-10.969,0.995-20.049c3.617-22.092,0.797-53.007,7.468-57.644C893.193,490.043,903.273,487.085,908.76,487.845z" class="color2e2e47 svgShape"/><path fill="#ffcb82" d="M910.213,481.382c0,0,0.744,4.54,2.225,7.135c0.866,1.518-4.098,5.132-6.808,5.432         c-2.71,0.3-0.838-4.729-0.644-6.014s0.048-4.969,0.194-5.526C905.324,481.853,909.39,480.696,910.213,481.382z" class="colorffa982 svgShape"/><path fill="#2e3247" d="M904.857,488.53c0.059-0.239,0.105-0.443,0.128-0.594c0.107-0.711,0.111-2.158,0.117-3.402         l3.499-0.905C908.601,483.629,906.825,487.486,904.857,488.53z" class="color2e2e47 svgShape"/><path fill="#ffcb82" d="M900.751,468.567c0,0-2.052,4.078-2.677,5.319c-0.625,1.241-1.486,2.363-2.172,4.314         c-0.686,1.951-1.021,5.708,2.436,7.375c3.458,1.666,8.136,0.465,9.65-1.217c1.513-1.683,1.694-2.629,1.694-2.629         s1.064,0.535,2.191-0.675c1.128-1.21,2.483-2.866,1.271-3.55c-1.211-0.684-1.735-0.091-2.001-0.299         c-0.266-0.208-0.196-4.173-1.643-5.271C908.054,470.835,902.441,467.122,900.751,468.567z" class="colorffa982 svgShape"/><path fill="#4b5482" d="M912.404,476.756c0,0-1.928,2.121-3.116,1.928c-1.189-0.193,0.321-4.096,0.45-4.892         c0.128-0.795-0.237-1.858-0.237-1.858S914.942,473.961,912.404,476.756z" class="color82664b svgShape"/><path fill="#ffffff" d="M927.808,536.659c-0.101,0-0.19-0.072-0.209-0.175l-1.658-9.188         c-0.021-0.116,0.056-0.226,0.171-0.247c0.117-0.021,0.226,0.056,0.247,0.171l1.659,9.188         c0.021,0.116-0.056,0.226-0.172,0.247C927.833,536.658,927.82,536.659,927.808,536.659z" class="colorfff svgShape"/><path fill="#4b5482" d="M902.591,470.05c0,0-2.541-0.65-1.608-3.456c0.932-2.806,2.355-5.519,8.181-4.183         c3.11,0.714,4.688,5.38,4.688,5.38s2.381,1.012,3.108,3.532c0.727,2.52,1.221,4.215-1.273,3.991s-8.64-3.991-9.465-4.147         C905.397,471.012,902.591,470.778,902.591,470.05z" class="color82664b svgShape"/><path fill="#2e3247" d="M913.471,684.48c0,0,6.625,3.458,7.682,6.642l5.982-3.321c0,0-5.559-6.593-7.947-6.345         C916.8,681.705,913.471,684.48,913.471,684.48z" class="color2e2e47 svgShape"/><path fill="#ffcb82" d="M921.573,493.962c0,0,36.152,24.259,39.602,41.373c3.449,17.114-51.895,13.914-55.798,8.707         c-3.903-5.206,35.241-12.913,35.241-12.913s-7.768-8.08-12.677-18.229C922.438,501.522,921.573,493.962,921.573,493.962z" class="colorffa982 svgShape"/><path fill="#ffcb82" d="M912.35,545.621l-4.419,0.585c0,0-6.145,4.079-6.85,4.12         c-0.704,0.041-1.319-0.745-1.319-0.745s-1.473,0.081-1.969-0.383c-0.497-0.463-0.731-1.14-0.731-1.14         s-2.047,0.028-2.265-1.129c-0.219-1.158,1.796-2.18,2.257-2.612c0.461-0.433-0.29-1.091,0.591-2.661         c0.881-1.57,4.937-1.861,6.557-2.13c2.759-0.459,4.877,1.038,4.877,1.038s2.748-1.41,2.89,0.128         C912.114,542.231,912.35,545.621,912.35,545.621z" class="colorffa982 svgShape"/><path fill="#2e3247" d="M954.773 534.471c-.068 0-.134-.032-.175-.092-.006-.005-.429-.453-3.907-2.312-3.594-1.92-10.228-.323-10.295-.307-.113.028-.229-.042-.257-.156-.028-.114.042-.229.156-.257.278-.068 6.86-1.652 10.596.345 3.572 1.909 4.006 2.372 4.057 2.446.067.097.042.229-.054.296C954.857 534.459 954.814 534.471 954.773 534.471zM951.423 514.69c-15.854-16.584-29.85-20.728-29.85-20.728s-2.451 8.224 3.051 19.601c2.942 6.082 8.592 14.129 11.602 16.849C938.809 529.27 950.096 523.645 951.423 514.69zM905.595 492.903l6.603-4.835-.237-.501c0 0 2.944.855 3.442 1.917s-7.529 6.268-7.529 6.268l-3.017-1.426-3.218-.498c0 0 1.581-3.814 1.699-3.98.117-.166 1.255-.265 1.255-.265L905.595 492.903z" class="color2e2e47 svgShape"/><path fill="#ffffff" d="M907.812 497.803c-.127 0-.241-.053-.33-.154-.217-.248-1.999-3.012-2.468-3.741-1.386.486-4.272 1.415-4.758.894-.197-.211-.278-.623 1.27-2.857.784-1.132 1.636-2.218 1.645-2.228.072-.092.206-.108.298-.036.092.073.108.206.036.298-1.465 1.863-2.984 4.108-2.926 4.541.329.189 2.552-.393 4.452-1.069.093-.033.197.002.25.086.924 1.439 2.358 3.647 2.521 3.833.115.025.47-.183 1.731-1.751 1.351-1.681 5.544-5.879 5.722-6.057.083-.083.217-.083.301 0 .083.083.083.218 0 .301-.043.043-4.354 4.359-5.691 6.022-1.29 1.604-1.713 1.912-2.043 1.919C907.819 497.803 907.815 497.803 907.812 497.803zM893.58 508.004c-.118 0-.213-.095-.213-.212 0-3.059.493-8.423.498-8.477.011-.117.113-.203.231-.192.117.011.203.114.192.231-.005.054-.497 5.399-.497 8.438C893.792 507.909 893.697 508.004 893.58 508.004zM897.41 519.247c-.117 0-.212-.095-.212-.213v-11.244c0-.117.095-.213.212-.213.118 0 .213.095.213.213v11.244C897.623 519.152 897.528 519.247 897.41 519.247zM903.858 509.596c-.003 0-.006 0-.009 0-.117-.005-.209-.103-.204-.221l.318-7.96c.005-.117.106-.21.221-.204.117.005.209.104.204.221l-.318 7.96C904.066 509.506 903.971 509.596 903.858 509.596zM907.887 524.72c-.117 0-.213-.095-.213-.213v-6.965c0-.117.095-.213.213-.213s.213.095.213.213v6.965C908.099 524.625 908.004 524.72 907.887 524.72zM912.538 508.004c-.004 0-.008 0-.012 0-.117-.007-.207-.107-.2-.224l.541-9.552c.006-.118.109-.205.224-.2.117.007.207.107.2.224l-.541 9.552C912.744 507.916 912.65 508.004 912.538 508.004zM934.927 529.305c-.065 0-.129-.03-.171-.086-.062-.083-6.206-8.357-7.764-10.866-.529-.852-1.071-1.679-1.594-2.479-1.044-1.595-2.124-3.244-3.249-5.295-1.68-3.063-3.851-9.024-3.873-9.084-.04-.11.017-.232.127-.272.111-.04.232.017.273.127.022.06 2.181 5.99 3.846 9.025 1.116 2.036 2.192 3.678 3.231 5.266.525.802 1.068 1.631 1.6 2.487 1.549 2.494 7.682 10.754 7.744 10.837.07.094.05.227-.044.297C935.015 529.292 934.971 529.305 934.927 529.305zM884.465 532.272c-.116 0-.211-.093-.212-.209-.158-10.711 1.746-28.888 1.765-29.07.012-.117.118-.2.234-.189.117.012.202.117.189.234-.019.182-1.92 18.334-1.763 29.019.002.117-.092.214-.209.216C884.467 532.272 884.466 532.272 884.465 532.272z" class="colorfff svgShape"/><path fill="#2e3247" d="M912.35 625.647c-.091 0-.175-.059-.203-.15-.014-.047-1.47-4.795-2.308-8.607-.547-2.487-.321-12.26-.156-19.395.088-3.802.164-7.086.073-7.541-.208-1.042-4.248-5.74-5.788-7.462-.078-.088-.071-.222.017-.3.087-.078.221-.071.3.017.574.643 5.619 6.317 5.887 7.662.095.477.04 3.078-.065 7.634-.165 7.114-.39 16.857.146 19.294.835 3.795 2.285 8.526 2.3 8.573.034.112-.029.231-.141.266C912.392 625.644 912.371 625.647 912.35 625.647zM939.928 642.91l-2.795-22.688v0c0 0-2.235 7.221-1.417 9.889.818 2.668.446 10.456.446 10.456C937.555 641.434 938.831 642.227 939.928 642.91zM921.605 635.365c-.012 0-.025-.001-.037-.003-.116-.02-.193-.13-.173-.246.067-.38 1.647-9.35 3.099-12.782.759-1.794.672-2.793.58-3.85-.081-.937-.166-1.906.343-3.431.426-1.28.767-2.13 1.04-2.814.407-1.018.653-1.632.808-2.721.017-.116.125-.197.24-.18.116.017.197.124.18.24-.163 1.14-.43 1.808-.835 2.819-.271.678-.609 1.523-1.032 2.79-.48 1.442-.404 2.325-.322 3.26.092 1.063.188 2.162-.612 4.053-1.433 3.388-3.056 12.597-3.072 12.69C921.796 635.293 921.706 635.365 921.605 635.365z" class="color2e2e47 svgShape"/><path fill="#ffffff" d="M901.075 536.063c0 0-.001 0-.002 0-.117-.001-.212-.097-.211-.215l.082-8.593c.001-.117.096-.211.213-.211.001 0 .001 0 .002 0 .117.001.211.097.211.215l-.082 8.593C901.287 535.969 901.192 536.063 901.075 536.063zM890.197 534.604c-.003 0-.006 0-.008 0-.117-.005-.209-.103-.204-.221l.398-10.215c.005-.117.107-.21.221-.204.117.005.209.103.204.221l-.398 10.215C890.405 534.514 890.31 534.604 890.197 534.604zM893.712 561.933c-.004 0-.008 0-.012 0-.117-.006-.207-.107-.201-.224l.597-11.078c.006-.117.109-.209.224-.201.117.006.207.106.201.224l-.597 11.078C893.918 561.846 893.825 561.933 893.712 561.933zM887.477 569.695c-.117 0-.213-.095-.213-.213v-14.195c0-.117.095-.213.213-.213s.212.095.212.213v14.195C887.689 569.599 887.594 569.695 887.477 569.695zM902.07 564.919c-.118 0-.213-.095-.213-.213V554.49c0-.117.095-.213.213-.213.117 0 .213.095.213.213v10.215C902.283 564.823 902.188 564.919 902.07 564.919zM917.99 531.827c-.113 0-.207-.089-.212-.204l-.531-12.579c-.005-.117.086-.217.203-.221.117-.004.217.086.221.203l.531 12.579c.005.117-.086.216-.204.221C917.996 531.827 917.993 531.827 917.99 531.827zM915.204 559.545c-.109 0-.202-.083-.211-.194l-.73-8.292c-.01-.117.076-.22.193-.23.12-.008.22.076.23.193l.73 8.292c.01.117-.076.22-.193.23C915.217 559.545 915.211 559.545 915.204 559.545zM914.475 575.564c-.103 0-.193-.075-.21-.18l-1.459-9.386c-.018-.116.061-.225.177-.243.117-.018.225.061.243.177l1.459 9.386c.018.116-.061.225-.177.243C914.496 575.564 914.485 575.564 914.475 575.564zM896.856 579.355c-.004 0-.008 0-.012 0-.117-.007-.207-.107-.2-.224l.505-8.798c.007-.117.11-.205.224-.2.117.007.207.107.2.224l-.504 8.798C897.062 579.268 896.968 579.355 896.856 579.355zM928.737 511.984c-.062 0-.123-.026-.165-.078l-4.179-5.108c-.074-.091-.061-.225.03-.299.091-.075.225-.061.299.03l4.179 5.108c.074.091.061.225-.03.299C928.832 511.968 928.784 511.984 928.737 511.984zM936.962 512.399c-.063 0-.126-.028-.168-.082l-3.735-4.793c-.072-.093-.056-.226.037-.298.092-.072.226-.056.298.037l3.735 4.793c.072.093.056.226-.037.298C937.054 512.384 937.008 512.399 936.962 512.399zM939.417 524.72c-.063 0-.125-.028-.167-.081l-4.322-5.472c-.073-.092-.057-.226.035-.299.092-.073.226-.057.299.035l4.322 5.473c.073.092.057.226-.035.299C939.509 524.705 939.463 524.72 939.417 524.72zM949.559 519.902c-.054 0-.107-.02-.149-.061l-5.3-5.199c-.084-.082-.085-.217-.003-.301.082-.084.217-.085.301-.003l5.3 5.199c.084.082.085.217.003.301C949.669 519.881 949.614 519.902 949.559 519.902zM924.956 497.803c-.046 0-.093-.015-.132-.046l-4.577-3.629c-.092-.073-.107-.207-.034-.299.073-.092.207-.107.298-.034l4.577 3.629c.092.073.107.207.034.299C925.08 497.776 925.018 497.803 924.956 497.803z" class="colorfff svgShape"/><path fill="#2e3247" d="M941.893,531.464c-0.083,0-0.162-0.049-0.196-0.13c-0.045-0.108,0.005-0.233,0.114-0.278         c0.213-0.09,5.241-2.185,8.232-1.583c2.943,0.593,3.611,1.217,3.677,1.286c0.081,0.085,0.079,0.219-0.006,0.301         c-0.085,0.081-0.219,0.079-0.301-0.006c-0.003-0.003-0.645-0.597-3.455-1.164c-2.865-0.578-7.932,1.536-7.983,1.557         C941.948,531.459,941.92,531.464,941.893,531.464z" class="color2e2e47 svgShape"/><g fill="#000000" class="color000 svgShape"><defs><rect id="a" width="157.058" height="231.147" x="702.987" y="617.471" fill="#000000" class="color000 svgShape"/></defs><use fill="#fff" overflow="visible" xlink:href="#a"/><clipPath id="b"><use overflow="visible" xlink:href="#a"/></clipPath><g clip-path="url(#b)" fill="#000000" class="color000 svgShape"><path fill="#eae7e4" d="M810.527,922.416c-3.628-0.527-5.818-3.066-6.885-4.725c0.246,1.092,0.619,2.21,1.15,3.322           c2.637,5.526,13.358,5.493,18.4,2.875c1.012-0.526,1.26-1.486,0.997-2.695           C822.085,922.213,815.897,923.196,810.527,922.416z" class="coloreae6e4 svgShape"/><path fill="#323751" d="M811.947 906.291c-1.581-.789-5.603.087-6.854 1.569-1.406 1.665-2.415 5.556-1.451 9.831 1.067 1.659 3.257 4.198 6.885 4.725 5.37.781 11.558-.203 13.661-1.223C823.098 916.196 813.22 906.927 811.947 906.291zM730.776 919.539c1.609 1.142 8.816 1.39 14.488 1.374 5.672-.016 10.848-1.608 14.365-2.684 2.71-.829 4.817-3.326 5.642-4.429-.361-1.005-.85-2.037-1.194-2.663-.709-1.291-3.844-2.415-8.334-2.464-3.132-.034-20.171 4.118-21.746 4.805-1.045.456-3.156 2.038-3.993 3.788C729.914 918.096 730.029 919.01 730.776 919.539z" class="color515032 svgShape"/><path fill="#eae7e4" d="M741.051,923.022c17.923,0.668,23.56-4.435,24.61-6.628c0.233-0.487-0.006-1.525-0.39-2.593           c-0.825,1.103-2.932,3.6-5.642,4.429c-3.517,1.076-8.693,2.668-14.365,2.684c-5.672,0.016-12.88-0.232-14.488-1.374           c-0.747-0.53-0.862-1.444-0.772-2.272C728.807,919.77,730.212,922.618,741.051,923.022z" class="coloreae6e4 svgShape"/><path fill="#cc8070" d="M744.066,808.754c1.753,42.56,8.835,90.096,6.686,99.92          c-0.364,1.665-3.433,5.024-3.433,5.024s5.557,0.626,9.728-0.377c4.11-0.988,4.682-2.549,4.682-2.549l4.474-101.209          C757.621,809.876,749.559,809.317,744.066,808.754z" class="colorcc8b70 svgShape"/><path fill="#2e3247" d="M766.016,813.812l-21.826-2.249c0.105,2.267,0.224,4.546,0.355,6.83          c6.937,0.734,18.378-1.302,21.351-1.868L766.016,813.812z" class="color2e2e47 svgShape"/><path fill="#cc8070" d="M777.729,807.269c0,0,6.956,35.841,10.097,47.591c3.765,14.085,17.977,55.479,17.977,55.479          l5.654,1.143c0,0,3.573-1.56,3.18-2.808c-8.015-25.484-12.186-106.163-12.186-106.163          C795.108,805.416,786.291,806.768,777.729,807.269z" class="colorcc8b70 svgShape"/><path fill="#2e3247" d="M803.049,812.704c-0.092-1.468-0.174-2.802-0.245-3.988          c-2.771,0.659-10.628,2.474-14.474,2.813c-3.536,0.312-7.727,0.663-9.605,0.819c0.162,0.821,0.341,1.724,0.534,2.695          c2.362,0.317,9.269,1.052,15.799-0.124C799.033,814.203,801.534,813.367,803.049,812.704z" class="color2e2e47 svgShape"/><path fill="#ffe0b5" d="M801.552,768.624c-6.89-34.188-46.013-41.845-58.07-20.098          c-4.779,8.62-4.798,35.831-3.079,65.541c7.311,0.534,18.041,1.064,29.464,0.767l0.818-17.712l3.225,17.572          c10.68-0.464,21.678-1.719,30.838-4.415L801.552,768.624z" class="colorffd3b5 svgShape"/><path fill="#f2e3ce" d="M784.764,647.454c0,0,8.563-5.437,10.955-4.643c3.71,1.232,7.664,10.379,6.308,15.618          c-1.356,5.239-7.096,5.704-9.401,3.531C790.32,659.786,782.211,649.015,784.764,647.454z" class="colorf2e2ce svgShape"/><path fill="#2e3247" d="M791.883,643.634c-1.619,0.68-3.385,1.627-4.753,2.407c0.756,2.077,2.827,5.799,4.328,8.733          c1.266,2.476,3.548,6.288,5.398,8.357c1.101-0.136,2.208-0.567,3.136-1.347c0.18-3.377-0.918-8.971-4.008-13.414          C794.081,645.636,792.755,644.291,791.883,643.634z" class="color2e2e47 svgShape"/><path fill="#f2e3ce" d="M787.607,643.835c0,0,6.974,2.476,10.869,12.402c3.424,8.725,0.585,16.456-8.736,10.454          c-8.346-5.375-14.152-17.879-10.534-21.607C782.824,641.357,787.607,643.835,787.607,643.835z" class="colorf2e2ce svgShape"/><path fill="#ffe0b5" d="M757.753,688.886c0,0,17.719-15.401,42.076-14.96c16.498,0.299,21.311,12.507,14.652,37.44          c-3.936,14.738-0.987,31.028-2.081,38.731c-1.959,13.796-3.33,24.669-3.33,24.669s-65.065-7.389-73.431-18.2          C727.274,745.755,741.513,706.602,757.753,688.886z" class="colorffd3b5 svgShape"/><path fill="#ffe0b5" d="M816.941,683.776c0,0,8.895,17.864,15.215,40.197c0.43,1.519,3.176,4.905,3.579,6.462          c0.817,3.158-0.759,4.539-0.101,7.797c5.188,25.674,4.695,32.405,1.048,32.391c-0.78-0.003-6.271,0.17-7.6-2.352          c-4.882-9.268-11.165-31.996-16.705-44.513c-5.478-12.378-15.599-28.149-19.515-35.578          C789.635,682.055,813.853,678.738,816.941,683.776z" class="colorffd3b5 svgShape"/><path fill="#cc8070" d="M836.757 767.501c0 0 .929 2.288.864 3.909-.065 1.62 3.099 6.373 1.895 6.471-1.204.097-2.27-3.767-3.008-3.858-.739-.09-2.859 10.395-3.293 10.153-.434-.242.405-5.626-.155-5.672-.56-.045-1.247 6.404-1.977 6.354-.73-.05.061-6.607-.118-6.652-.179-.045-1.864 5.526-2.361 5.382-.497-.144 1.091-6.919.747-7.139-.344-.22-1.755 4.107-2.421 3.578-.666-.529 1.892-6.547 1.893-7.688.001-1.141 1.896-5.575 3.875-6.182C834.677 765.551 836.754 766.149 836.757 767.501zM789.541 665.42c0 0 .042 8.634-.976 11.701-.293.883-3.032 3.959-5.626 2.356-1.252-.774-1.389-2.845-1.195-4.779.207-2.071.793-3.985.793-3.985L789.541 665.42z" class="colorcc8b70 svgShape"/><path fill="#2e3247" d="M795.208,657.682c0,0,2.41,2.838,1.257,5.514c-1.153,2.677-3.412,4.656-6.023,4.221          s-0.42-8.948,1.288-9.653C793.438,657.058,794.449,656.753,795.208,657.682z" class="color2e2e47 svgShape"/><path fill="#cc8070" d="M787.638,650.041c-3.231-0.902-6.643,0.681-8.146,3.68l-1.573,3.14          c-0.738,1.472-1.756,2.804-2.565,5.118c-0.809,2.314-1.3,6.995,2.903,8.735c2.935,1.215,9.643,0.535,11.434-1.463          c1.79-1.997,2.339-3.843,2.339-3.843s1.441,0.51,2.289-0.451c0.887-1.006,1.726-3.536,1.043-4.046          c-1.269-0.948-1.63,0.103-1.946-0.143c-0.315-0.246-0.07-5.47-3.943-9.059C788.979,651.251,788.65,650.324,787.638,650.041z          " class="colorcc8b70 svgShape"/><path fill="#2e3247" d="M794.092,659.02c0,0,0,2.766-2.028,4.111c-0.708,0.47-1.583-0.331-1.387-1.345          c0.084-0.436-0.329-2.224-0.137-2.716C790.732,658.579,793.82,658.872,794.092,659.02z" class="color2e2e47 svgShape"/><path fill="#2e3247" d="M781.697 650.876c0 0 2.477 2.601 5.339 4.578 2.861 1.977 3.746 5.567 5.046 6.087 1.301.52 2.987-1.811 3.121-3.075.134-1.263-4.668-6.941-6.888-8.677C784.255 646.615 780.032 649.575 781.697 650.876zM761.583 754.886c-.008 0-.015 0-.023-.001l-12.224-1.14c-.133-.013-.23-.13-.218-.262.012-.133.133-.231.262-.218l12.224 1.14c.133.012.23.13.218.262C761.811 754.792 761.706 754.886 761.583 754.886z" class="color2e2e47 svgShape"/><path fill="#ffffff" d="M781.186,696.522c-2.841-0.242-3.826-2.112-4.1-3.922           c-4.124,19.995-10.833,54.55-13.519,65.587c-0.851,3.496-1.218,6.438-1.276,8.903c5.322,1.206,10.889,2.271,16.184,3.186           c0.624-15.821,2.216-52.678,3.681-57.453c0.867-2.825,2.859-10.51,4.627-18.054           C785.247,695.873,783.342,696.706,781.186,696.522z" class="colorfff svgShape"/><path fill="#cc8070" d="M789.917,676.891c-1.24-1.04-7.413-0.347-7.413-0.347s-0.967-0.069-2.079,1.387           c-0.329,0.431-1.606,6.263-3.339,14.668c0.274,1.81,1.259,3.679,4.1,3.922c2.156,0.184,4.061-0.649,5.598-1.753           C788.835,686.014,790.583,677.45,789.917,676.891z" class="colorcc8b70 svgShape"/><path fill="#2e3247" d="M761.131 759.074c-.012 0-.024-.001-.037-.003l-11.918-1.822c-.132-.02-.222-.143-.202-.275.02-.132.141-.224.275-.202l11.918 1.822c.131.02.222.143.202.275C761.351 758.989 761.248 759.074 761.131 759.074zM751.979 712.298l-2.124-5c-.052-.122.005-.264.128-.316.121-.052.264.005.316.128l1.412 3.324.589-5.061c.016-.132.136-.227.267-.211.132.015.227.135.211.267L751.979 712.298z" class="color2e2e47 svgShape"/><path fill="#2e3247" d="M750.077 736.458c-.006 0-.012 0-.017-.001-.133-.009-.233-.125-.223-.257l1.768-24.851c.009-.133.122-.233.257-.223.133.009.233.125.223.257l-1.768 24.851C750.308 736.361 750.202 736.458 750.077 736.458zM778.698 781.047c-.349 0-.648-.12-.895-.359-1.796-1.742.205-9.586.439-10.474.034-.129.166-.205.294-.172.129.034.205.166.172.294-.616 2.339-1.919 8.696-.57 10.006.236.229.552.28.967.157.934-.277 2.674-.849 4.878-1.574 6.62-2.178 16.619-5.471 18.473-5.229 2.363.306 6.601.825 6.643.83.132.016.226.136.21.268-.016.132-.137.225-.268.21-.043-.005-4.281-.524-6.647-.83-1.727-.227-12.08 3.176-18.26 5.209-2.207.726-3.951 1.299-4.892 1.578C779.05 781.019 778.868 781.047 778.698 781.047zM796.781 688.367c.016-.024.036-.046.06-.063.108-.078.258-.055.337.053.347.477 8.509 11.738 9.806 17.367.03.13-.051.259-.181.289-.13.03-.259-.051-.289-.181-1.274-5.534-9.642-17.076-9.726-17.192C796.728 688.557 796.728 688.448 796.781 688.367zM800.579 687.363c.013-.02.029-.038.047-.053.102-.086.254-.072.339.03.107.127 10.689 12.77 12.582 15.479.076.109.049.259-.059.336-.109.076-.259.049-.335-.06-1.881-2.692-12.45-15.319-12.557-15.446C800.527 687.565 800.523 687.449 800.579 687.363zM796.828 727.984c-.687 0-1.4-.122-2.137-.366-2.068-.685-3.58-2.006-4.494-3.925-2.694-5.655.61-14.534.752-14.91l.073-.193 15.293 3.208-.022.215c-.048.476-1.235 11.699-6.399 15.047C798.946 727.676 797.92 727.984 796.828 727.984zM791.33 709.147c-.471 1.341-3.091 9.318-.698 14.339.855 1.795 2.272 3.031 4.21 3.674 1.762.584 3.373.414 4.789-.504 4.59-2.975 5.965-12.887 6.157-14.476L791.33 709.147zM782.057 721.318c-.126 0-.232-.098-.24-.226-.171-2.798 1.389-10.797 2.574-14.108.439-1.227 2.426-5.044 4.727-9.464 3.252-6.247 8.166-15.688 7.864-16.596-.048-.137-.124-.173-.192-.19-.795-.199-3.171 1.633-4.481 2.836l-.347-.333c1.392-1.64 4.935-6.293 4.618-8.109-.044-.252-.162-.43-.362-.545-2.222-1.278-7.319-.211-7.37-.2-.131.027-.258-.055-.286-.185-.028-.13.055-.258.185-.286.217-.046 5.331-1.115 7.711.254.327.188.527.484.597.88.278 1.594-1.789 4.694-3.28 6.68 1.094-.824 2.41-1.641 3.132-1.458.255.064.438.237.53.499.351 1.01-3.049 7.673-7.892 16.977-2.293 4.404-4.273 8.208-4.701 9.404-1.146 3.199-2.711 11.221-2.547 13.916.008.133-.093.247-.226.255C782.067 721.318 782.062 721.318 782.057 721.318zM769.117 724.032c-.019 0-.038-.002-.057-.007-.129-.032-.208-.162-.177-.291.018-.071 1.741-7.13 2.493-11.92.429-2.727.213-10.469.039-16.69-.157-5.625-.243-9.107-.03-9.774.098-.308.264-.487.493-.531.53-.102 1.119.572 2.031 1.682.436.53.884 1.075 1.265 1.395-.058-.133-.126-.282-.19-.423-.593-1.298-1.696-3.714-1.388-6.172.499-3.993 8.217-6.416 8.546-6.517.128-.039.262.032.301.159.039.127-.032.262-.159.301-.077.024-7.749 2.431-8.21 6.117-.29 2.323.776 4.658 1.349 5.913.366.802.489 1.072.276 1.26-.188.165-.434.012-.553-.062-.489-.303-1.058-.995-1.608-1.664-.513-.624-1.292-1.572-1.568-1.514-.029.006-.08.062-.125.203-.198.623-.076 4.99.053 9.614.183 6.566.391 14.008-.044 16.778-.756 4.81-2.484 11.889-2.501 11.96C769.324 723.958 769.225 724.032 769.117 724.032zM770.685 797.362c-.12 0-.223-.089-.239-.211-.017-.132.077-.253.209-.269l21.426-2.726c.134-.016.253.077.269.209.017.132-.077.253-.209.269l-21.426 2.726C770.705 797.362 770.695 797.362 770.685 797.362z" class="color2e2e47 svgShape"/><g fill="#000000" class="color000 svgShape"><path fill="#2e3247" d="M769.116,797.362c-0.032,0-0.065-0.006-0.096-0.02c-3.05-1.329-7.698-3.288-9.636-3.965          c1.736,1.353,4.556,3.555,4.556,3.555l-0.296,0.38c0,0-3.624-2.83-5.185-4.043c-0.089-0.07-0.327-0.255-0.195-0.477          c0.146-0.245,0.232-0.393,5.698,1.876c2.607,1.083,5.224,2.222,5.25,2.233c0.122,0.053,0.178,0.195,0.125,0.317          C769.298,797.308,769.209,797.362,769.116,797.362z" class="color2e2e47 svgShape"/></g><g fill="#000000" class="color000 svgShape"><path fill="#2e3247" d="M790.03,798.798h-16.752c-0.133,0-0.241-0.108-0.241-0.241s0.108-0.241,0.241-0.241h16.752          c0.133,0,0.241,0.108,0.241,0.241S790.163,798.798,790.03,798.798z" class="color2e2e47 svgShape"/></g><g fill="#000000" class="color000 svgShape"><path fill="#2e3247" d="M818.625,732.398c0.155-0.238,0.415-0.637,7.776,1.045c3.561,0.814,7.105,1.737,7.14,1.747          c0.129,0.034,0.206,0.165,0.172,0.294c-0.034,0.129-0.165,0.206-0.294,0.172c-6.15-1.604-12.979-3.134-14.259-3.001          c1.332,1.207,9.351,4.397,12.437,5.566c0.124,0.047,0.187,0.186,0.14,0.311c-0.047,0.124-0.186,0.187-0.31,0.14          c-0.474-0.18-11.629-4.414-12.75-5.823C818.507,732.633,818.584,732.461,818.625,732.398z" class="color2e2e47 svgShape"/></g></g></g><g fill="#000000" class="color000 svgShape"><rect width="134.555" height="254.72" x="610.898" y="437.402" fill="#2e3247" class="color2e2e47 svgShape"/><path fill="#8490ce" d="M699.152,553.517c0.192-0.856,0.315-1.41,0.315-1.41         C699.287,552.431,699.189,552.924,699.152,553.517z" class="color84ceca svgShape"/><path fill="#ffcb82" d="M707.289,545.849c-1.564-1.825-7.301,0.521-7.822,6.257c-0.128,1.408,0.059,3.745,0.413,6.467         c0.982,3.349,2.871,6.686,5.323,6.83c4.433,0.261,4.171-6.518,4.171-9.647c0-1.056,0.51-2.176,1.179-3.452         C709.43,549.685,708.088,546.782,707.289,545.849z" class="colorffa982 svgShape"/><path fill="#8490ce" d="M699.467,552.107c0,0-0.124,0.554-0.315,1.41c-0.081,1.325,0.18,3.187,0.728,5.056         C699.526,555.852,699.339,553.515,699.467,552.107z" class="color84ceca svgShape"/><path fill="#8490ce" d="M706.507,495.79c-1.826-6.779-5.997-15.904-10.168-20.076        c-0.404-0.404-0.807-0.713-1.212-0.982c-1.376,3.622-2.961,8.62-2.961,12.454c0,6.779,1.826,13.818,3.651,20.597        c1.825,6.779,2.086,17.729,3.13,24.247c1.044,6.518-0.205,23.309-0.205,23.309v0c0.155-0.688,0.296-1.316,0.409-1.823        c0.037-0.593,0.135-1.086,0.315-1.41c0.521-5.736,6.258-8.083,7.822-6.257c0.799,0.932,2.141,3.836,3.264,6.456        c1.314-2.502,3.254-5.616,3.254-10.106C713.807,535.42,708.332,502.569,706.507,495.79z" class="color84ceca svgShape"/><path fill="#767fad" d="M649.929,516.909c0.261-6.779,1.27-19.815-0.017-22.683c-0.8-1.785-2.518-8.901-3.699-14.02        c-0.611,0.711-1.108,1.472-1.39,2.287c-1.716,4.954,0.674,20.337,0.413,28.419c-0.26,8.083-0.782,33.112,0,37.805        c0.782,4.693,2.608,9.908,4.172,15.122c0.373,1.244,1.033,2.396,1.818,3.448c0.48-4.026,0.936-7.832,1.049-8.714        C652.537,556.539,649.668,523.688,649.929,516.909z" class="color82a7af svgShape"/><path fill="#8490ce" d="M698.743,555.34c0,0,1.249-16.791,0.205-23.309c-1.044-6.518-1.305-17.469-3.13-24.247        c-1.825-6.779-3.651-13.818-3.651-20.597c0-3.834,1.584-8.832,2.961-12.454c-3.77-2.51-7.561,0.116-11.565-5.536        c-4.432-6.258-22.422-3.65-23.465-1.304c-1.043,2.346-4.432,6.518-4.432,6.518s-6.355,2.189-9.453,5.795        c1.182,5.119,2.899,12.234,3.699,14.02c1.287,2.868,0.278,15.904,0.017,22.683c-0.261,6.779,2.608,39.63,2.346,41.665        c-0.113,0.882-0.569,4.688-1.049,8.714c2.505,3.357,6.326,5.666,6.525,6.46c0,0,3.453-6.504,4.008-8.336        c0.555-1.832,8.524-31.164,8.841-29.73c0.318,1.434,3.447,27.391,4.88,29.73c1.434,2.339,15.904-1.963,18.121-2.615        c1.089-0.32,2.441-0.45,3.537-0.501C697.644,560.179,698.267,557.444,698.743,555.34L698.743,555.34z" class="color84ceca svgShape"/><path fill="#8490ce" d="M675.48,565.411c-1.434-2.339-4.562-28.296-4.88-29.73c-0.318-1.434-8.286,27.898-8.841,29.73        c-0.555,1.832-4.008,8.336-4.008,8.336c0.261,1.043,7.822,59.706,7.301,64.139c-0.522,4.432,4.432,13.036,5.214,13.818        c0.782,0.782-1.825,15.383-2.607,17.99c-0.782,2.607,2.346,1.825,5.475,2.607c3.129,0.782,7.04-1.043,8.082-3.65        c1.044-2.607-2.346-16.686-2.346-16.686s2.608,2.607,4.172,1.825c1.565-0.782,1.043-14.601,0.521-17.729        c-0.521-3.129-1.043-8.343-1.043-8.343s4.953-2.086,5.736-2.868c0.782-0.782,2.608-20.076,3.129-25.03        c0.522-4.954,4.433-32.852,4.954-34.409c0.143-0.426,0.442-1.617,0.8-3.116c-1.097,0.051-2.449,0.181-3.537,0.501        C691.384,563.448,676.914,567.75,675.48,565.411z M676.979,619.896c-1.37-0.261-1.499-6.258-0.977-9.908        c0.521-3.65-2.608-26.072-1.043-28.68c1.564-2.607,4.482,18.512,4.482,18.512        C680.776,608.287,678.349,620.156,676.979,619.896z" class="color84ceca svgShape"/><g fill="#000000" class="color000 svgShape"><path fill="#ffffff" d="M676.002,546.762c0-1.564-3.39-28.172-2.477-34.944c0.913-6.772,9.255-24.632,10.69-27.109        c1.434-2.477,1.303-5.997,0-7.561c-1.304-1.564-3.911-7.754-5.997-8.635c-2.086-0.881-5.736-2.194-13.557,0.027        c0,0-4.563-0.786-5.475,6.193c-0.913,6.979,3.65,23.535,4.823,27.185c1.173,3.65,4.172,20.206,4.172,20.598        c0,0.391-1.434,13.036-2.086,15.122c-0.568,1.816-9.038,25.662-11.306,33.351c1.552,1.349,2.85,2.307,2.963,2.76        c0,0,3.453-6.504,4.008-8.336c0.555-1.832,8.524-31.164,8.841-29.73c0.318,1.434,3.447,27.391,4.88,29.73        c0.404,0.659,1.862,0.78,3.77,0.615C678.177,559.581,676.002,547.91,676.002,546.762z" class="colorfff svgShape"/></g><g fill="#000000" class="color000 svgShape"><path fill="#8490ce" d="M664.53,470.5c0,0-4.432,2.607-2.086,8.343c2.346,5.736,4.954,36.763,7.822,32.591        c2.868-4.172,8.608-24.769,8.737-31.548c0.128-6.779,1.432-6.518-1.176-9.386C675.22,467.632,668.702,468.153,664.53,470.5z" class="color84ceca svgShape"/></g></g><g fill="#000000" class="color000 svgShape"><rect width="19.626" height="24.101" x="933.015" y="432.928" fill="#ff8066" class="colorfa634b svgShape"/></g><g fill="#000000" class="color000 svgShape"><rect width="33.242" height="752.642" x="1950.368" y="1169.23" fill="#2e3247" class="color2e2e47 svgShape"/><path fill="#ffe3bd" d="M1904.376,596.011c0,0,16.334-8.167,48.186-8.167c31.852,0,42.469,8.167,42.469,8.167         s2.45,20.418,26.135,29.402c23.685,8.984,123.735,23.685,131.902,36.752c8.167,13.067,6.534,47.032,4.083,65.576         c-2.45,18.545-33.485,99.864-29.402,160.775c1.308,19.503,1.245,195.825,1.245,195.825s41.377,68.673,16.253,162.474         c-2.185,8.156-151.85,29.502-190.235,29.51s-107.429-5.011-128.734-14.693c-63.285-28.758-23.464-173.189-23.464-173.189         s-8.913-177.404-10.209-199.928c-1.487-25.838-43.081-104.854-47.982-142.786c-4.9-37.932-4.237-72.132,7.963-95.402         c6.161-11.752,129.739-20.832,140.356-30.633C1903.559,609.896,1904.376,596.011,1904.376,596.011z" class="colorffe2bd svgShape"/><path fill="#2e3247" d="M1996.155,1241.994c-0.585,0-1.075-0.457-1.108-1.049         c-0.116-2.064-11.565-207.005-9.582-259.538c0.546-14.468,1.952-33.864,3.581-56.322         c4.326-59.631,9.709-133.845,2.455-165.762c-9.893-43.525-36.567-128.277-36.836-129.128         c-0.185-0.585,0.141-1.21,0.726-1.394c0.587-0.184,1.21,0.141,1.395,0.726c0.268,0.852,26.971,85.691,36.884,129.304         c7.326,32.24,1.931,106.637-2.406,166.416c-1.628,22.437-3.033,41.815-3.578,56.244c-1.978,52.43,9.465,257.266,9.58,259.329         c0.035,0.613-0.434,1.137-1.047,1.172C1996.197,1241.994,1996.176,1241.994,1996.155,1241.994z" class="color2e2e47 svgShape"/><path fill="#2e3247" d="M1972.722 807.536c-83.311 0-163.792-8.145-165.178-8.288-.611-.063-1.055-.609-.992-1.219.064-.61.601-1.053 1.22-.991 2.389.247 239.852 24.273 320.784-10.6.558-.241 1.218.016 1.46.581.243.563-.016 1.217-.581 1.46C2095.173 803.243 2033.198 807.536 1972.722 807.536zM1765.806 773.518c-4.27 0-7.911-.922-10.974-2.763-6.01-3.614-9.532-10.593-10.767-21.338-.071-.61.367-1.161.977-1.231.615-.072 1.16.368 1.231.977 1.151 10.013 4.326 16.453 9.706 19.687 6.197 3.725 15.698 3.124 28.235-1.792 7.969-3.125 14.613-13.758 18.709-29.941 6.635-26.212 5.352-64.208-7.132-78.993-18.19-21.539-38.834-10.257-39.704-9.766-.536.303-1.211.113-1.514-.42-.302-.534-.115-1.211.419-1.513.228-.129 23.093-12.711 42.496 10.266 12.926 15.306 14.36 54.225 7.59 80.973-4.277 16.896-11.398 28.07-20.052 31.464C1777.557 772.056 1771.183 773.518 1765.806 773.518zM1973.636 1837.364c0 0 56.83-4.786 80.16 32.901 23.33 37.687 13.16 80.16 25.125 98.106 6.306 9.458 19.757 15.926 31.069 19.928 12.073 4.271 21.658 13.628 26.047 25.658l2.905 7.963c2.809 7.697-2.891 15.844-11.084 15.844h-54.62c-13.936 0-26.716-7.746-33.15-20.108-7.376-14.171-15.812-32.839-16.8-45.695-1.795-23.33-21.535-71.187-49.651-71.785V1837.364zM1961.672 1837.364c0 0-56.83-4.786-80.16 32.901-23.33 37.687-13.161 80.16-25.125 98.106-6.306 9.458-19.756 15.926-31.069 19.928-12.073 4.271-21.658 13.628-26.047 25.658l-2.905 7.963c-2.809 7.697 2.891 15.844 11.084 15.844h54.62c13.936 0 26.716-7.746 33.15-20.108 7.376-14.171 15.811-32.839 16.8-45.695 1.795-23.33 21.536-71.187 49.651-71.785V1837.364z" class="color2e2e47 svgShape"/><path fill="#ffffff" d="M2134.967,653.004c0,0,12.374-3.069,14.544,2.269c2.17,5.338-0.926,20.558,0,28.893       c0.926,8.335,8.89,56.489,8.334,66.491c-0.556,10.001-1.667,18.706-1.667,24.633c0,5.927-12.039,21.114-19.262,28.152       c-7.223,7.038-9.446-115.201-9.075-123.72C2128.212,671.201,2134.967,653.004,2134.967,653.004z" class="colorfff svgShape"/><path fill="#767fad" d="M2135.435,1074.958c-1.111-11.113,1.111-226.697,2.222-237.81s7.093-30.952,10.557-55.748       c4.901-35.083-13.248-128.397-13.248-128.397s-92.263-31.632-108.962-25.98c0,0,3.304,198.456-22.255,257.353l-142.818-256.273       c0,0-83.323,7.907-98.88,12.352s-21.67,8.334-26.67,22.225c-5.001,13.891,11.668,98.05,17.78,134.314       c6.112,36.264,34.449,76.27,33.894,83.493c-0.556,7.223,5.001,173.633,2.222,199.054s-18.336,75.427-13.335,121.544h191.047       c0,0,34.539-201.174,39.54-261.719l31.115,258.386c0,0,92.234-2.735,135.574-16.092       C2173.218,1181.661,2136.546,1086.071,2135.435,1074.958z M1797.797,859.559c-24.448,1.111-24.077-32.967-33.338-66.676       c-9.26-33.708-29.993-120.752-16.298-133.351c13.695-12.599,35.931,1.852,35.931,1.852s19.261,32.597,22.225,55.193       C1809.28,739.173,1822.245,858.448,1797.797,859.559z" class="color82a7af svgShape"/><g fill="#000000" class="color000 svgShape"><path fill="#ffffff" d="M2033.158,876.147c-0.327,0-0.656-0.095-0.944-0.294c-0.758-0.522-0.949-1.56-0.428-2.318       c2.304-3.35,4.837-7.059,7.523-11.034c0.515-0.762,1.551-0.964,2.315-0.448c0.763,0.515,0.964,1.551,0.448,2.314       c-2.692,3.984-5.23,7.701-7.54,11.057C2034.209,875.895,2033.687,876.147,2033.158,876.147z M2056.061,841.886       c-0.31,0-0.625-0.086-0.905-0.267c-0.773-0.5-0.993-1.532-0.493-2.305c2.481-3.833,4.899-7.616,7.186-11.244       c0.49-0.78,1.521-1.01,2.298-0.521c0.779,0.491,1.012,1.52,0.521,2.299c-2.294,3.639-4.719,7.434-7.208,11.278       C2057.142,841.618,2056.607,841.886,2056.061,841.886z M2077.708,806.829c-0.284,0-0.572-0.073-0.834-0.225       c-0.797-0.462-1.068-1.482-0.607-2.278c2.368-4.084,4.56-7.991,6.516-11.611c0.435-0.811,1.45-1.113,2.258-0.674       c0.81,0.438,1.113,1.449,0.674,2.259c-1.971,3.649-4.179,7.585-6.563,11.699       C2078.842,806.531,2078.282,806.829,2077.708,806.829z M2095.86,769.893c-0.169,0-0.343-0.026-0.513-0.081       c-0.876-0.283-1.356-1.223-1.072-2.099c1.058-3.273,1.595-5.924,1.595-7.879c0-0.884-0.109-1.611-0.326-2.16       c-0.207-0.531-0.444-1.125-0.707-1.779c-0.344-0.854,0.069-1.825,0.924-2.169c0.86-0.343,1.826,0.071,2.169,0.924       c0.268,0.666,0.509,1.27,0.719,1.808c0.372,0.95,0.554,2.055,0.554,3.376c0,2.336-0.575,5.25-1.758,8.906       C2097.218,769.444,2096.564,769.893,2095.86,769.893z M2085.608,731.236c-0.648,0-1.264-0.38-1.534-1.014       c-1.666-3.907-3.429-8.035-5.251-12.286c-0.363-0.846,0.03-1.826,0.876-2.189c0.845-0.362,1.826,0.029,2.189,0.876       c1.822,4.253,3.588,8.383,5.253,12.292c0.361,0.846-0.032,1.826-0.88,2.187       C2086.048,731.193,2085.826,731.236,2085.608,731.236z M2069.357,693.369c-0.646,0-1.26-0.377-1.531-1.008       c-1.803-4.18-3.581-8.297-5.297-12.266c-0.366-0.845,0.024-1.826,0.869-2.191c0.842-0.366,1.825,0.024,2.191,0.869       c1.716,3.97,3.494,8.089,5.297,12.269c0.365,0.845-0.025,1.826-0.87,2.191C2069.801,693.326,2069.577,693.369,2069.357,693.369       z M2052.991,655.543c-0.645,0-1.258-0.376-1.53-1.004c-3.286-7.574-5.344-12.306-5.344-12.307       c-0.367-0.844,0.019-1.826,0.864-2.193c0.851-0.368,1.827,0.021,2.194,0.864c0,0,2.059,4.734,5.345,12.309       c0.367,0.845-0.021,1.826-0.866,2.193C2053.437,655.498,2053.212,655.543,2052.991,655.543z" class="colorfff svgShape"/></g><g fill="#000000" class="color000 svgShape"><path fill="#ffffff" d="M1987.112,881.243c-0.371,0-0.745-0.124-1.055-0.378c-2.894-2.371-6.389-5.237-10.343-8.488       c-0.712-0.584-0.814-1.635-0.23-2.346c0.585-0.711,1.633-0.814,2.346-0.229c3.955,3.25,7.447,6.115,10.339,8.485       c0.713,0.583,0.817,1.633,0.233,2.346C1988.073,881.035,1987.595,881.243,1987.112,881.243z M1955.29,855.038       c-0.374,0-0.751-0.125-1.062-0.383c-3.336-2.763-6.779-5.618-10.289-8.534c-0.708-0.589-0.805-1.639-0.216-2.347       c0.587-0.708,1.639-0.806,2.347-0.217c3.507,2.915,6.949,5.769,10.285,8.531c0.709,0.587,0.807,1.638,0.22,2.347       C1956.245,854.832,1955.77,855.038,1955.29,855.038z M1923.635,828.659c-0.378,0-0.759-0.128-1.07-0.39       c-3.434-2.881-6.853-5.761-10.227-8.612c-0.703-0.594-0.792-1.646-0.198-2.349c0.591-0.702,1.646-0.791,2.348-0.198       c3.372,2.849,6.789,5.726,10.218,8.605c0.705,0.592,0.798,1.643,0.206,2.348       C1924.583,828.457,1924.11,828.659,1923.635,828.659z M1892.228,801.982c-0.385,0-0.773-0.133-1.089-0.405       c-3.551-3.066-6.934-6.008-10.093-8.783c-0.691-0.608-0.76-1.661-0.152-2.353c0.608-0.691,1.66-0.759,2.353-0.152       c3.151,2.769,6.526,5.705,10.071,8.764c0.697,0.602,0.774,1.654,0.172,2.351       C1893.162,801.786,1892.696,801.982,1892.228,801.982z M1861.709,774.284c-0.464,0-0.926-0.193-1.254-0.569       c-2.518-2.874-5.019-6.756-7.437-11.538c-0.415-0.822-0.086-1.824,0.736-2.24c0.823-0.414,1.824-0.086,2.24,0.736       c2.291,4.533,4.636,8.182,6.968,10.846c0.607,0.692,0.537,1.746-0.155,2.352       C1862.49,774.148,1862.098,774.284,1861.709,774.284z M1844.578,737.124c-0.714,0-1.376-0.464-1.594-1.184       c-1.223-4.033-2.444-8.381-3.626-12.924c-0.232-0.891,0.302-1.801,1.193-2.033c0.891-0.231,1.801,0.303,2.033,1.193       c1.172,4.501,2.38,8.806,3.591,12.796c0.267,0.881-0.23,1.812-1.111,2.079C1844.901,737.101,1844.738,737.124,1844.578,737.124       z M1834.765,697.133c-0.777,0-1.472-0.546-1.632-1.337c-0.858-4.252-1.707-8.678-2.521-13.153       c-0.165-0.906,0.436-1.774,1.341-1.938c0.907-0.168,1.773,0.436,1.938,1.341c0.811,4.454,1.655,8.859,2.51,13.089       c0.182,0.902-0.401,1.782-1.304,1.964C1834.986,697.122,1834.875,697.133,1834.765,697.133z M1827.754,656.527       c-0.814,0-1.526-0.597-1.647-1.426c-1.187-8.136-1.806-13.285-1.812-13.336c-0.11-0.914,0.543-1.743,1.456-1.853       c0.921-0.112,1.745,0.542,1.854,1.457c0.007,0.05,0.621,5.16,1.802,13.25c0.132,0.911-0.498,1.758-1.409,1.891       C1827.915,656.522,1827.834,656.527,1827.754,656.527z" class="colorfff svgShape"/></g><g fill="#000000" class="color000 svgShape"><path fill="#ffffff" d="M2070.009,1175.91c-0.918,0-1.664-0.742-1.667-1.661c-0.003-0.921,0.74-1.67,1.662-1.673       c4.493-0.016,8.969-0.084,13.305-0.203c0.877-0.054,1.687,0.701,1.711,1.621c0.026,0.92-0.7,1.687-1.62,1.712       c-4.363,0.119-8.865,0.188-13.385,0.203C2070.014,1175.91,2070.011,1175.91,2070.009,1175.91z M2111.103,1174.077       c-0.847,0-1.573-0.645-1.657-1.506c-0.089-0.916,0.582-1.731,1.499-1.82c4.721-0.457,9.144-1.004,13.149-1.625       c0.913-0.136,1.762,0.483,1.902,1.392c0.141,0.91-0.482,1.762-1.392,1.903c-4.066,0.63-8.554,1.185-13.337,1.649       C2111.212,1174.074,2111.157,1174.077,2111.103,1174.077z M2052.32,1164.572c-0.843,0-1.567-0.638-1.656-1.495       c-0.451-4.362-0.943-8.818-1.463-13.247c-0.106-0.914,0.548-1.743,1.462-1.85c0.914-0.106,1.743,0.547,1.85,1.461       c0.521,4.444,1.015,8.916,1.467,13.293c0.094,0.916-0.571,1.735-1.487,1.83       C2052.435,1164.569,2052.378,1164.572,2052.32,1164.572z M2047.223,1123.735c-0.814,0-1.526-0.596-1.647-1.425       c-0.65-4.432-1.336-8.86-2.037-13.163c-0.148-0.908,0.469-1.765,1.377-1.913c0.903-0.147,1.765,0.468,1.913,1.377       c0.704,4.32,1.392,8.766,2.046,13.215c0.134,0.911-0.497,1.758-1.408,1.891       C2047.385,1123.73,2047.303,1123.735,2047.223,1123.735z M2040.164,1083.205c-0.773,0-1.467-0.542-1.63-1.329l-0.484-2.314       c-0.667-3.159-1.302-6.833-1.888-10.92c-0.131-0.911,0.501-1.756,1.413-1.887c0.901-0.13,1.756,0.501,1.886,1.413       c0.576,4.015,1.199,7.617,1.851,10.705l0.486,2.326c0.187,0.901-0.392,1.784-1.294,1.971       C2040.391,1083.194,2040.277,1083.205,2040.164,1083.205z M2034.962,1042.414c-0.864,0-1.594-0.667-1.66-1.543       c-0.312-4.189-0.608-8.679-0.877-13.346c-0.053-0.919,0.649-1.707,1.567-1.76c0.961-0.061,1.706,0.65,1.76,1.568       c0.269,4.649,0.563,9.12,0.875,13.29c0.068,0.918-0.621,1.718-1.539,1.786       C2035.047,1042.412,2035.005,1042.414,2034.962,1042.414z M2032.841,1001.316c-0.894,0-1.634-0.709-1.665-1.61       c-0.152-4.465-0.283-8.93-0.397-13.358c-0.024-0.92,0.702-1.685,1.622-1.709c0.917-0.041,1.686,0.703,1.709,1.623       c0.114,4.417,0.245,8.874,0.397,13.329c0.031,0.92-0.689,1.691-1.609,1.723       C2032.879,1001.315,2032.86,1001.316,2032.841,1001.316z M2031.929,960.169c-0.912,0-1.656-0.733-1.667-1.647       c-0.054-4.631-0.093-9.102-0.12-13.357c-0.005-0.921,0.736-1.672,1.656-1.678c0.004,0,0.008,0,0.011,0       c0.916,0,1.661,0.739,1.667,1.656c0.027,4.25,0.066,8.716,0.12,13.34c0.011,0.921-0.727,1.676-1.647,1.686       C2031.942,960.169,2031.936,960.169,2031.929,960.169z M2031.789,919.018c-0.002,0-0.005,0-0.009,0       c-0.92-0.004-1.663-0.755-1.658-1.675c0.041-8.367,0.113-13.357,0.113-13.357c0.013-0.912,0.758-1.643,1.667-1.643       c0.008,0,0.016,0,0.024,0c0.92,0.014,1.656,0.771,1.643,1.691c0,0.004-0.072,4.982-0.113,13.325       C2033.452,918.277,2032.706,919.018,2031.789,919.018z" class="colorfff svgShape"/></g><g fill="#000000" class="color000 svgShape"><path fill="#ffffff" d="M1836.713,1180.24c-0.92,0-1.667-0.746-1.667-1.666c0-0.921,0.745-1.668,1.667-1.668       c4.278-0.001,8.754-0.006,13.348-0.016c0.001,0,0.002,0,0.003,0c0.919,0,1.665,0.744,1.667,1.663       c0.002,0.921-0.742,1.668-1.664,1.671C1845.472,1180.234,1840.993,1180.239,1836.713,1180.24z M1808.923,1180.202       c-0.002,0-0.003,0-0.005,0c-7.171-0.022-11.5-0.044-11.5-0.044c-0.92-0.005-1.663-0.755-1.658-1.676       c0.004-0.918,0.75-1.658,1.667-1.658c0.003,0,0.005,0,0.009,0c0.001,0,4.328,0.023,11.493,0.045       c0.92,0.003,1.665,0.751,1.661,1.672C1810.587,1179.459,1809.841,1180.202,1808.923,1180.202z M1877.876,1180.102       c-0.916,0-1.66-0.738-1.667-1.655c-0.006-0.921,0.735-1.672,1.655-1.678c4.509-0.031,8.98-0.069,13.345-0.116       c0.869-0.009,1.674,0.729,1.684,1.65c0.01,0.92-0.729,1.675-1.65,1.684c-4.369,0.046-8.844,0.085-13.356,0.116       C1877.884,1180.102,1877.88,1180.102,1877.876,1180.102z M1919.039,1179.528c-0.901,0-1.643-0.719-1.666-1.625       c-0.023-0.92,0.704-1.685,1.625-1.708c5.251-0.132,9.731-0.283,13.313-0.45c0.918-0.046,1.7,0.669,1.742,1.588       c0.043,0.92-0.667,1.7-1.588,1.743c-3.605,0.168-8.109,0.32-13.384,0.452       C1919.067,1179.528,1919.053,1179.528,1919.039,1179.528z M1949.134,1162.598c-0.132,0-0.267-0.016-0.403-0.05       c-0.893-0.221-1.438-1.125-1.216-2.019c0.921-3.717,1.915-8.08,2.955-12.968c0.19-0.901,1.08-1.477,1.976-1.284       c0.901,0.192,1.476,1.077,1.284,1.977c-1.046,4.924-2.049,9.324-2.979,13.076       C1950.563,1162.09,1949.882,1162.598,1949.134,1162.598z M1957.394,1122.269c-0.098,0-0.197-0.009-0.296-0.026       c-0.906-0.162-1.508-1.028-1.347-1.934c0.766-4.281,1.53-8.701,2.272-13.136c0.152-0.908,1.016-1.523,1.919-1.369       c0.908,0.152,1.521,1.011,1.37,1.919c-0.745,4.447-1.511,8.879-2.279,13.173       C1958.889,1121.702,1958.187,1122.269,1957.394,1122.269z M1963.959,1081.626c-0.079,0-0.159-0.005-0.24-0.017       c-0.91-0.131-1.543-0.976-1.412-1.888c0.654-4.547,1.265-8.989,1.816-13.204c0.118-0.912,0.943-1.562,1.869-1.437       c0.913,0.119,1.556,0.956,1.437,1.869c-0.552,4.229-1.166,8.686-1.822,13.247       C1965.487,1081.027,1964.774,1081.626,1963.959,1081.626z M1969.336,1040.805c-0.078,0-0.156-0.005-0.235-0.016       c-0.911-0.129-1.545-0.972-1.417-1.883c0.595-4.213,1.241-8.645,1.929-13.232c0.136-0.911,0.982-1.54,1.896-1.401       c0.911,0.136,1.538,0.985,1.401,1.895c-0.686,4.577-1.333,9-1.925,13.204       C1970.867,1040.203,1970.153,1040.805,1969.336,1040.805z M1975.549,1000.094c-0.088,0-0.178-0.006-0.267-0.021       c-0.909-0.147-1.527-1.002-1.38-1.911c0.707-4.385,1.424-8.796,2.145-13.188c0.15-0.909,1.007-1.525,1.916-1.374       c0.908,0.149,1.524,1.007,1.375,1.915c-0.722,4.388-1.439,8.796-2.146,13.178       C1977.061,999.511,1976.353,1000.094,1975.549,1000.094z M1982.287,959.471c-0.093,0-0.187-0.008-0.281-0.024       c-0.908-0.154-1.518-1.015-1.364-1.923c0.774-4.553,1.529-8.964,2.254-13.17c0.157-0.907,1.025-1.514,1.926-1.359       c0.907,0.156,1.516,1.019,1.36,1.926c-0.725,4.203-1.48,8.611-2.254,13.162C1983.79,958.896,1983.085,959.471,1982.287,959.471       z M1989.326,918.876c-0.097,0-0.194-0.009-0.292-0.026c-0.907-0.16-1.512-1.025-1.352-1.932       c1.458-8.245,2.351-13.204,2.351-13.204c0.164-0.906,1.039-1.51,1.936-1.345c0.906,0.163,1.508,1.03,1.346,1.936       c-0.001,0.001-0.893,4.956-2.348,13.194C1990.822,918.307,1990.119,918.876,1989.326,918.876z" class="colorfff svgShape"/></g><g fill="#000000" class="color000 svgShape"><path fill="#ffffff" d="M2026.137,643.923c0,0,46.511,84.878,46.141,95.62c-0.371,10.742-63.399,129.899-63.399,129.899       S2025.929,674.986,2026.137,643.923z" class="colorfff svgShape"/></g><g fill="#000000" class="color000 svgShape"><path fill="#ffffff" d="M1864.897,635.219c0,0-14.871,67.653-11.907,76.543c2.963,8.89,144.631,161.616,144.631,161.616       L1864.897,635.219z" class="colorfff svgShape"/></g><g fill="#000000" class="color000 svgShape"><path fill="#ffffff" d="M1787.796,654.376c0,0-2.593-4.845-20.003-4.474c-17.41,0.37-20.928,4.61-26.022,7.038      c-5.093,2.428-10.65,7.409-11.02,16.299c-0.37,8.89,1.859,29.634,3.708,41.857c1.849,12.224,7.591,42.969,7.313,55.563      c-0.278,12.594,14.168,71.121,23.429,80.381c9.26,9.26,27.411,15.187,36.672,12.594c9.26-2.593-12.224-10.998-18.891-18.521      c-6.668-7.523-10.742-39.932-12.965-48.118s-23.703-74.893-23.335-85.064c0.369-10.171,2.221-32.396,4.073-42.027      C1752.606,660.273,1787.796,654.376,1787.796,654.376z" class="colorfff svgShape"/></g><g fill="#000000" class="color000 svgShape"><path fill="#ffffff" d="M1764.783,650.01c0,0,14.77,14.06,17.549,24.617c2.778,10.557,4.167,33.616,6.668,40.839      c2.5,7.223,7.192,13.03,8.334,25.281c1.143,12.251,0.833,31.47,1.111,46.711c0.278,15.241,7.527,41.634,5.708,51.079      c-1.819,9.446-13.487,17.225-11.264,19.725c2.222,2.5,11.151,4.039,11.151,4.039s11.074-12.095,14.686-37.376      c3.611-25.281-1.111-60.842-3.056-71.676c-1.945-10.835-4.809-23.892-7.683-40.283c-2.874-16.391-10.004-50.504-20.191-58.59      C1777.609,646.29,1764.783,650.01,1764.783,650.01z" class="colorfff svgShape"/></g></g><g fill="#000000" class="color000 svgShape"><path fill="#ff8066" d="M2233.415,1187.747v838.757c0,7.35,43.646,13.309,97.485,13.309s97.485-5.958,97.485-13.309       v-838.757H2233.415z" class="colorfa634b svgShape"/><ellipse cx="2330.9" cy="1187.747" fill="#ff8066" rx="97.485" ry="13.309" class="colorfa634b svgShape"/><path fill="#2e3247" d="M2366.927,1187.747c0,1.755-16.13,3.178-36.027,3.178s-36.027-1.423-36.027-3.178       s16.13-3.178,36.027-3.178S2366.927,1185.992,2366.927,1187.747z" class="color2e2e47 svgShape"/><path fill="#ffffff" d="M2330.9,1202.167c-26.089,0-50.622-1.388-69.083-3.908       c-29.513-4.029-29.513-8.909-29.513-10.512c0-0.614,0.497-1.111,1.111-1.111s1.111,0.498,1.111,1.111       c0,4.985,34.319,12.198,96.374,12.198c62.055,0,96.373-7.212,96.373-12.198c0-0.614,0.497-1.111,1.111-1.111       c0.615,0,1.111,0.498,1.111,1.111c0,1.603,0,6.483-29.513,10.512C2381.522,1200.78,2356.989,1202.167,2330.9,1202.167z" class="colorfff svgShape"/><path fill="#ffffff" d="M2428.384,1713.492c-0.544,0-1.019-0.398-1.098-0.952c-0.46-3.17-45.968-317.364-50.16-352.294       c-4.185-34.881-27.275-158.02-27.507-159.26c-0.114-0.603,0.283-1.184,0.887-1.297c0.616-0.113,1.185,0.285,1.297,0.887       c0.233,1.24,23.337,124.452,27.531,159.405c4.189,34.903,49.692,349.071,50.151,352.24c0.088,0.608-0.332,1.171-0.94,1.259       C2428.49,1713.489,2428.437,1713.492,2428.384,1713.492z" class="colorfff svgShape"/><polygon fill="#eae7e4" points="2334.079 1313.843 2406.134 1307.132 2412.844 1353.755 2337.611 1359.407" class="coloreae6e4 svgShape"/><g fill="#000000" class="color000 svgShape"><path fill="#767fad" d="M2202.602,1541.959v498.562c0,7.35,26.258,13.309,58.648,13.309s58.648-5.959,58.648-13.309        v-498.562H2202.602z" class="color82a7af svgShape"/><ellipse cx="2261.25" cy="1541.959" fill="#767fad" rx="58.648" ry="13.309" class="color82a7af svgShape"/><path fill="#2e3247" d="M2280.12,1541.959c0,1.785-8.448,3.233-18.87,3.233s-18.87-1.447-18.87-3.233        c0-1.786,8.448-3.233,18.87-3.233S2280.12,1540.174,2280.12,1541.959z" class="color2e2e47 svgShape"/><path fill="#2e3247" d="M2261.249,1556.38c-28.97,0-59.759-5.054-59.759-14.42c0-0.614,0.497-1.111,1.111-1.111        c0.614,0,1.111,0.497,1.111,1.111c0,5.769,23.629,12.198,57.536,12.198c33.907,0,57.537-6.429,57.537-12.198        c0-0.614,0.497-1.111,1.111-1.111c0.614,0,1.111,0.497,1.111,1.111C2321.009,1551.326,2290.219,1556.38,2261.249,1556.38z" class="color2e2e47 svgShape"/><path fill="#2e3247" d="M2319.896,1949.323c-0.546,0-1.022-0.403-1.099-0.958        c-0.277-1.986-27.659-199.007-30.182-233.959c-2.519-34.895-16.412-158.049-16.553-159.288c-0.069-0.61,0.37-1.16,0.98-1.23        c0.606-0.066,1.159,0.37,1.23,0.98c0.14,1.24,14.038,124.438,16.559,159.377c2.519,34.881,29.891,231.829,30.167,233.814        c0.085,0.608-0.34,1.169-0.948,1.253C2319.998,1949.32,2319.947,1949.323,2319.896,1949.323z" class="color2e2e47 svgShape"/><polygon fill="#eae7e4" points="2263.162 1743.371 2306.51 1736.66 2310.548 1783.283 2265.287 1788.935" class="coloreae6e4 svgShape"/><g fill="#000000" class="color000 svgShape"><path fill="#555f94" d="M2046.782,1435.466v668.039c0,7.35,43.646,13.309,97.485,13.309        c53.84,0,97.485-5.959,97.485-13.309v-668.039H2046.782z" class="color946255 svgShape"/><ellipse cx="2144.268" cy="1435.466" fill="#c96c59" rx="97.485" ry="13.309" class="colorc96b59 svgShape"/><path fill="#2e3247" d="M2180.295,1435.466c0,1.755-16.13,3.178-36.027,3.178c-19.897,0-36.027-1.423-36.027-3.178        s16.13-3.178,36.027-3.178C2164.165,1432.288,2180.295,1433.711,2180.295,1435.466z" class="color2e2e47 svgShape"/><path fill="#ffffff" d="M2144.267,1449.887c-26.088,0-50.621-1.388-69.083-3.909        c-29.514-4.03-29.514-8.909-29.514-10.511c0-0.614,0.497-1.111,1.111-1.111s1.111,0.497,1.111,1.111        c0,5.093,36.664,12.198,96.374,12.198c59.711,0,96.375-7.105,96.375-12.198c0-0.614,0.497-1.111,1.111-1.111        s1.111,0.497,1.111,1.111c0,1.603,0,6.482-29.513,10.511C2194.889,1448.499,2170.355,1449.887,2144.267,1449.887z" class="colorfff svgShape"/><path fill="#ffffff" d="M2241.753,1790.492c-0.473,0-0.912-0.304-1.06-0.778        c-0.459-1.464-45.997-146.732-50.199-181.75c-4.186-34.88-27.276-158.02-27.508-159.259c-0.114-0.604,0.283-1.184,0.887-1.297        c0.612-0.113,1.184,0.284,1.297,0.886c0.233,1.241,23.337,124.453,27.532,159.405c4.177,34.816,49.653,179.887,50.112,181.348        c0.183,0.586-0.142,1.21-0.727,1.393C2241.976,1790.476,2241.863,1790.492,2241.753,1790.492z" class="colorfff svgShape"/><polygon fill="#eae7e4" points="2147.447 1561.562 2219.501 1554.851 2226.212 1601.474 2150.979 1607.126" class="coloreae6e4 svgShape"/></g></g></g><g fill="#000000" class="color000 svgShape"><path fill="#ffe3bd" d="M1055.745 1531.651c0 0 48.087 527.7 62.548 523.144 4.493-1.415 13.421-.919 15.571-12.958 17.696-99.091-42.037-521.553-42.037-521.553L1055.745 1531.651zM970.049 1528.041c0 0-115.856 511.183-101.082 513.752 4.59.798 12.706 5.449 18.356-4.69 46.501-83.444 119.59-502.651 119.59-502.651L970.049 1528.041zM1345.708 1531.651c0 0 48.087 527.7 62.548 523.144 4.493-1.415 13.421-.919 15.571-12.958 17.696-99.091-42.037-521.553-42.037-521.553L1345.708 1531.651zM1260.012 1528.041c0 0-115.856 511.183-101.082 513.752 4.59.798 12.706 5.449 18.356-4.69 46.501-83.444 119.59-502.651 119.59-502.651L1260.012 1528.041z" class="colorffe2bd svgShape"/><path fill="#ffe3bd" d="M873.261,1210.09c0,0-3.67-239.833,131.075-275.886        c134.745-36.052,236.032,254.035,268.041,277.914c32.009,23.878,188.677,23.447,211.065,94.111        c22.388,70.665,27.051,193.863-89.141,228.223c-116.192,34.361-406.144,51.197-477.849-17.094        C844.747,1449.066,873.261,1210.09,873.261,1210.09z" class="colorffe2bd svgShape"/><rect width="58.338" height="812.609" x="812.125" y="1245.345" fill="#cc8070" class="colorcc8b70 svgShape"/><path fill="#cc8070" d="M1319.01,2022.4c8.149,9.631,55.829,70.565,73.847,67.139      c14.781-2.811,1.734-44.193-2.614-64.698c-1.536-3.459-2.843-6.491-3.836-8.923c-7.944-19.447,0-65.564,0-65.564      s-69.038-13.111-72.397,6.667c0,0-4.445,33.893-12.78,52.785c-0.411,0.932-0.783,1.918-1.136,2.931      C1304.711,2013.447,1313.293,2015.644,1319.01,2022.4z" class="colorcc8b70 svgShape"/><path fill="#c96c59" d="M1427.103,2101.485c-4.153-7.292-26.114-52.441-36.861-76.644      c4.348,20.506,17.395,61.887,2.614,64.698c-18.018,3.426-65.697-57.508-73.847-67.139c-5.717-6.756-14.299-8.953-18.917-9.664      c-6.798,19.518-3.13,52.989-3.217,59.856c-0.092,7.223,23.245,13.15,23.245,13.15l3.704-10.001c0,0,3.952,13.88,13.705,21.855      c19.903,16.273,55.724,33.447,73.714,36.426C1442.915,2139.268,1431.85,2109.819,1427.103,2101.485z" class="colorc96b59 svgShape"/><path fill="#2e3247" d="M1484.023,2063.992c0,0-3.784,15.135,0,18.649c3.784,3.514,108.111,52.705,119.193,51.353       c11.081-1.351,83.786-35.406,84.327-39.46c0.541-4.054-4.405-49.478-4.405-49.478L1484.023,2063.992z" class="color2e2e47 svgShape"/><path fill="#eae7e4" d="M1554.836,2030.478c0,0,123.787-1.034,128.112,13.267c4.325,14.301-65.586,50.519-79.281,52.14       c-13.695,1.622-121.214-23.256-119.644-31.893C1485.594,2055.355,1554.836,2030.478,1554.836,2030.478z" class="coloreae6e4 svgShape"/><path fill="#cc8070" d="M1523.123,2018.611c7.971,12.668,36.26,19.73,65.166,25.937       c15.825,3.398,28.76,1.353,37.236-1.193c-0.169-0.057-0.34-0.113-0.508-0.171c-12.997-4.464-30.214-13.015-45.385-35.155       c-15.171-22.14-18.472-65.263-18.472-65.263c-14.7-5.025-61.656-2.638-61.656-2.638s1.869,36.224-1.257,52.208       c-0.937,4.79-1.72,8.046-2.438,10.604C1505.989,2006.191,1518.631,2011.472,1523.123,2018.611z" class="colorcc8b70 svgShape"/><path fill="#c96c59" d="M1658.01,2059.737c-2.978-9.288-19.558-12.02-32.486-16.382       c-8.476,2.546-21.411,4.591-37.236,1.193c-28.905-6.207-57.194-13.268-65.166-25.937c-4.492-7.139-17.134-12.42-27.314-15.671       c-1.679,5.976-3.002,8.111-5.089,16.915c-2.98,12.571,1.144,30.331,1.144,30.331l2.049,20.602l38.36,5.285l0.448-10.463       c0,0,17.447,3.188,26.077,6.977c8.63,3.788,25.568,7.444,40.32,5.144C1613.869,2075.432,1661.026,2069.146,1658.01,2059.737z" class="colorc96b59 svgShape"/><path fill="#cc8070" d="M1308.644,864.635l265.838,212.029c0,0-35.383,74.654-77.22,67.887      c-158.189-25.586-226.785-99.686-226.785-99.686L1308.644,864.635z" class="colorcc8b70 svgShape"/><path fill="#2e3247" d="M1316.142,1314.38c15.821,10.396,60.273,21.392,112.155,41.394       c69.22,26.686,121.49,34.859,139.835,42.425c72.544,29.919,86.901,84.081,86.806,152.624       c-0.025,18.418,27.463,301.338-6.603,409.668c-15.433,0.045-151.117,41.855-181.481,15.396l21.341-427.462       c0,0-303.58-71.261-318.126-77.856c-19.784-8.97-33.643-27.487-36.817-48.975c-2.284-15.462-12.858-119.773-12.858-119.773       c-4.264-77.265,177.527-42.34,177.527-42.34S1300.82,1304.312,1316.142,1314.38z" class="color2e2e47 svgShape"/><path fill="#2e3247" d="M1005.021,1288.338c0,0,142.939-32.422,218.755-21.543c13.728,1.97,22.377,54.874,30.687,56.168       c43.661,6.8,202.425,107.514,231.746,126.104c66.274,42.018-10.511,426.647-31.625,531.105       c-17.041-7.575-155.612,3.305-179.185-19.681c13.409-40.362,76.054-409.742,76.054-409.742s-170.587,8.001-301.438-78.7       c-18.108-11.998-32.621-28.204-41.424-55.7C1002.701,1397.953,1005.021,1288.338,1005.021,1288.338z" class="color2e2e47 svgShape"/><path fill="#2e3247" d="M1325.738,933.702c0.029,7.982-19.487,102.343-17.36,122.631      c3.298,31.457,19.754,102.504,21.731,121.347c3.954,37.685,30.493,115.28,21.888,143.526      c-8.605,28.247-61.338,56.293-200.685,81.778c-65.474,11.975-180.998,2.732-180.998,2.732s-37.71-340.996,61.326-533.986      c30.969-60.35,116.405-80.76,183.206-61.331C1286.948,831.372,1325.452,855.847,1325.738,933.702z" class="color2e2e47 svgShape"/><rect width="58.338" height="812.609" x="1027.676" y="1349.626" fill="#cc8070" class="colorcc8b70 svgShape"/><rect width="58.338" height="812.609" x="1688.865" y="1245.345" fill="#cc8070" class="colorcc8b70 svgShape"/><rect width="58.338" height="812.609" x="1904.416" y="1349.626" fill="#cc8070" class="colorcc8b70 svgShape"/><path fill="#ffffff" d="M1471.743,1893.214c-0.061,0-0.124-0.006-0.186-0.015c-0.606-0.102-1.014-0.676-0.912-1.281      c0.316-1.871,31.658-187.741,39.86-250.764l0.558-4.281c9.289-71.267,19.819-152.044-12.742-181.438      c-21.304-19.232-172.025-103.987-173.546-104.84c-0.535-0.301-0.725-0.978-0.424-1.513c0.302-0.536,0.976-0.725,1.514-0.425      c6.214,3.492,152.458,85.731,173.945,105.129c33.428,30.176,22.818,111.566,13.457,183.375l-0.558,4.28      c-8.206,63.064-39.555,248.977-39.871,250.846C1472.745,1892.83,1472.275,1893.214,1471.743,1893.214z" class="colorfff svgShape"/><path fill="#cc8070" d="M1521.734 1050.029c0 0 173.45 59.323 183.912 101.4 10.462 42.076-177.266 38.151-224.347-14.552C1455.398 1107.883 1521.734 1050.029 1521.734 1050.029zM1092.868 842.983c-15.902-10.817-45.562 2.778-62.786 44.45-12.044 29.14-21.904 137.224 9.153 215.942 35.386-26.043 129.839-26.711 129.839-26.711s-20.595-57.037-34.873-114.776C1121.547 910.715 1116.74 859.222 1092.868 842.983z" class="colorcc8b70 svgShape"/><path fill="#cc8070" d="M1425.69,1122.465c-28.893-33.952-256.616-45.801-256.616-45.801s-94.454,0.668-129.839,26.711      c13.357,33.856,34.274,62.287,65.857,76.658C1210.106,1227.817,1454.583,1156.417,1425.69,1122.465z" class="colorcc8b70 svgShape"/><path fill="#cc8070" d="M1982.848,1396.048l-0.066-65.847c0-1.229-90.394,0.123-90.394,0.123l-146.931-105.349       c-1.607-1.152-3.429-1.759-5.283-1.759H890.95l-112.453-63.665c-0.747-0.423-1.672,0.117-1.672,0.975v67.305l0,0       c-0.116,1.758,0.481,3.596,1.988,4.676l235.315,168.72c1.607,1.152,3.429,1.759,5.283,1.759h959.745       C1982.287,1402.985,1983.863,1399.042,1982.848,1396.048z" class="colorcc8b70 svgShape"/><path fill="#ffcb82" d="M1019.411,1335.229h959.364c4.095,0,5.545-6.746,1.998-9.29l-235.315-168.719       c-1.607-1.152-3.429-1.759-5.283-1.759H780.81c-4.095,0-5.545,6.746-1.997,9.29l235.315,168.72       C1015.735,1334.623,1017.557,1335.229,1019.411,1335.229z" class="colorffa982 svgShape"/><path fill="#e5e5e5" d="M1231.271,913.349h5.863v-43.998c0-0.85-0.689-1.539-1.539-1.539h-2.785       c-0.85,0-1.539,0.689-1.539,1.539V913.349z" class="colore5e5e5 svgShape"/><path fill="#eae7e4" d="M1212.907,912.958h60.949c0,0,0.001,0,0.001,0h279.574c11.396,0,20.633,9.238,20.633,20.633       v55.392v22.769v33.996c0,9.99-8.098,18.088-18.088,18.088h-76.088c-7.657,0-14.485-4.822-17.046-12.038l-5.256-14.809       c-5.369-15.128-19.683-25.237-35.736-25.237H1312.74c-6.426,0-11.636,5.21-11.636,11.636v80.796       c4.739,14.91,18.769,47.195,51.362,46.927c0.729-0.006,1.459,0.027,2.193,0.021l188.203-1.548       c17.211-0.142,31.278,13.696,31.42,30.907l0.199,24.23c0.034,4.127-3.284,7.501-7.412,7.535l-276.74,2.277       c-0.694,0.117-1.405,0.18-2.131,0.18h-89.635c-7.098,0-12.906-5.807-12.906-12.905V940.207       C1185.658,925.22,1197.92,912.958,1212.907,912.958z" class="coloreae6e4 svgShape"/><path fill="#767fad" d="M1273.776,921.18h149.165c11.739,0,21.256,9.736,21.256,21.745v28.994       c0,12.01-9.517,21.745-21.256,21.745h-105.084c-11.739,0-21.256,9.736-21.256,21.745v144.206       c0,12.01-9.517,21.745-21.256,21.745h-1.569c-11.739,0-21.256-9.736-21.256-21.745v-216.69       C1252.52,930.916,1262.036,921.18,1273.776,921.18z" class="color82a7af svgShape"/><rect width="24.332" height="12.606" x="1221.597" y="905.141" fill="#eae7e4" class="coloreae6e4 svgShape"/><path fill="#2e3247" d="M1485.181,912.958l2.147,3.09c3.426,5.424,5.313,12.516,5.313,19.971v127.816h-2.549V936.02        c0-6.481-1.641-12.647-4.577-17.298l-4.006-5.764H1485.181z" class="color2e2e47 svgShape"/><path fill="#2e3247" d="M1499.156,936.02c0-6.481-1.641-12.647-4.577-17.298l-4.006-5.764h3.671l2.147,3.09        c3.426,5.424,5.313,12.516,5.313,19.971v127.816h-2.548V936.02z" class="color2e2e47 svgShape"/><rect width="17.198" height="74.266" x="1509.867" y="1063.836" fill="#ffffff" transform="rotate(-180 1518.466 1100.969)" class="colorfff svgShape"/><rect width="6.645" height="74.266" x="1509.867" y="1063.836" fill="#ffffff" transform="rotate(-180 1513.19 1100.969)" class="colorfff svgShape"/><path fill="#ffffff" d="M1534.223,1063.836v17.338c0,0.732-0.594,1.326-1.326,1.326h-28.862        c-0.732,0-1.326-0.594-1.326-1.326v-17.338H1534.223z" class="colorfff svgShape"/><rect width="15.355" height="5.038" x="1491.629" y="1074.145" fill="#ffffff" transform="rotate(-180 1499.307 1076.664)" class="colorfff svgShape"/><path fill="#ffffff" d="M1542.834 1141.565l3.394-3.307c.743-.724 1.163-1.718 1.163-2.757l0 0c0-2.125-1.723-3.849-3.849-3.849h-.877c-.982 0-1.926.375-2.64 1.048l-2.688 2.534c-1.953 1.841-4.536 2.867-7.22 2.867h-32.856c-1.781 0-3.225 1.444-3.225 3.225l0 0c0 1.781 1.444 3.225 3.225 3.225h38.228C1538.233 1144.551 1540.869 1143.48 1542.834 1141.565zM1486.87 1083.504l-.101-13.679 4.156-.09c3.048 0 5.52 3.102 5.52 6.93 0 3.827-2.471 6.929-5.52 6.929L1486.87 1083.504z" class="colorfff svgShape"/><path fill="#ffffff" d="M1486.819,1083.504c3.049,0,5.52-3.062,5.52-6.839c0-3.777-2.471-6.839-5.52-6.839         s-5.52,3.062-5.52,6.839C1481.3,1080.442,1483.771,1083.504,1486.819,1083.504z" class="colorfff svgShape"/><path fill="#555f94" d="M1402.353,1150.74c0,0,49.336-2.063,60.75-6.188c11.413-4.125,80.659-0.413,93.994,0.434      c13.335,0.847,143.98-6.902,160.937,5.755c16.957,12.657,175.497,131.932,190.313,145.267      c14.817,13.335,16.298,231.074,14.817,238.516c-1.482,7.442-160.021,0-160.021,0s-2.222-96.144-60.749-128.807      c-58.526-32.663-89.642-26.736-89.642-26.736s6.668-34.079-26.67-62.971C1552.744,1287.117,1402.353,1150.74,1402.353,1150.74z" class="color946255 svgShape"/><path fill="#ffffff" d="M1375.987,1562.568c-6.559,0-11.535-0.132-13.178-0.181c-0.613-0.02-1.096-0.532-1.078-1.145      c0.018-0.614,0.566-1.079,1.145-1.078c24.213,0.733,61.506-0.459,65.002-6.748c0.228-0.409,0.399-1.011-0.291-2.052      c-6.593-9.928-42.875-3.034-56.302,0.461c-0.517,0.132-1.048-0.114-1.278-0.588c-0.232-0.475-0.097-1.048,0.323-1.371      c0.286-0.219,28.707-22.087,29.901-35.006c0.181-1.964-0.296-3.546-1.46-4.837c-0.853-0.944-1.946-1.365-3.337-1.284      c-13.205,0.771-42.78,42.234-43.078,42.653c-0.356,0.499-1.049,0.619-1.55,0.263c-0.5-0.355-0.618-1.048-0.263-1.55      c1.238-1.745,30.501-42.753,44.761-43.586c2.074-0.112,3.802,0.557,5.116,2.014c1.581,1.753,2.262,3.95,2.023,6.531      c-1.01,10.938-18.78,26.769-26.86,33.443c12.791-2.893,46.59-9.317,53.855,1.627c1.262,1.901,0.905,3.421,0.382,4.36      C1425.923,1561.505,1394.598,1562.568,1375.987,1562.568z" class="colorfff svgShape"/><path fill="#2e3247" d="M1187.765,1032.508l-0.65-88.221l13.403-0.581c19.661,0,35.6,20.009,35.6,44.692       c0,24.682-15.939,44.692-35.6,44.692L1187.765,1032.508z" class="color2e2e47 svgShape"/><ellipse cx="1187.44" cy="988.397" fill="#767fad" rx="35.6" ry="44.111" class="color82a7af svgShape"/><rect width="35.817" height="39.451" x="1216.703" y="861.635" fill="#555f94" class="color946255 svgShape"/><path fill="#2e3247" d="M1371.377,2180.294c-15.571,0-45.528-1.322-80.255-9.596       c-39.983-9.526-71.891-25.275-92.274-45.548c-19.711-19.604-29.24-43.475-28.323-70.949       c1.91-57.249-9.282-131.409-21.13-209.924c-9.115-60.401-18.54-122.859-23.724-186.352       c-11.93-146.121-9.272-318.339,5.805-376.066c3.209-12.289,5.189-24.085,6.936-34.492c6.263-37.316,11.211-66.79,64.802-70.24       c3.715-0.227,6.911,2.574,7.15,6.285c0.239,3.709-2.575,6.91-6.285,7.149c-42.946,2.765-46.301,22.751-52.39,59.034       c-1.793,10.685-3.826,22.796-7.188,35.666c-14.763,56.526-17.242,226.684-5.413,371.569       c5.147,63.035,14.537,125.261,23.618,185.439c11.943,79.143,23.224,153.897,21.273,212.382       c-0.787,23.587,7.41,44.095,24.362,60.955c40.984,40.762,124.814,52.865,171.191,51.083       c12.389-0.481,30.264-0.757,50.961-1.077c71.848-1.109,192.101-2.965,221.492-17.317c8.226-4.016,12.759-8.851,13.471-14.369       c1.364-10.547-10.609-23.502-14.911-27.209c-2.816-2.427-3.131-6.676-0.704-9.493c2.427-2.814,6.675-3.131,9.493-0.705       c2.259,1.947,22,19.586,19.474,39.132c-1.329,10.289-8.367,18.613-20.915,24.74c-29.635,14.471-124.377,17.094-227.192,18.681       c-20.612,0.318-38.413,0.593-50.646,1.067C1378.107,2180.215,1375.167,2180.294,1371.377,2180.294z" class="color2e2e47 svgShape"/><path fill="#ffbf66" d="M1178.838,605.464c0.921,0.485,2.085,0.255,2.745-0.596c0.214-0.264,5.736-6.845,20.495-4.246       c14.854,2.615,18.79,17.951,18.828,18.106c0.288,1.173,1.473,1.89,2.645,1.601c1.173-0.288,1.89-1.472,1.602-2.645       c-0.184-0.745-4.682-18.266-22.317-21.369c-17.531-3.087-24.423,5.506-24.708,5.873c-0.74,0.954-0.566,2.328,0.388,3.067       C1178.619,605.336,1178.727,605.405,1178.838,605.464z" class="colorffc97d svgShape"/><path fill="#ffd08f" d="M1242.606,798.124c-5.122-13.719,2.318-40.853,9.232-47.641c1.55-1.523,4.042-1.5,5.565,0.051       c1.523,1.551,1.5,4.042-0.051,5.565c-4.678,4.594-11.452,28.343-7.372,39.272c1.35,3.617,3.362,4.195,4.967,4.294       c3.825,0.236,7.32-1.281,10.386-4.51c7.326-7.715,10.505-22.849,9.348-33.023c-1.017-8.943-3.737-11.157-4.673-11.254       c-2.034,0.223-3.925-1.161-4.298-3.205c-0.391-2.138,1.026-4.188,3.164-4.578c0.552-0.101,3.46-0.487,6.573,1.823       c3.766,2.795,6.14,8.287,7.055,16.324c1.343,11.803-2.217,29.599-11.461,39.333c-4.676,4.925-10.409,7.327-16.578,6.946       c-1.282-0.079-2.494-0.321-3.626-0.717C1247.105,805.498,1244.245,802.513,1242.606,798.124z M1270.274,750.84       c0.002,0,0.004-0.001,0.006-0.001C1270.277,750.839,1270.276,750.839,1270.274,750.84z M1270.28,750.839       c0.002-0.001,0.005-0.001,0.008-0.002C1270.286,750.838,1270.283,750.838,1270.28,750.839z" class="colorffea8f svgShape"/><path fill="#cc8070" d="M1177.726,723.359l-26.414,81.841c0,0,8.97,10.437,15.282,16.245      c3.777,3.475,16.995,82.885,25.549,82.379c5.743-0.339,7.316-79.074,10.258-82.379c2.206-2.477,9.557-9.612,9.557-9.612      s-4.716-33.202-4.102-46.083c1.217-25.559-7.19-31.667-12.202-37.959C1190.642,721.5,1178.947,719.034,1177.726,723.359z" class="colorcc8b70 svgShape"/><path fill="#2e3247" d="M1210.407,799.897c-1.161-9.583-2.555-22.763-2.602-31.128l-28.157-9.368      C1179.648,759.4,1183.173,793.401,1210.407,799.897z" class="color2e2e47 svgShape"/><path fill="#ffbf66" d="M1290.659,713.568l-6.554,19.472c0,0-3.151,20.915-28.001,20.038      c-24.85-0.877-70.627,4.872-75.927,0.38c-5.3-4.492-27.835-29.249-25.269-48.656      C1157.473,685.396,1278.911,627.06,1290.659,713.568z" class="colorffc97d svgShape"/><g fill="#000000" class="color000 svgShape"><path fill="#cc8070" d="M1172.165,729.841c0,0-6.559-0.786-10.866-7.479c-3.418-5.312-0.205-18.722,5.209-21.776      c5.414-3.054,10.932-1.504,12.273-1.518c1.341-0.014,3.479-24.326,14.404-36.432c10.925-12.106,28.315-21.647,50.644-14.299      c22.328,7.348,30.558,22.698,35.556,34.264c4.998,11.566,0.546,31.576-1.092,41.221c-1.638,9.644-0.125,13.031,0.319,18.554      c1.026,12.753,0.482,21.447-6.494,33.828c-6.976,12.381-24.319,21.949-46.317,16.017      C1203.804,786.289,1171.041,766.705,1172.165,729.841z" class="colorcc8b70 svgShape"/></g><g fill="#000000" class="color000 svgShape"><path fill="#2e3247" d="M1249.186,745.965c-3.131,0-6.996-1.621-10.839-5.692c-0.421-0.447-0.4-1.15,0.046-1.571      c0.447-0.422,1.149-0.401,1.571,0.045c4.951,5.247,9.799,5.824,12.212,4.143c2.461-1.716,2.595-5.587,0.35-10.1      c-4.868-9.79-3.142-20.739,0.955-26.071c2.242-2.917,5.133-4.185,8.123-3.577c1.789,0.364,14.621,4.052,18.865,9.616      c0.372,0.488,0.279,1.185-0.209,1.557c-0.488,0.373-1.187,0.278-1.557-0.209c-3.481-4.564-14.93-8.255-17.542-8.786      c-2.712-0.553-4.717,1.192-5.918,2.753c-3.737,4.865-5.032,15.071-0.727,23.727c3.312,6.661,1.619,11.038-1.07,12.914      C1252.31,745.506,1250.851,745.965,1249.186,745.965z" class="color2e2e47 svgShape"/></g><g fill="#000000" class="color000 svgShape"><path fill="#2e3247" d="M1243.345,702.195c-0.163,0-0.329-0.036-0.485-0.112c-0.103-0.05-10.394-4.995-20.487-4.383      c-0.603,0.044-1.138-0.429-1.176-1.042c-0.037-0.612,0.429-1.139,1.042-1.176c10.68-0.641,21.153,4.389,21.594,4.603      c0.552,0.269,0.781,0.933,0.513,1.485C1244.153,701.964,1243.757,702.195,1243.345,702.195z" class="color2e2e47 svgShape"/></g><g fill="#000000" class="color000 svgShape"><path fill="#2e3247" d="M1235.742,718.533c-0.441,0-0.84-0.262-1.016-0.663c-0.383-0.213-1.846-0.632-7.415-0.854      c-6.654-0.265-9.916-2.822-10.051-2.93c-0.48-0.384-0.557-1.083-0.172-1.562c0.382-0.477,1.079-0.555,1.557-0.176      c0.048,0.037,2.914,2.215,8.755,2.448c7.011,0.279,9.128,0.822,9.435,2.417c0.115,0.602-0.279,1.185-0.882,1.301      C1235.882,718.526,1235.811,718.533,1235.742,718.533z M1234.8,717.918h0.011H1234.8z" class="color2e2e47 svgShape"/></g><g fill="#000000" class="color000 svgShape"><path fill="#c96c59" d="M1226.335,727.392c0,0-14.35-3.25-17.402,3.511c-3.052,6.761,12.905,10.316,20.287,7.73      C1236.602,736.045,1229.924,727.958,1226.335,727.392z" class="colorc96b59 svgShape"/></g><g fill="#000000" class="color000 svgShape"><path fill="#c96c59" d="M1274.303,732.434c0,0-12.459-4.39-15.568,2.112c-3.109,6.502,10.749,11.325,17.42,9.334      C1282.826,741.889,1277.433,733.286,1274.303,732.434z" class="colorc96b59 svgShape"/></g><g fill="#000000" class="color000 svgShape"><path fill="#2e3247" d="M1231.142,722.253c-0.112,2.658-1.898,4.741-3.99,4.652c-2.091-0.088-3.696-2.314-3.584-4.972      s1.898-4.741,3.99-4.652C1229.649,717.37,1231.254,719.596,1231.142,722.253z" class="color2e2e47 svgShape"/></g><g fill="#000000" class="color000 svgShape"><path fill="#2e3247" d="M1272.602,722.169c-0.345,0-0.664-0.161-0.87-0.422c-0.307-0.02-0.845-0.013-1.368-0.008      c-1.067,0.014-2.531,0.031-4.589-0.07c-5.345-0.264-7.982-1.754-8.091-1.817c-0.532-0.307-0.714-0.986-0.407-1.518      c0.307-0.53,0.981-0.713,1.513-0.41l0,0c0.023,0.013,2.346,1.291,7.096,1.525c1.988,0.099,3.413,0.081,4.452,0.068      c1.817-0.02,3.145-0.038,3.365,1.369c0.094,0.607-0.32,1.175-0.927,1.27C1272.716,722.165,1272.659,722.169,1272.602,722.169z       M1271.505,721.229c0,0,0,0.001,0,0.002C1271.505,721.23,1271.505,721.23,1271.505,721.229z" class="color2e2e47 svgShape"/></g><g fill="#000000" class="color000 svgShape"><path fill="#2e3247" d="M1268.887,726.907c-0.091,2.658-1.533,4.74-3.222,4.652s-2.984-2.314-2.894-4.972      c0.09-2.658,1.533-4.74,3.221-4.652C1267.682,722.023,1268.978,724.249,1268.887,726.907z" class="color2e2e47 svgShape"/></g><g fill="#000000" class="color000 svgShape"><path fill="#ffffff" d="M1256.479,751.669c0,0-12.981,3.329-33.755-6.625c0,0,7.006,17.132,23.634,16.481      C1254.747,761.196,1256.479,751.669,1256.479,751.669z" class="colorfff svgShape"/></g><g fill="#000000" class="color000 svgShape"><path fill="#ffbf66" d="M1230.76,660.75c0,0,9.447,15.11,21.137,28.932c11.691,13.822,30.921,35.95,32.207,43.358      c0,0,29-36.064,14.948-71.642c-14.052-35.578-31.26-35.749-41.177-38.504c-9.917-2.754-17.985-12.299-25.348-11.926      c-7.363,0.372-9.08,12.071-11.029,20.93C1219.549,640.756,1221.296,650.573,1230.76,660.75z" class="colorffc97d svgShape"/></g><g fill="#000000" class="color000 svgShape"><path fill="#ffbf66" d="M1239.547,662.662c0,0-33.653,33.918-62.879,46.95c-24.541,10.943-39.224-3.714-39.224-3.714      s-0.209-8.007,4.915-19.332c18.009-39.802-0.803-57.253,26.874-71.006c19.364-9.622,48.09-21.695,58.168,5.61      C1237.477,648.473,1257.311,651.758,1239.547,662.662z" class="colorffc97d svgShape"/></g><g fill="#000000" class="color000 svgShape"><path fill="#ffd08f" d="M1134.705,764.768c-3.037-14.325,8.332-40.061,16.174-45.753       c1.759-1.277,4.22-0.884,5.496,0.873c1.277,1.759,0.886,4.22-0.873,5.497c-5.306,3.851-15.517,26.339-13.097,37.751       c0.802,3.779,2.707,4.646,4.278,4.981c3.748,0.799,7.429-0.185,10.939-2.925c8.385-6.546,13.768-21.044,14.128-31.278       c0.316-9.002-2.056-11.589-2.958-11.821c-2.042-0.08-3.71-1.728-3.777-3.806c-0.071-2.172,1.633-3.99,3.806-4.06       c0.561-0.018,3.496,0.031,6.231,2.776c3.312,3.321,4.847,9.104,4.563,17.188c-0.417,11.871-6.569,28.946-17.15,37.206       c-5.353,4.179-11.378,5.707-17.423,4.418c-1.257-0.268-2.419-0.686-3.48-1.245       C1138.064,772.727,1135.677,769.35,1134.705,764.768z M1169.06,722.094c0.002,0,0.004,0,0.006,0       C1169.064,722.094,1169.062,722.094,1169.06,722.094z M1169.067,722.094c0.002,0,0.005-0.001,0.008,0       C1169.072,722.093,1169.069,722.094,1169.067,722.094z" class="colorffea8f svgShape"/></g><g fill="#000000" class="color000 svgShape"><path fill="#cc8070" d="M1691.192,1183.822c-6.162-0.493-16.867-42.735-19.064-42.4      c-3.159,0.481,7.162,31.728,2.567,32.605c-4.595,0.877-11.119-12.2-15.85-34.999c-2.896-13.953-0.702-20.172,4.242-21.171      c4.333-0.876,6.935-0.315,10.145,0.65c3.796,1.141,7.256-1.789,11.547-0.188c3.487,1.301,5.294,5.048,8.508,5.911      c3.227,0.866,4.985-1.335,8.405,0.429c0.637,0.8,5.246,5.884,6.254,6.362c3.107,1.474,5.999-0.122,9.515,1.991      c1.582,0.951,2.685,1.827,3.067,4.149c-0.557,9.088,6.273,38.259,2.099,39.826c-4.37,1.641-14.783-25.367-14.783-25.367      s0.418,25.563-3,29.029s-9.436-3.992-9.436-3.992S1697.346,1184.314,1691.192,1183.822z" class="colorcc8b70 svgShape"/></g><g fill="#000000" class="color000 svgShape"><path fill="#cc8070" d="M1396.17,1107.131c0,0,25.54,2.098,40.066,3.478c14.526,1.38,25.727,0.719,32.427,10.031      c6.7,9.312,26.94,27.247,20.888,28.5s-27.056-18.028-27.056-18.028s23.404,31.053,17.304,35.053c-6.1,4-8.797,0.825-8.797,0.825      s0.117,8.558-3.281,8.877c-3.398,0.319-25.984-21.214-25.984-21.214s11.193,24.315,5.576,26.556      c-5.617,2.241-20.823-21.012-20.823-21.012s-25.451-5.963-39.139-11.617c-8.3-3.428-11.24-12.858-8.448-19.632      C1381.696,1122.173,1381.61,1104.87,1396.17,1107.131z" class="colorcc8b70 svgShape"/></g><g fill="#000000" class="color000 svgShape"><path fill="#2e3247" d="M1101.571,1122.28c-0.17,0-0.344-0.039-0.506-0.123c-0.546-0.28-0.762-0.95-0.482-1.496      c16.709-32.584,67.723-44.958,68.236-45.079c0.595-0.143,1.195,0.228,1.337,0.826c0.141,0.597-0.229,1.196-0.827,1.337      c-0.502,0.119-50.53,12.264-66.769,43.931C1102.365,1122.06,1101.975,1122.28,1101.571,1122.28z" class="color2e2e47 svgShape"/></g><g fill="#000000" class="color000 svgShape"><path fill="#2e3247" d="M1487.077,1142.772c-0.364,0-0.719-0.177-0.932-0.505c-0.115-0.176-11.622-17.759-21.548-26.398      c-6.93-6.032-20.363-5.767-32.22-5.535c-4.886,0.096-9.502,0.186-13.398-0.16c-13.31-1.183-74.719-13.825-77.327-14.363      c-0.601-0.124-0.988-0.712-0.864-1.313c0.125-0.6,0.701-0.989,1.313-0.864c0.637,0.131,63.891,13.154,77.075,14.326      c3.775,0.336,8.332,0.246,13.157,0.152c12.252-0.243,26.146-0.513,33.722,6.08c10.162,8.844,21.475,26.13,21.952,26.862      c0.335,0.514,0.19,1.202-0.324,1.538C1487.494,1142.714,1487.285,1142.772,1487.077,1142.772z" class="color2e2e47 svgShape"/></g><g fill="#000000" class="color000 svgShape"><path fill="#ffffff" d="M1893.893,1505.959h-13.335c-0.674,0-1.22-0.546-1.22-1.22s0.546-1.22,1.22-1.22h13.335      c0.674,0,1.22,0.546,1.22,1.22S1894.567,1505.959,1893.893,1505.959z M1852.776,1505.959h-13.335c-0.674,0-1.22-0.546-1.22-1.22      s0.546-1.22,1.22-1.22h13.335c0.674,0,1.22,0.546,1.22,1.22S1853.45,1505.959,1852.776,1505.959z M1811.66,1505.959h-13.335      c-0.674,0-1.22-0.546-1.22-1.22s0.546-1.22,1.22-1.22h13.335c0.674,0,1.22,0.546,1.22,1.22S1812.334,1505.959,1811.66,1505.959z       M1792.901,1482.954c-0.64,0-1.177-0.5-1.217-1.147c-0.264-4.452-0.607-8.918-1.019-13.277c-0.063-0.671,0.43-1.265,1.099-1.329      c0.675-0.055,1.266,0.429,1.329,1.099c0.415,4.386,0.759,8.882,1.026,13.361c0.039,0.673-0.473,1.25-1.145,1.29      C1792.95,1482.953,1792.925,1482.954,1792.901,1482.954z M1788.152,1442.074c-0.579,0-1.093-0.414-1.199-1.004      c-0.805-4.467-1.705-8.844-2.675-13.013c-0.153-0.656,0.255-1.312,0.911-1.464c0.662-0.153,1.312,0.256,1.464,0.911      c0.98,4.208,1.888,8.627,2.701,13.134c0.119,0.662-0.321,1.297-0.984,1.416      C1788.296,1442.068,1788.224,1442.074,1788.152,1442.074z M1777.353,1402.419c-0.486,0-0.945-0.293-1.134-0.773      c-1.687-4.279-3.516-8.33-5.439-12.04c-0.309-0.598-0.076-1.334,0.522-1.644c0.597-0.309,1.334-0.076,1.644,0.522      c1.961,3.784,3.825,7.912,5.541,12.268c0.247,0.627-0.061,1.335-0.687,1.582      C1777.654,1402.391,1777.502,1402.419,1777.353,1402.419z M1755.512,1367.981c-0.3,0-0.599-0.109-0.833-0.329      c-3.073-2.88-6.494-5.704-10.167-8.394c-0.543-0.398-0.661-1.161-0.264-1.704c0.398-0.544,1.16-0.661,1.705-0.263      c3.753,2.748,7.249,5.635,10.393,8.581c0.491,0.461,0.516,1.232,0.056,1.724      C1756.162,1367.851,1755.838,1367.981,1755.512,1367.981z M1721.356,1345.328c-0.179,0-0.36-0.04-0.532-0.123      c-3.838-1.864-7.913-3.682-12.113-5.402c-0.623-0.255-0.921-0.968-0.666-1.591c0.255-0.623,0.966-0.922,1.591-0.666      c4.246,1.74,8.369,3.578,12.254,5.466c0.605,0.294,0.859,1.024,0.564,1.63      C1722.243,1345.075,1721.808,1345.328,1721.356,1345.328z M1682.908,1330.781c-0.114,0-0.229-0.016-0.343-0.049      c-4.179-1.221-8.5-2.383-12.844-3.453c-0.653-0.161-1.053-0.822-0.892-1.476c0.161-0.653,0.827-1.052,1.476-0.892      c4.377,1.079,8.73,2.25,12.943,3.48c0.647,0.189,1.017,0.866,0.828,1.512      C1683.921,1330.436,1683.435,1330.781,1682.908,1330.781z M1642.722,1321.845c-0.058,0-0.119-0.004-0.18-0.013      c-1.63-0.242-2.52-0.352-2.529-0.353l-0.483-0.06l-7.156-8.698c-0.428-0.52-0.353-1.289,0.167-1.716      c0.52-0.428,1.288-0.352,1.717,0.167l6.54,7.95c0.431,0.058,1.141,0.155,2.102,0.298c0.666,0.099,1.125,0.719,1.027,1.385      C1643.838,1321.411,1643.317,1321.845,1642.722,1321.845z M1615.669,1291.712c-0.353,0-0.702-0.151-0.943-0.444l-8.472-10.298      c-0.428-0.521-0.353-1.289,0.167-1.716c0.52-0.43,1.29-0.353,1.717,0.167l8.472,10.298c0.428,0.52,0.353,1.289-0.167,1.716      C1616.216,1291.621,1615.941,1291.712,1615.669,1291.712z M1589.547,1259.959c-0.353,0-0.702-0.151-0.943-0.444l-8.472-10.298      c-0.428-0.52-0.353-1.289,0.167-1.716c0.521-0.429,1.287-0.353,1.717,0.167l8.472,10.298c0.428,0.52,0.353,1.289-0.167,1.716      C1590.094,1259.868,1589.819,1259.959,1589.547,1259.959z M1563.426,1228.207c-0.353,0-0.702-0.151-0.943-0.444l-8.472-10.298      c-0.427-0.52-0.353-1.289,0.167-1.716c0.52-0.428,1.288-0.353,1.717,0.167l8.472,10.298c0.427,0.52,0.353,1.289-0.167,1.716      C1563.973,1228.115,1563.698,1228.207,1563.426,1228.207z M1537.303,1196.454c-0.353,0-0.701-0.151-0.943-0.444l-8.472-10.298      c-0.428-0.52-0.353-1.289,0.167-1.716c0.521-0.429,1.29-0.353,1.717,0.167l8.472,10.298c0.428,0.52,0.353,1.289-0.167,1.716      C1537.85,1196.363,1537.576,1196.454,1537.303,1196.454z M1511.182,1164.701c-0.353,0-0.701-0.151-0.943-0.444l-8.472-10.298      c-0.427-0.52-0.353-1.289,0.167-1.716c0.521-0.428,1.289-0.352,1.717,0.167l8.472,10.298c0.427,0.52,0.353,1.289-0.167,1.716      C1511.729,1164.61,1511.455,1164.701,1511.182,1164.701z" class="colorfff svgShape"/></g><g fill="#000000" class="color000 svgShape"><path fill="#ffffff" d="M1107.027,1269.442c-15.995-7.053-90.405-31.526-90.74-31.782       c-0.335-0.256-13.969-11.228-15.453-13.589c-1.484-2.362-11.159-15.021-13.258-18.203c-2.1-3.183-2.975-5.11-2.319-7.723       l-5.732,7.5c6.271,4.63,10.418,21.448,10.418,21.448l-2.287,2.969c0,0-19.834,2.116-27.754,0.419       c-5.38-1.152-11.26-2.056-15.673-3.645l-9.209,6.44c0,0,17.32-0.02,34.356,3.765c17.036,3.785,27.493,7.601,27.493,7.601       s66.976,51.118,70.152,53.201c3.175,2.084,13.382,4.16,14.423,1.81c1.042-2.35-51.172-45.842-51.172-45.842       s83.361,24.337,83.441,23.875C1113.739,1277.539,1114.423,1272.704,1107.027,1269.442z" class="colorfff svgShape"/><path fill="#ffffff" d="M948.31 1230.855c-10.831 8.64-38.098 2.608-52.855-3.274-9.534-3.801-20.484-8.878-20.533-14.45-.024-2.698 2.404-5.062 7.216-7.025 17.55-7.161 56.636 12.605 57.029 12.806 7.853 4.008 9.901 9.788 9.984 10.031l.322.945-.928.776C948.467 1230.728 948.389 1230.792 948.31 1230.855zM882.969 1211.326c-1.086.866-1.08 1.505-1.077 1.781.016 1.806 3.037 5.156 17.344 10.859 12.696 5.061 34.332 9.832 42.632 4.896-.828-1.509-2.886-4.462-7.143-6.634-11.058-5.645-38.684-16.638-48.744-12.533C884.514 1210.293 883.572 1210.845 882.969 1211.326zM985.419 1207.43l-1.498.277c-17.203 3.185-33.345-11.882-39.479-22.128-3.935-6.571-7.763-14.688-2.386-19.165 2.568-2.133 6.842-3.16 12.6-2.949 20.997.769 33.064 31.06 33.183 31.365 2.388 6.115-1.59 11.498-1.76 11.724L985.419 1207.43zM947.75 1168.899c-.036.029-.068.055-.095.078-1.743 1.451-2.58 5.25 3.325 15.11 5.239 8.752 17.913 20.582 29.352 19.705.805-1.514 2.027-4.639.732-7.953-3.363-8.612-14.784-27.639-26.82-28.079C949.658 1167.592 948.254 1168.497 947.75 1168.899z" class="colorfff svgShape"/><path fill="#767fad" d="M1000.334,1234.34c1.674,0.8,1.981,2.286,0.686,3.32c-1.296,1.034-3.703,1.223-5.377,0.423       c-1.674-0.8-1.981-2.286-0.686-3.32C996.252,1233.73,998.66,1233.541,1000.334,1234.34z" class="color82a7af svgShape"/></g><g fill="#000000" class="color000 svgShape"><path fill="#555f94" d="M1302.399,1190.523c-10.922,0.159-31.254-2.965-31.254-2.965l1.765,95.405        c-0.217,3.839,13.429,6.75,30.478,6.502c17.049-0.247,31.045-3.56,31.262-7.398l-1.765-95.405        C1332.884,1186.663,1313.321,1190.365,1302.399,1190.523z" class="color946255 svgShape"/><path fill="#cc8070" d="M1302.408,1180.16c17.049-0.247,30.694,2.664,30.478,6.503        c-0.216,3.839-14.213,7.151-31.262,7.398c-17.049,0.247-30.694-2.664-30.478-6.502        C1271.363,1183.72,1285.359,1180.407,1302.408,1180.16z" class="colorcc8b70 svgShape"/><g fill="#000000" class="color000 svgShape"><path fill="#dddddd" d="M1301.729,1177.052c-4.901,0.071-14.026-1.33-14.026-1.33l0.256,10.137        c-0.097,1.723,6.026,3.029,13.677,2.918c7.651-0.111,13.932-1.598,14.029-3.32l-0.256-10.137        C1315.41,1175.319,1306.63,1176.981,1301.729,1177.052z" class="colorddd svgShape"/><path fill="#ffffff" d="M1301.733,1172.401c7.651-0.111,13.774,1.196,13.677,2.918        c-0.097,1.723-6.378,3.209-14.029,3.32c-7.651,0.111-13.774-1.196-13.677-2.918        C1287.801,1173.999,1294.082,1172.512,1301.733,1172.401z" class="colorfff svgShape"/></g></g></g><g fill="#000000" class="color000 svgShape"><path fill="#363d63" d="M651.591 1901.593c-1.006-74.432-25.24-156.584-25.484-157.405l10.845-3.233c.249.836 24.928 84.45 25.955 160.485L651.591 1901.593zM722.71 1894.797l-9.527-6.106c39.078-60.962 109.056-90.934 112.016-92.179l4.39 10.43C828.763 1807.291 759.813 1836.916 722.71 1894.797zM829.589 1806.942l-2.195-5.215 2.198 5.214C829.591 1806.941 829.59 1806.941 829.589 1806.942L829.589 1806.942zM693.761 1913.148l-11.299-.629c.097-1.75 9.703-175.451 5.677-216.599-4.127-42.182 11.189-172.746 11.843-178.284l11.238 1.328c-.159 1.343-15.827 134.88-11.819 175.854C703.512 1736.826 694.161 1905.969 693.761 1913.148z" class="color636236 svgShape"/><path fill="#363d63" d="M732.428,1685.674c-6.084-10.816-46.643,26.364-49.348,17.576      c-2.704-8.788,19.604-13.52,33.124-27.04c13.52-13.52-6.76-44.616-14.196-45.967c-7.436-1.352-50.024,66.247-60.164,56.107      c-10.14-10.14,36.504-50.699,40.56-64.895c4.056-14.196-4.056-16.9-20.956-24.336c-16.9-7.436-26.364,70.979-41.236,62.867      c-14.872-8.112,23.66-54.755,22.308-70.303c-1.352-15.548-18.252-11.492-32.448-12.844c-14.196-1.352-15.548,77.74-27.04,73.007      c-11.492-4.732,13.52-66.247,4.056-75.711c-9.464-9.464-39.884-14.196-55.431-18.252c-15.548-4.056-20.956,28.392-22.984,41.912      c-2.028,13.52,72.331,62.867,52.727,70.303c-19.604,7.436-56.783-47.319-68.275-49.446c-11.492-2.127-8.788,21.054-8.788,35.38      c0,14.325,110.187,54.626,95.991,58.682c-14.196,4.056-83.823-36.504-95.643-27.715c-11.819,8.788-5.756,25.012,0,33.124      c5.756,8.112,117.951,15.548,102.403,26.288c-15.548,10.741-85.175-7.361-96.667,0c-11.492,7.361-3.38,24.411,4.056,29.819      c7.436,5.408,16.224-2.704,43.264-4.056c27.04-1.352,45.967,10.14,31.772,18.252c-14.196,8.112-53.404,4.056-60.163,6.084      c-6.76,2.028-8.112,11.492,0,22.308c8.112,10.816,75.711,10.816,103.427-3.38c27.716-14.196,8.788-44.616,20.923-61.516      c12.135-16.9,30.453,0,30.453,0c37.18,12.844,43.264,15.548,58.135,4.732C737.16,1745.837,738.512,1696.489,732.428,1685.674z       M582.358,1690.042c-1.69,2.833-27.716-1.482-31.772-11.284c-4.056-9.802,25.35,4.393,25.35,4.393      S584.048,1687.208,582.358,1690.042z M608.722,1684.842c-7.774,4.394-18.59-17.914-13.52-23.322      c5.07-5.408,8.755,4.732,8.755,4.732S616.495,1680.448,608.722,1684.842z M668.431,1734.209      c-13.871-0.706-29.215-11.309-19.81-13.511c2.094-0.49,4.277-0.303,6.34,0.305c3.108,0.916,9.34,2.094,15.307-0.703      c8.398-3.937,9.448-7.348,13.646-2.1C688.113,1723.449,683.915,1734.996,668.431,1734.209z" class="color636236 svgShape"/><g fill="#000000" class="color000 svgShape"><path fill="#363d63" d="M821.801,1600.122c17.024-38.646,31.287-67.171,29.805-84.908      c-1.483-17.737-74.89-8.95-72.279-25.672c2.611-16.723,66.861,15.804,76.063,6.603c9.202-9.201,5.982-41.867-3.679-63.951      c-9.661-22.084-80.515,29.903-86.016,6.401c-5.501-23.502,74.055-21.584,80.956-33.086c6.902-11.502,3.221-17.943-13.341-42.328      c-16.562-24.385-56.131,45.546-53.37,14.721c2.761-30.825,47.389-25.763,46.469-40.026      c-0.92-14.262-14.721-62.571-20.302-67.512c-5.581-4.94-86.436,44.044-95.638,50.945c-9.202,6.901,15.64,81.435-2.826,76.96      c-18.466-4.475-6.837-39.234-22.479-44.755c-15.643-5.521-51.07,46.927-45.193,55.875c5.878,8.948,11.604,57.304,1.942,46.722      c-9.661-10.582-22.083-29.446-22.083-29.446s-11.962,0.92-20.704,18.403c-8.742,17.483-8.744,70.392,17.48,93.857      c26.224,23.465,45.088,6.442,78.213,9.204c19.047,1.588,25.011,13.824,26.64,23.938c2.409,14.964,8.473,29.122,18.316,40.647      c0.435,0.51,0.881,1.028,1.337,1.555C759.342,1635.32,804.777,1638.768,821.801,1600.122z M685.672,1432.241      c-11.912-9.916-25.66-37.627-14.925-42.227c10.735-4.601,26.377,36.194,26.377,36.194S697.584,1442.157,685.672,1432.241z       M798.798,1556.413c-2.531,3.911-9.046,4.289-14.929,3.689c-5.522-0.563-10.346,3.737-10.543,9.284      c-0.211,5.94-1.335,12.956-4.895,17.851c-7.362,10.122-23.003-39.108-26.683-59.351c-3.68-20.244,50.608,11.504,50.608,11.504      S803.859,1548.592,798.798,1556.413z" class="color636236 svgShape"/></g><g fill="#000000" class="color000 svgShape"><path fill="#363d63" d="M816.325,1809.102c0,0-60.592,10.685-80.266-34.902      c-19.674-45.586,144.093-87.672,166.352-77.919c22.258,9.754,7.521,63.295,6.767,69.56c-0.754,6.265-46.644-6.011-31.53,12.357      c15.114,18.368,26.258-10.484,35.828,7.64c9.57,18.124,11.145,89.546-8.184,96.725      C854.258,1901.517,816.325,1809.102,816.325,1809.102z" class="color636236 svgShape"/></g><g fill="#000000" class="color000 svgShape"><polygon fill="#cc8070" points="530.624 1868.754 832.402 1868.754 774.43 2085.656 598.031 2085.656" class="colorcc8b70 svgShape"/></g></g></svg>